<?xml version="1.0" encoding="utf-8"?>
<!-- Generator: Adobe Illustrator 23.0.1, SVG Export Plug-In . SVG Version: 6.00 Build 0)  -->
<svg version="1.1" id="Capa_1" xmlns="http://www.w3.org/2000/svg" xmlns:xlink="http://www.w3.org/1999/xlink" x="0px" y="0px"
	 viewBox="0 0 512 512" style="enable-background:new 0 0 512 512;" xml:space="preserve">
<style type="text/css">
	.st0{fill:#FFFFFF;}
</style>
<g>
	<path class="st0" d="M465.1,218.9c-11.2-55.8-43.5-104-91-135.5c-45.6-30.3-100.4-41.9-154.4-32.5c-0.4,0.1-0.8,0.1-1.1,0.2
		C103.2,71.5,25.8,181.9,45.9,297.5c1.6,9.3,3.9,18.5,6.7,27.5c13,42.2,13.8,86.6,2.8,128.6l65.1-17.8c1.8-0.5,3.7-0.8,5.6-0.8
		c4.2,0,8.3,1.2,11.8,3.6c47.5,31.5,104.4,42.7,160.2,31.5c55.8-11.3,104-43.6,135.5-91C465.1,331.6,476.3,274.7,465.1,218.9z
		 M341.3,325H170.7c-11.8,0-21.3-9.5-21.3-21.3c0-11.8,9.5-21.3,21.3-21.3h170.6c11.8,0,21.3,9.5,21.3,21.3
		C362.6,315.4,353.1,325,341.3,325z M341.3,239.7H170.7c-11.8,0-21.3-9.5-21.3-21.3c0-11.8,9.5-21.3,21.3-21.3h170.6
		c11.8,0,21.3,9.5,21.3,21.3C362.6,230.1,353.1,239.7,341.3,239.7z"/>
</g>
</svg>
