<svg id="Objects" xmlns="http://www.w3.org/2000/svg" viewBox="0 0 1359.51 360"><defs><style>.cls-1{fill:#231f20;}</style></defs><title>earth</title><path class="cls-1" d="M692.1,296.44c.79-.06,1.85-.77,2.52-.13a5.25,5.25,0,0,1-2.52,2.79c-.56.24-1.28.15-1.86.4-1.1.45-1.69,1.6-2.65,2.39s-2.12,1.37-3.06,2-2.21,1.78-3.31.92c.08-1.55,1.74-1.53,2.12-2.79,0-.92-.82-1-.79-2,1.84-1.61,4.73-2.77,5.17-6.1.2-1.47-1-4.64.79-4.78,2.12-.16.93,2.13,1.07,3.32,0,.48.55.81.79,1.46C690.81,295.08,690.77,296.14,692.1,296.44Z"/><path class="cls-1" d="M679.23,304.4c-.74,2.22-4,3.38-6.11,4.78-.65.43-1.19,1.41-2,1.72-1,.41-2.21.28-3.31.8-1.75.82-3.07,2.44-4.65,3.45s-3.79,2.39-5.57,2.52c-2,.15-5.59-1.11-3.18-2.92a34.17,34.17,0,0,1,4.38-2.25c3.77-1.9,9.08-3.17,12.2-5.44,1.77-1.29,3.36-2.65,5-3.72C676.88,302.81,678.29,304.24,679.23,304.4Z"/><path class="cls-1" d="M656.27,215.64c.43-.11.42.21.67.27-.16,1.89-1.3,3.13-3.72,2.92-1.08-.1-3-.91-3.05-1.46C649.9,215.46,655.06,216.64,656.27,215.64Z"/><path class="cls-1" d="M649.77,224.66c1,.28,5.22,3.29,3.85,4.64-.74.75-1.7-.39-2.92-.66-1.62-.35-2.87.08-4-.79s-1.56-3.15-2.92-4.38a6,6,0,0,0-3.71-1.33c-2.11.23-2.09,2.64-4,3.72-1.81-.2-2.89.33-4.25-.14s-2.15-2.35-3.45-2.51-4.54,2.17-5,.13c-.4-1.65,2.23-2.2,2.39-3.32s-1-2.94-1.6-3.45-1.33-.54-2-.93-1.2-1.18-2-1.59c-2.77-1.45-7-.86-8.09-3.19-.19-.41.11-.86-.13-1.45s-1.36-1-1.73-1.6c-.94-1.61-.28-4,1.33-4.24,1.45-.22,4.31,1.57,4.64,2.65.18.57-.12,1.21,0,1.86s1.33,2.7,2.39,2.78c1.38.12,2.19-2,3.45-2.78a6.52,6.52,0,0,1,3.45-1.06c1.13.08,1.89,1,3.18,1.45.93.35,2.09.49,3.19.8s1.8.84,2.79,1.2c3.15,1.14,6.91,1.81,8.62,3.84.46.56.45,1.38,1.06,2s3.63,1.12,3.72,2.39c.06,1-1.27,1-1.33,2C646.6,222.62,649.31,222.5,649.77,224.66Z"/><path class="cls-1" d="M621.78,304.14a8.48,8.48,0,0,1-3.32,4.64c-1.2.83-5,2.52-5.44.14a15.57,15.57,0,0,1,1.06-4.38c.94-1.86,1.94-.65,3.45-.4S620.54,303.2,621.78,304.14Z"/><path class="cls-1" d="M611.43,111.22c.54,1.6.9,3.16,1.33,4.65-1.47,1.82-4.36,1.14-6.5,2.12-1,.46-1.29,2.13-2.26,2.39-.78.2-1.39-.68-2.12-.67-1.91,0-2.84,3.19-5.18,2.39-1.34.8,0,3.86-1.59,4.11-1.17.19-1.81-1.32-2.52-2.25-.86-1.13-2.09-1.74-2.12-2.65s1.9-2.53,2.52-3.19c.75-.81,2.23-2.31,3.18-2.52,1.77-.39,3.56.17,4.91-.4,1.16-.49,1.23-2.32,1.86-2.78s1.14-.29,1.59-.53a4.83,4.83,0,0,0,1.86-5.31c-.45-1.48-2.9-3.1-1.33-4.91,2.35.25,5.45,2.56,5.84,4.91.15.91-.36,1.83-.27,2.78A12.65,12.65,0,0,0,611.43,111.22Z"/><path class="cls-1" d="M612,96.76c-.3.68-.9.54-1.46.93s-1.18,1.6-1.85,1.72c-1.07.2-2.27-1-3.33-.79-1.24.29-.51,1.25-.92,2.38-1.09-.23-2.88-1.44-2.92-2.65,0-.76,1-1.23,1.2-2.12.39-1.52-.63-2.28-1.2-3.72,0-.21.13-.22.13-.39,1.3-.28,3.84,2.17,6.77,2.65C610.27,95.08,611.85,94.91,612,96.76Z"/><path class="cls-1" d="M607.05,231.43c.14,1.1-1.79,1-2,.26C605.1,230.84,606.82,230.57,607.05,231.43Z"/><path class="cls-1" d="M597.76,85.62c1.32.69,4.5,2.26,2.26,3.71C598.66,88.83,597.25,87.11,597.76,85.62Z"/><path class="cls-1" d="M591.66,225.6c1.52-.83,3.18-2.65,5.84-1.73-.58,1.65-2.58,1.61-3.85,2.39s-2.36,2.1-4,2.25a1.23,1.23,0,0,0-.53-.53C589.13,226.5,590.61,226.16,591.66,225.6Z"/><path class="cls-1" d="M588.08,200.65c1.56,0,3-.48,4.11.13-.2,3.32-5.35.8-8.75,1.33-.73.11-.94.67-1.73.39a2.85,2.85,0,0,1,2.52-2.38C585.2,200,586.66,200.64,588.08,200.65Z"/><path class="cls-1" d="M589.4,204.76c.15,1.84-2.35,2-3,3.45,1.1,1.69,1.53,4,2.79,5.57,0,1,.2,2.34-.4,2.79-2.67.51-4.11-4.29-5.18-6-2,.38-.17,6.91-2.91,6.1-1.34-.4,0-2.26-.27-3.71-.25-1.27-1.49-1.53-1.59-2.52-.08-.82.9-1.69,1.19-2.52.42-1.21.16-3.52,1.59-3.58.71,0,1.67,1.49,2.13,1.59C585.28,206.3,587.17,204.34,589.4,204.76Z"/><path class="cls-1" d="M584.49,224.53c-.48,1-3.21.52-3.44-.4C581.51,223.09,584.27,223.4,584.49,224.53Z"/><path class="cls-1" d="M582,227.71a3.32,3.32,0,0,1-.52.54c-1-.33-2.09-.57-2.39-1.6C579.8,225.56,581.94,226.47,582,227.71Z"/><path class="cls-1" d="M578.39,224.4c-.67.95-3-.08-3.85.92-1.38,0-2.77,0-3-1.19.4-1,1.66-.3,2.66-.4C575.75,223.59,578,222.46,578.39,224.4Z"/><path class="cls-1" d="M559.69,275.21c0-1.17-.75-2.2-.94-3.44-.06-.45.07-1,0-1.6-.08-.82-.49-1.5-.39-2,.18-.88,1.2-1,1.46-1.72.41-1.24-.51-1.44-.53-2.92,0-1.05.79-1.56,1.33-2.92.24-.63.25-1.81.52-2.26s1.82-1,2.39-1.32c2-1,3.67-2.85,5.71-3.19.52-.08,1.22.07,1.59,0,1.21-.21,2.72-1.22,4.38-1.59s3-.23,4.25-.93a11.12,11.12,0,0,0,3.71-4c.6-1.46.43-2.69,1.59-3.18.57-.24,1.13,0,1.73-.13a8.08,8.08,0,0,0,2.38-1.2c.93-.83,1.08-2.18,2.13-3.05a18.45,18.45,0,0,1,3-2,5.29,5.29,0,0,1,2.12-.53c1.87.16,2.74,2.77,4.78,2.25.72-.18,1.46-1.72,2.12-2.65,1-1.35,1.66-3.18,3.32-3.58,1.34-.33,2.84.51,3.58-.66.17-.84-.63-1.34,0-1.86,1.55.09,4.16,2.18,6.5,2.25,1.26,0,3.6-1.37,3.85.53.11.85-1,1.53-1.19,2.39-.18.61.26.94-.14,1.59-1.08.43-2.22.65-2.25,1.86,0,1.51,2.14,2.22,3.44,3.06.9.56,1.65,1.43,2.13,1.72s1.05.35,1.33.53c.86.56,1.47,1.82,2.65,1.86,1.35,0,2.7-1.69,3.45-3.32.88-1.91.93-4.23,1.32-6.24.14-.67.61-1.32.8-2,.51-1.81,1.21-4.26,2.79-4.91,1.58,1.68,2.12,4.94,1.86,7.7,1.06.81,2.92.54,3.18,2.39.09.64-.32,1.46-.27,2.12.09,1.12.92,2.1,1.07,3.05.26,1.77-.3,3.23.52,4.51,1,1.63,3.07,1.57,4.38,3.32a6.24,6.24,0,0,0,.67,2.39c.12.4,0,1.06.13,1.33.43.88,1.58,1,2,1.72.21.37.15,1.06.4,1.72a15.28,15.28,0,0,0,1.86,2.66c.6.92,1.58,1.92,1.72,2.65.27,1.32-.69,2.23-.93,3.32-.28,1.32,0,3-.53,4.38-.61,1.59-2.13,3.16-3.32,5.17a17.52,17.52,0,0,1-3.71,4.64c-.84.67-1.83,1.06-2.66,1.73a38.83,38.83,0,0,0-3.44,3.58c-1.2,1.27-2.65,2.23-3.59,3.32-1.36,1.58-2,4.12-4.37,4.38a13.93,13.93,0,0,0-3.85.53c-2,.78-3.27,2.22-4.24,2.25s-2-1.2-2.93-1.32-1.89.8-3.44.79c-.64,0-1-.37-1.86-.66-1.9-.6-4-.58-4.25-2.65-.15-1.13.72-1.64.66-2.66s-1-1.27-1.46-2.12a2.21,2.21,0,0,0-.66-2.66,2.69,2.69,0,0,1,.53-1.85,18.27,18.27,0,0,0-2.65,1.06c-1,.59-1.67,1.93-2.78,1.73-1-.37-.25-1.42-.4-2.26a11.85,11.85,0,0,0-2.26-3.85,19.39,19.39,0,0,0-4.51-1.73c-4.1-.64-6.72,1.56-10,1.87-.83.07-1.73-.14-2.51,0-2.67.46-5.64,2.58-7.3,4-2.75.28-5.53-.56-8.36.27s-4.42,3.17-8.75,2.52c-.86-.74-2.39-1.1-2.39-2.39,0-1,1.49-1.66,2-2.39a9.47,9.47,0,0,0,1.46-3.71c0-.88-.6-1.94-.54-3.05C559.2,277,559.69,276.07,559.69,275.21Z"/><path class="cls-1" d="M557.43,219.89c.72-.1,1.26-.64,2-.66,1.55-.06,3.08,1.14,4.91.92.39.43.12.79.13,1.47,1.55.82,4.1.67,4.91,2.25-1.17,1.23-2.89.34-4.38.13s-2.78-.1-4.25-.27c-1.85-.21-3.53-1.24-5.3-1.45-1.08-.14-2.17.15-3.19,0-1.19-.19-5.64-1.87-5.7-3.05s2-1.57,3.84-1.33C552.78,218.21,554.37,220.31,557.43,219.89Z"/><path class="cls-1" d="M561,210.73c-1-.28-1.94-.12-2.38-.4-.91-.55-.78-2.14-1.07-3.05s-1.39-1.4-2-2.65c-.86-1.81-1.23-5.86,1.06-6.24.93-.15,1.88.56,2.52.4,1.28-.31,1.06-2,2.13-2.65.59-.39,1.68-.23,2.52-.53a5.71,5.71,0,0,0,2.12-1.86c.56-.66,1-1.78,1.73-2.25s1.58-.56,2.25-1.07c1.74-1.32,1.8-3.17,3.18-4.78,1.18-1.35,3,1.31,3.19,2.39.66.85,2,1.06,2.52,2-.78,2.34-3,2.54-2.52,5.84a9.37,9.37,0,0,0,.8,2.26c.38.78,1.5,1.61,1.45,2.12-.08,1-2.08.95-2.52,2s0,1-.13,2.52c-.56,1.08-2.06,1.34-2.52,2.66-.56,1.57.08,3.61-1.19,4.77-.89,0-1.85.77-2.92.66s-2.27-1.7-4.12-1.72c-.7,0-1.53.45-2.25.4S561.84,211,561,210.73Z"/><path class="cls-1" d="M552.42,207.78c3.38,0,3.38,5.24,0,5.24S549.05,207.78,552.42,207.78Z"/><path class="cls-1" d="M547.48,207.15a5.5,5.5,0,0,1,1.85,2.65c0,.94-1.45.89-1.85,2.13-.63,1.9.28,4.06-.8,5a5.89,5.89,0,0,1-2.65.26,38.89,38.89,0,0,1-6.37-6,14.52,14.52,0,0,1-2.13-2.39c-.68-1.26-.93-2.66-1.72-3.84s-2-1.79-2.65-2.92c-.56-.93-.61-2.16-1.19-3.05s-1.48-1.2-2.13-1.86c-.42-.44-.67-1.12-1.06-1.59-1.67-2-4.88-3-5-6,.68-.77,1.38.3,2.65.54.82.15,1.8-.07,2.39.13,1.21.4,2,2.29,3.32,3.32.71.57,1.65,1,2.38,1.59s1.37,1.6,2,2c.87.53,2.06.87,3.19,1.59,1.53,1,4.27,2,4.64,4,.09.49-.23,1.33-.13,1.71.18.7,1.06,1,1.59,1.6s.79,1.84,1.73,2S546.46,207,547.48,207.15Z"/><path class="cls-1" d="M484.85,179.29c1.14.37,5,5,3.85,7.56a3,3,0,0,1-2.92,1.46c-2.63-.42-2.12-6.26-1.33-8.63A.67.67,0,0,1,484.85,179.29Z"/><path class="cls-1" d="M396.62,246.43a6,6,0,0,1,1.73-3.46c1.22-.91,2.87-.81,4.11-1.46a10.33,10.33,0,0,0,3.18-2.38c.64-.83.68-1.78,1.2-2.39.35-.43,1.16-.54,1.59-1.06s.3-1.34.93-1.86c1.84-.79,2.37,2.59,2.66,4.91a18.57,18.57,0,0,1,.39,1.85c-.19,1.06-1.36,1.28-1.72,2-.09,2.91-1.24,5.43-2.26,7.82-.88,2.07-1.4,4.33-2.12,6.11-.27.64-.82,1.15-1.06,1.72-1,2.26-1.31,5.8-3.06,6.77a14,14,0,0,1-3.71.93,3.79,3.79,0,0,1-3.45-2.65,18.34,18.34,0,0,1-.13-2.39c-.17-1.07-.8-2-.67-3.19.3-2.7,2.93-4,3-6.24C397.38,249.79,396.44,248.12,396.62,246.43Z"/><path class="cls-1" d="M332.67,57.62c.15,2.22-3.4,2-3.85,3.85-.2.86.42,2,.27,2.78-.27,1.4-1.62,1-3.32,1.73-.87.37-1.71,1.75-2.65,1.85s-1.41-.5-2-.39c-.87.16-.58,1.23-1.86,1.46-1,.17-2.8-.91-2.92.4-.08.84,1.6,1.29,2.65,1.19.84-.08,1.45-.65,2.26-.66,1.57,0,2.59,1.16,3.58,1.19,2.28.06,4.51-2.1,6.9-1.86,1.08.11,1.72.88,2.52.8,1.28-.12,2.37-1.6,3.32-2.13-.4-2.23,0-5.18,2.12-5.3,1.44-.09,3.59,2.45,3.85,0a2.08,2.08,0,0,0-2-2c-.76,0-1.77,1.51-2.39.27,0-1.22,1.37-.9,2.12-1.2.57-.23,1-.84,1.6-1.06,3.15-1.11,7.53,1.09,8.75-1.59-2.8-2.39-7.56.87-10.74.66a4.39,4.39,0,0,1-3.59-2.39c-.13-.41,0-1-.13-1.72s-.56-1.74-.53-2.26c.14-2.4,6.1-2.85,6.1-5.84-1.14-1.09-4.48-.9-5.57.27-.39.42-.37,1.27-.93,2.12-1.19,1.82-5,2-6.23,4.25a4.73,4.73,0,0,0-.54,2.65C329.8,56,332.58,56.3,332.67,57.62ZM301.09,187.38c-3.82-.56-7.73,1-10.35,2.12-1.51.66-3.05,1.67-4.38,1.73s-2.5-.67-3.71-.8a20.47,20.47,0,0,0-5.18.27c-1.52.27-2.9,1.36-4.24,1.45-2.57.2-5-2.31-6.63-3.58-1-.77-2-1.4-2.92-2.12s-2.28-1.24-3.05-2c-1.05-1-1.05-2.77-1.6-4.11-.64-1.58-2.61-2.75-4.11-4.25-1.12-1.12-3.7-2.8-4-4.24-.14-.74.31-1.59.26-2.39-.07-1.16-.94-1.82-.92-2.66,0-1.16,1.4-2.06,1.72-3.05.17-.5.09-1.21.27-1.85.37-1.35,1.26-2.15,1.06-4.12-.08-.78-.76-1.5-.8-2.52,0-.69.46-1.08.4-1.72-.1-1.14-1.57-1.36-1.73-2.66s1.29-2.45,2.13-4c.38-.68.58-1.73.93-2.25.74-1.13,1.95-1.68,2.52-2.79.41-.82.55-2,.93-2.65.49-.79,1.46-1.22,2.39-2.26.75-.85,1.06-1.87,1.59-2.25a12.6,12.6,0,0,1,2.39-.93,10.46,10.46,0,0,0,5.43-4.91,5.5,5.5,0,0,1,1.07-4.51c.81-1.37,1.4-2.67,2.78-3.45,1.66-.94,3.22-1,4.38-2.79a8.26,8.26,0,0,0,1.46-3.31,3.69,3.69,0,0,0-2.52-3.19c-1.2-.19-3,.91-3.72-.4-.21-.42.09-1.39,0-1.86-.15-.86-.89-1.48-.92-2.12-.07-1.24,1.22-2.54,1.59-4,.49-2,0-3.45-.14-5.7,1.86-2.93,6-1.48,10.09-1.2.62,0,1.32-.15,2-.13,2.44.06,4.35.79,5.17-1.33a13.91,13.91,0,0,0,.4-4.51,10.25,10.25,0,0,0-2.79-3.71c-1.31-.84-3.22-.47-4-2,.62-2.62,3.55-.44,5.31-1.06.9-.32.8-1.88,1.6-2.13.54-.17,1.23.55,2,.53a13.6,13.6,0,0,0,3.58-1.59c.84-.57,1.11-1.76,1.85-2.26a10.16,10.16,0,0,1,1.73-.52,10.12,10.12,0,0,0,3.32-2.39c1.09-1.32,1.58-3,2.91-3.19,1.78-.32,5.81.36,6.11-1.59s-1.63-3.31-.93-5.31c.56-1.58,2-1.3,4-2.25,1,.68.69,2.65.8,3.85,1.23,0,3.74-.37,4-1.46.29-1.37-1.8-2.76-2.26-3.59s-.6-2.46-1.59-2.65c-2-.39-4,2.78-6.5,2.78a4.43,4.43,0,0,1-3.85-2.52,10.65,10.65,0,0,1-.13-2.12c-.17-1.08-.82-2.21-.53-3.71,1-1.74,3.35-2,5-2.92.64-.34,1.15-1.07,1.85-1.33,1.19-.44,2.95,0,4.12-.66.74-.42.53-1.15,1.06-2,.33-.54,1.14-.85,1.59-1.46.31-.43.35-1.07.67-1.46,1.15-1.44,3.25-2,4.11-3.45.38-.66-.66-.9-.4-1.86.43-.92,2.09-.24,3.05-.4,1.32-.2,2.54-1.81,4-2.12s3.12-.13,4.51-.66c.84-.32,1.61-1.08,2.39-1.2.28,0,1.07.15,1.46.14s1.05-.34,1.73-.4c1-.1,2.18.24,3.45.26,2.09,0,4.09-.63,5.83.14.92.39.81,1.43,2,1.85.6.22,1.38-.08,2.26,0,1.3.13,2.65,1,4.38,1.2.61.06,1.24-.08,1.85,0A32.66,32.66,0,0,1,366.5,39c1.56.53,4.85,1.18,4.91,2.66.07,1.74-2.86,2.25-4.11,2.25-2.09,0-4.85-1.22-7-.53,0,3,3.27,5.28,6.23,4.91.26-1.41-1.67-.62-1.46-2,1.33-1,2.91.67,4.78.4.73-.2.61-1.25.79-2,1.58-1,3.56-2.37,6-1.33a1.2,1.2,0,0,1,.54-.53c.15-1.45-1.59-2.21-.67-3.58.47-.94,2.94-.62,3.32.13.19.9-.61.8-.53,1.59a2.14,2.14,0,0,0,2.12,1.2c1.31-.07,1.56-1.24,2.79-1.86.5-.25,1.22-.28,1.86-.53s1.38-.9,2-1.06c.44-.12,1.11,0,1.72-.13.79-.17,1.61-.8,2.26-.8s1.37.93,2.39,1.06c.55.08,1.18-.31,2-.4.65-.07,1.32.08,1.85,0,1.27-.18,2.14-.85,3.19-.79.74,0,2,1,2.52.53.86-.85-1.15-1.48-.53-2.26,2,.16,4.2.11,6.24.4,3,.43,5.88,1.93,8.62,2-.26-1.84-2.37-1.31-3.32-2.12a7.79,7.79,0,0,1-1.46-2.79,15.79,15.79,0,0,1,1.86-3.18c1.17-1.1,5-1.09,6.1.4.75,1,.5,2.55,1.59,2.52s1.44-2.33,2.52-2.39c.9-.05,1.36,1.48,2.26,1.46,1.1,0,1.86-2.07,3.32-2.12.78,0,1,.4,2.25.53.83-.54-.28-1.24.14-2,1.48-1.07,4.87-.25,6.76-.92.53-.63-.67-1.08-.13-1.73,1.63-1.14,4.38-1.25,7.17-1.72,1.7-.29,3.3-1.48,4.64-1.6s2.72.82,4,.8a7.24,7.24,0,0,0,2.39-.53c.74-.29,1.25-1,2-1.19,1.16-.29,2.63.13,4,0s2.68-.7,3.71-.53,1.74,1.18,2.66,1.32c2.79.44,5.68-.42,8.22.27.46.12.92.59,1.46.8,1.71.62,2.87.42,3.19,2.52,1.34.47,2.13,1.7,3.71,2.12,1.06.28,2.13-.14,3.32-.14a38,38,0,0,1,4.91.27c.76.12,1.38.68,2.12.8.54.08,1.25-.06,1.86,0,.83.07,1.57.42,2.25.4,1.39-.05,2.45-1.29,3.58-1.47a9.36,9.36,0,0,1,2,.27c2.24.19,4.81-.29,6.64.13a13,13,0,0,1,3.71,2.13c.78.59,1.26,1.54,2,2a7.37,7.37,0,0,0,3.19,1.07c.85-.14.88-1.08,1.72-1.46,2.64-.59,7.31.84,9.42-.13.82-.38.66-1.25,1.33-1.73,4-.19,8,.16,11.68.27a29.9,29.9,0,0,1,3.85-.14c1.31.23,2.27,1.55,3.57,2,.88.3,2.41.14,3.72.4.88.17,1.6.7,2.25.8a18.12,18.12,0,0,0,4.12-.27c3-.24,7-.4,9.95.8,1.6.64,2.27,1.93,4,2.12,2.45.27,6.25-.2,8.76,0,.6,0,1.16.3,1.59.27.84-.07,1.35-.78,2.39-.8,1.31,0,3.4,2,5.31,1.73.82-.56-.66-1.33.13-1.86s1.77,0,2.92,0c.63,0,1.4-.32,2-.27,1.46.13,2.84,1.44,4.64,1.86a16.75,16.75,0,0,0,5.18.27,14.35,14.35,0,0,1,3.58-.4,16.76,16.76,0,0,1,1.72.66c.57.15,1.12,0,1.59.13s.89.54,1.33.67c2.47.7,5.75,1.05,8.36,1.86,1.54.47,3.11,1.42,4.38,1.45.63,0,1.19-.27,2-.26,4,0,8.73,1.69,8.36,5.44-4.69,1-8.62-3.23-13.54-2A2.13,2.13,0,0,0,627.48,47c.19,2.32,6,2.12,6.5,4.38-1,.72-2,0-2.78.14a9.56,9.56,0,0,0-4,2.12c-.9.84-1.69,3-2.66,3.18-1.18.24-3-1.16-4.77-.79-.66.14-1.28.95-1.86,1.06-1.46.28-3.33-.8-4.24.93.48,1.21.19,2.9,1.19,3.58.65.44,1.46.1,2.26.4s1.44,1.48,2.25,2.12,1.36.54,1.73,1.2c.08,1-.39,1.08-.27,1.72.21,1.11,1.95,1.36,2,2.12.06,1-1.1.76-1.32,1.73-.09.61.71.78.79,1.59.05.54-.44,1.11-.4,1.72.06.89.76,1.48.66,2.26a2.06,2.06,0,0,1-1.19,1.46c-2.54-1.63-4.83-3.88-7.56-6s-7.24-4.78-7.7-9.29c0-.69,1.47-1.23,1.73-2.25.1-.42-.17-1-.14-1.59.1-1.56,1.39-3.06,1.33-4s-1.95-2.91-2.92-3.19c-.77.4,0,1.21-.13,1.86a2.62,2.62,0,0,1-2,1.85c-2.51.22-2.79-3.23-6.77-2.25a3.35,3.35,0,0,0-2.12,3.71c.11.58,1.71,1.21,1.59,2s-3.61,1-4.38.92c-2.14-.17-3.24-1.77-5.17-1.72-.95,0-1.78.79-2.52.93-4.18.76-10.38-2.06-11.81,1.59-.2.51-.09,1.19-.27,1.72a15.92,15.92,0,0,1-1.06,1.86c-.16.41-.13,1.22-.4,1.86s-2.75,2.84-.53,3.45c.53.14.78-.23,1.46-.13,1.14.15,3,2,4.38,2,.8,0,1.91-.91,2.52-.93,1.23-.06,2.12.73,3.05,1.19s2.26,1.36,2.92,1.33c1.26-.07.66-.93,1.86-1.33,2.3.68,3.37,3.11,5.57,5,.8.7,2,1.3,3,2.26.6.53,2.45,2,2.53,2.65s-.52.91-.67,1.46c-.21.81.29,1.4-.26,2-2.12-.78-2.6-2.87-4.12-4.64-.56-.66-1.13-1.45-2-2.39-.38-.43-1.79-1.92-2.65-1.59-1.67.63.91,3.16,1.32,3.71.89,1.17,2.06,2.75,2.13,4,.05.8-.51,2.23-.53,3.59,0,.91.23,1.74.13,2.52a17.46,17.46,0,0,1-.93,2.52c-.31,1-.38,2.13-.66,2.78a5,5,0,0,1-3.45,2.66c-1.1,0-1.58-.85-2.66-.8-1.63.08-1.93,1.58-2.91,2.79.08,1.3.49,1.75.26,2.65-.36,1.41-2.31,1.65-2.25,3s1.79,1.55,2.65,2.13a21.85,21.85,0,0,1,4.38,4c.74.94,1.8,2.71,1.73,3.71-.1,1.31-3.88,3.14-5.45,2.65s-1-1.87-1.32-3.18c-.27-1-1.06-1.44-1.46-2.25-.21-.43-.11-1.11-.4-1.6-.8-1.35-2.2-.61-3.85-1.46-1.08-.55-.77-1.72-1.19-2.78-.57-1.43-3-2.11-4.91-1.73-1.42.28-1.86,1.47-3.19,1.73-1.94-1.16.4-4-2-4.25-1.83-.19-3,2.63-4.12,3.45-.72.55-2,.67-2.12,1.46-.16,1.46,1.54,1.16,2.91,1.72s1.39,1.92,2.53,2c1,.07,1.58-1,2.52-1.06a6.6,6.6,0,0,1,4,1.2c-.67,1.61-4.24,2.79-4.25,4.91,0,1.23,1.43,1.44,2.53,2.25.92.69,2.14,2.63,3.44,4,.57.58,1.48,1,1.73,1.33.62.88.52,2,1.19,2.52.12.73-.33.91-.26,1.59.33,1,1.79.78,2.12,1.73-.27,2.29.68,4.44-1.19,5.31-.87,4.1-1.84,7.31-4.65,9.55-2.52,2-5.85,2.6-8.89,3.58-.79.25-1.42,1.09-2.12,1.33-1.76.6-4.91.23-5,2.39-.07,1.06,1.35,1.7,1.46,2.78a3.43,3.43,0,0,1-2.39,3.45c-.77.08-2.43-.45-2.52-1.86-.11-1.58,2-2.23,2.12-3.18.28-1.69-1.46-3.34-3.45-3.18-1.75.13-5.73,3.64-5.83,5.57-.08,1.43,2.85,4.43,3.84,5.3,3.73,3.29,7.69,5.26,7,13.27-.93,2-3.31,2.46-5.17,3.58-1.42.85-2.12,3.5-4.51,3.72-1-.33-.4-1.83-.67-2.52-.36-.95-2.26-1.42-3.44-2.39-1-.8-1.38-2.05-2.13-2.79-.93-.91-2.31-1.1-3.45-1.72-.71-.39-1.27-1.76-2-1.72-1.17,0-.76,1.17-1.06,3s-1.64,3.27-1.19,5.45c.18.89,1.3,1.61,1.85,2.52.92,1.5,1,3.25,2,4.11.63.57,1.68.69,2.39,1.19,1.41,1,3.88,3.19,4.38,4.38.58,1.4,0,3,.4,4.51.44,1.7,2.66,2.92,1.33,4.65a10.76,10.76,0,0,1-3.45-1.73,10.52,10.52,0,0,1-3.85-4,11,11,0,0,1-1.06-1.59c-.47-1.19-.37-2.53-.8-4a12.37,12.37,0,0,0-2.92-4.25c-.93-.87-2.58-1.39-2.65-2.65-.1-1.78.6-3.87.53-6,0-.45-.32-.91-.4-1.46-.14-1,.11-2.26-.13-3.19a15.16,15.16,0,0,0-1.2-2.38,25.36,25.36,0,0,1-1-2.52c-.54-1.54-1.15-4.5-2.39-4.65s-2.65,2.5-4.38,2.53a2.43,2.43,0,0,1-2.26-1.6c-.16-.81.42-1.63.4-2.52-.05-1.78-1.31-2.47-2.26-3.71-.38-.51-.48-1.22-.79-1.6-.61-.72-1.76-1.12-2.52-1.85a10.51,10.51,0,0,1-1.86-2.39c-.52-1-.68-2.39-1.46-2.52s-1.61.94-2.39,1.19a21.85,21.85,0,0,1-3.58.67c-2.66.18-4.83-.53-4.51,2.65-.42,1.43-1.92,1.44-2.92,2.12-1.27.86-2.2,2.6-3.58,4-.68.68-1.65,1.1-2.26,1.73s-.66,1.36-1.19,1.85c-1.42,1.34-3.54,1.46-4.51,3.32-.06,2.21,1,3.88.79,6-.11.95-.83,1.8-.93,2.79-.08.84.35,1.75.14,2.65-.12.48-.65.74-1.07,1.33s-.51,1.23-.79,1.59c-.45.57-1.18,1-1.6,1.46-.67.8-.81,1.37-1.45,1.46-2.91.42-3.63-5.11-4.91-7.43-.6-1.07-1.8-2-2.39-3.32-.68-1.49-.89-3.35-1.86-5a33.39,33.39,0,0,1-2.52-4.38c-.47-1.26-.88-2.84-1.33-4.24a23.48,23.48,0,0,1-1.06-4.51c-.11-1.73.33-2.79-1.06-3.46-1.28.31-1.85,1.6-3.32,1.6s-5.21-2.46-4.11-4.65c-.92-1.31-3.26-2-5-3.58-1-.89-1.94-3-3.71-3.18a9.53,9.53,0,0,0-1.6.26c-1.12.1-3.11-.1-4.38,0a28,28,0,0,1-5.57.27c-1.3-.14-2.91-.39-4.24-.53-1.7-.18-4-.58-4.91-1.46-.59-.55-.83-2.28-1.86-2.52-1.23-.29-1.91.66-3.05.93-2.43.55-4.46-.5-6.11-1.6-1.16-.77-2.22-1.17-3-1.72-2-1.35-2.38-5.41-5.44-5.44-1.06,0-2.76.65-2.92,1.86-.1.84,1,2.41,1.46,3.05,1.49,2.1,4.22,2.88,5.05,5.7.55.22,1.66-.48,2.25.14.51,1.2,0,3.45,1.19,4,5.52.91,7.09-2.12,9.56-4.25,1.43.94,1,1.75,1.46,2.79a4.4,4.4,0,0,0,2.25,2.25c.67.26,1.52,0,2.52.4.63.24,3.25,2.71,3.32,3.58s-1.71,3.44-2.26,4.11-1.34,1-1.59,1.6-.13,1.43-.26,1.72c-.25.53-1.44,1.22-2.13,1.86a28.17,28.17,0,0,1-2.25,1.72c-.84.65-1.36,1.53-2.26,1.86-1.76.65-3.44.37-4.91,1.33-.95.62-1,2-2.12,2.78s-3.28.8-5,1.6c-1.13.51-1.81,1.51-2.78,1.85-.4.15-.9,0-1.33.14-.89.22-1.7.85-2.53,1.06-.65.17-1.34.08-2,.27-2,.59-3.91,2.66-6,1.45-1-2.23-1.12-5.05-2.25-7-.58-1-1.71-1.32-2.12-2.39-.06-.85,1-.61,1.06-1.32-.34-1.44-1.7-2.11-2.52-3.32-.41-.6-.6-1.44-1.07-2.12-1.58-2.3-4.7-3.5-5.3-6.37-.17-.78,0-1.4-.13-2a7.58,7.58,0,0,0-1.6-2.79c-.5-.59-1.54-1-2.12-1.86-.39-.57-.47-1.38-.8-2a22.26,22.26,0,0,0-5.3-6.37c-1.09.16-2.25.24-2.79.94a20.38,20.38,0,0,0,2.26,4.64,26.93,26.93,0,0,1,2.52,4.24c.2.56.17,1.28.4,1.86.83,2.11,3.45,2.75,4,5.18.35,1.62-.08,2.75.39,4.37s2.76,2.49,3.72,4c.78,1.23.78,3,1.33,4.12.79,1.7,3,2.44,4.64,3.58,1.46,1,2.51,2.61,3.71,3.72.71.64,1.69.76,1.86,1.46.23.89-.38,1.2-.53,2,1,1.06,2,3,3.71,3.19.71.07,1.59-.64,2.66-.8.54-.08,1.14.09,1.59,0,.71-.13,1.32-.76,2.13-.93,1.35-.29,2.92-.17,4.64-.4s2.74-1.58,4-1.19c1.36,1.5.38,3.2,0,4.65-.14.51-.14,1-.26,1.46-.72,2.36-2.6,4.11-3.46,6.23-.26.65-.22,1.45-.52,2.12-1,2.13-3.05,4.23-4.65,6a26.63,26.63,0,0,1-2.65,2.66c-.95.78-2.12,1.21-3.19,2A28.6,28.6,0,0,0,393.3,205c-.58.79-.85,1.71-1.46,2.39-.86,1-2.2,1.44-2.92,2.38a28.77,28.77,0,0,0-1.59,3.45c-.73,1.52-2.25,2.55-2,4.65.1.8.82,1.3,1.07,2.12a9,9,0,0,1-.14,4.11c.75,1.82,1.29,3.85,2.65,5,.17,2.69-.22,5.29,0,7.57.14,1.44.71,2.51.14,3.84a12.33,12.33,0,0,1-3.58,4c-1.26.81-3.17,1-4.52,2-.93.67-1.71,1.86-2.65,2.65-1.56,1.31-3.71,2.53-3.85,3.85-.08.76.6,1.91.8,2.65.52,2,1,4.78.13,6.9-1,2.29-5.82,1.82-6.37,4.24-.16.74.33,1.33.27,2.13a18.29,18.29,0,0,1-1.33,3.84c-.59,1.1-1.92,1.6-2.78,2.53-1.09,1.17-1.64,2.88-2.79,4.11a40.57,40.57,0,0,1-5.71,4.91,16.61,16.61,0,0,1-7.69,2.78c-1.61.12-3.34-.37-5-.13-.62.09-1.3.66-2.13.8-.47.07-1-.09-1.45,0-.84.14-1.62.8-2.39.8a4.69,4.69,0,0,1-4-4.12c0-.78.67-1.53.66-2.25s-1.05-1.91-1.86-3.45-1.08-3.16-1.86-4.38-1.91-1.9-2.51-2.92c-1.23-2-1.32-4.46-1.73-6.9-.13-.8-.68-1.66-.8-2.66-.14-1.21.15-2.57-.13-3.58a18.31,18.31,0,0,0-1.59-2.52c-.94-1.72-1.59-4-2.39-5.3s-2.25-2.56-2.39-4a19.3,19.3,0,0,1,.27-3.72c.14-.93.83-1.67,1.06-2.65.15-.65,0-1.4.13-2.12.68-3,4-4.14,3.58-7.83-.18-1.57-1.29-2.34-1.46-4.12-.07-.83.42-1.56.4-2.39,0-1.12-1-2.78-1.46-3.84-1.34-2.93-2.17-5.61-4.11-7.83-1.06-1.21-2.44-2.07-3.32-3.19a8.34,8.34,0,0,1-1.59-3.31c0-.76.58-1.23.8-2,.27-1,.3-2.83.66-4.38.17-.71.94-2.43.8-3.58A5.58,5.58,0,0,0,312,192c-1.85-.45-3.76.6-6.1.4C303.85,191.15,304,187.81,301.09,187.38Zm73.37,47.5c.62-1,1.39-3.72,0-4.38h-.26C373.61,231.6,373,234.26,374.46,234.88Zm-1.86-27.73c.45-.92,1.51-1.89,1.33-3.05-.38-2.56-5.16-1.3-5.7.53-.37,1.23.22,2.2-.27,3.45.52,1,1.83,1.18,3.45,1.06C372.31,208.75,372.2,208,372.6,207.15Zm-8.09,13.67c.53-1-.83-1.61-1.06-2.66-.26-1.22.3-2.66-.8-3.32h-.39C361.3,217,362.66,220.61,364.51,220.82ZM455,89.06c-.5-1-1.93.3-1.32,1.2C454.57,90.32,454.9,89.8,455,89.06ZM424.09,94.5c2.15-.41,0-3.85-1.6-3.45C420.38,91.58,422.62,94.79,424.09,94.5Zm-9.82,17.12c.66-4.6-2.92-5-3.58-8.23.3,0,.14-.38.39-.39.88-.42,2.19.67,2.65-.4,0-1.57-2-2.74-4-2-.57-.4-.65-1.29-.79-2.12-1.5-.9-5.23-2.86-5.18-4.65.05-1.47,2-2.3,4.12-2.25.91-.7.32-2.83-.53-3.32-3.43-.75-5.26-.25-7.43,1.33-1,.75-2.21,1.27-2.79,1.72A3.41,3.41,0,0,0,396,93.44c.08.82,1.26,1.31,1.72,2.39.24.56.19,1.26.4,1.73.58,1.28,2.06,2.1,3.18,3.18.79.76,3,2.41,3.06,3.32,0,.75-.68.92-.93,1.72a10,10,0,0,0-.4,3.32c.29,1.46,1.8,1.51,3.18,2.12s2.69,1.69,4.12,1.73A5.59,5.59,0,0,0,414.27,111.62Zm-31.18-9.55c3.59-.65,2-3.69.13-4.78-1.38-.82-3-1.54-4.64-2.52-.94-.57-4.49-1.65-4.51-2.78s2.64-1.66,1.59-3.85c-1.82-.45-6.14.25-5.84,2.25.17,1.16,1.54.52,1.86,1.73-1.3.46-2.89,1.67-4.25,1.46-1.62-.26-2-2.25-2.92-3.45-1.26,0-2.09-1.23-3.58-1.07s-2.39,2.44-3.18,3.59c-.43.6-1.1.91-1.33,1.46-.14.32,0,.85-.13,1.32-.46,1.48-1.73,2-1.6,3.32s1.38,1.67,1.46,2.65c-.08,1-1.72.49-1.59,1.73,2.38,2,2.51-.93,3.72-1.33,1-.32,2.88.27,4.11,0,1-.22,1.78-1.16,2.92-1.59a8.18,8.18,0,0,1,2.52-.53c4.22-.18,6.95,2.57,10.61,2.65A29.27,29.27,0,0,0,383.09,102.07Zm-8.5,15.65c.08-1.42-.54-2.49-.66-4.51-2.45-1.47-4.28,1.37-6.76,1.06-1.53-.19-2.63-2-4.25-1.72-.89.13-1.34,1.29-2.26,1.46-1.89.35-2.76-1.52-4.77-.8-2.84-2.16-4.11-5.69-4.78-9.68-1.55-2-3.91-.38-5,.93-.7,0-1.57-.39-1.72.39-.53,2.46,3.46,2.72,3.44,4.38,0,1.09-1.55,1-2.25,1.73s-.25,1.48-1.19,2c-2.62.31-3.49-1.12-3.45-3.45-1.13-1.72-2.56-3-3.59-4.38a5.57,5.57,0,0,1-1.06-2.12c-.09-.62.3-1.41.14-2.13-.29-1.26-2.65-2.22-4.12-2.91a24.51,24.51,0,0,1-4.64-2.39c-.79-.67-1.16-1.82-1.86-2.26s-1.33-.29-1.86-.66c-.72-.51-.6-1.36-1.59-1.6-.5-.18-1.27.5-1.59.94-.65,2.89,1.71,3.09,2.78,4.37.74.88,1.11,2.21,1.86,2.79s1.89.5,2.92.93c.71.29,1.17,1.17,1.86,1.59,1.26.77,3.3.9,3.45,2.39-.79.53-2.57-.78-3.18.53-.16.86.68,1.3.66,2.12a2.74,2.74,0,0,1-2.79,2.52c-.13-.77.7-1.41.67-2.25-.06-1.69-3.46-4.27-5.18-5-.81-.37-1.79-.39-2.52-.8a19.31,19.31,0,0,1-4.38-3.58c-.95-1.26-1.76-3.58-3.85-3.45-.85,0-1.55.83-2.25,1.19a20.29,20.29,0,0,0-2,1.06,4.73,4.73,0,0,1-2.13,1.06c-1.66.07-3.08-1.23-4.51-.93a3.89,3.89,0,0,0-1.46,1.07,20,20,0,0,1,.14,2.12c-.43.75-1.72.7-2.66,1.19a18.76,18.76,0,0,0-3.71,3.32c-.72.71-1.37,1.3-1.46,1.86s.37,1.27.27,1.86a6.33,6.33,0,0,1-2.13,2.52c-.47.32-1.09.36-1.59.66-1.05.62-1.51,1.43-2.39,1.59-2.32.43-6.53-.46-6.5,2,0,1.64,2.24,1.65,3.58,1.59,1.88-.07,3.47.4,4.51.14.72-.18,1.5-1,2.26-1.33.47-.21,1-.22,1.32-.4.8-.4,1.25-1,1.86-1.33a16.79,16.79,0,0,1,4.78-1.06c1.79-.1,3.66.19,6,0,.82-.06,1.64-.59,2.52-.66,1.45-.11,3.35.57,4.51.53.81,0,1.71-.81,2.65-.8a2.71,2.71,0,0,1,2.39,1.47c.11.38-.22,1-.13,1.59.15,1,1,1.36.93,2-.07.83-2.14,1.94-1.86,2.92.19.62,1.67,1.28,2.39,1.72a8.45,8.45,0,0,0,2.92,1.19c.75.09,1.41-.2,2.12-.13a10.42,10.42,0,0,1,3.72,1.33c1.24.88,1.07,2.28,2.52,2.78.61.22,1.73.1,2.52.27,1.93.42,3.36,2,4.78,1.86,2.22-.26,1.21-2.35,1.46-3.85.56-3.39,7.18-3.23,8.49-.93,1,.26,1.81,0,2.91.4.64.21,1.12.9,1.73,1.06s1.14-.07,1.73,0c2.54.29,4.84,2.18,7,1.86,1.38-.21,2.39-1.51,3.71-1.59,2.54-.16,4.16,1.89,6.9.92,2-.7,1.57-2.79,2.26-4.9C373.62,119.83,374.54,118.83,374.59,117.72Zm143-45.24A4.74,4.74,0,0,0,516.3,68c-1.54.26-.43,1.86-.53,2.79-.15,1.31-1.55,2.23-1.46,3.58-.51.59-1.38.83-1.46,1.85.84.59,1.21-.45,1.85-1.06C515.72,74.18,517.27,73.62,517.62,72.48Zm-34.76-46a5.12,5.12,0,0,0-2.92,1.06c-.5.27-1.51.41-1.19,1.19C480,28.54,482.56,28,482.86,26.44Zm-56,16.32c3.12.73,4.59-2.79,2.52-4.78-.48-.46-2.11-.64-2.78-1.72-.81-1.3-.7-3-2.66-2.65,0,.15,0,.37-.13.39-.18,2.9,4,3.63,4,6C427.77,41.2,426.47,41.33,426.87,42.76Z"/><path class="cls-1" d="M383.22,37.72c-.39-1.44,2.33-1.21,1.86.13C384.65,38.25,383.49,38.22,383.22,37.72Z"/><path class="cls-1" d="M366.9,117.06c.06-1.1,2.56-1.5,3.05-.53C369.79,117.6,367.42,118.33,366.9,117.06Z"/><path class="cls-1" d="M321.39,109.9c1.39-1.12,4.47-.36,6.37-.4-.36,1-.41,2.33-1.19,2.92C324.39,112,322.36,111.49,321.39,109.9Z"/><path class="cls-1" d="M311.71,102.86c1.82-1.9,3.73-.89,3.05,2.79-.44,1.1-2.33,2.56-3.19.93A14.15,14.15,0,0,0,311.71,102.86Z"/><path class="cls-1" d="M314.36,98.62a1.77,1.77,0,0,1-.93,2C311.68,100.3,313,97.16,314.36,98.62Z"/><path class="cls-1" d="M288.62,71.68a2.25,2.25,0,0,0-1.19-2.12c-.44-.24-1.11-.13-1.6-.4-1.29-.71-1.76-2.19-2.52-2.52.1-1.45-.39-2.5,0-3.45a8,8,0,0,1,2.92-2.52c1.16-.41,2.37,0,3.06-.93a.89.89,0,0,1,.66.13c0,.84-.71,1-.8,1.73.17,1.21,2.29.45,2.52,1.59-.2,1.24-1.32,1.49-1.33,2.39s1.61,2.28,2.39,3.32c.59.76,1.6,1.33,2.13,2.12s.55,1.51.92,1.86c.7.66,2.28.77,2.39,1.72.16,1.27-1.57,1.77-1.32,3.19-1.83,1.43-4.86.69-7.83,1.06-1.35.17-2.83,1.51-4.25.4-.33-.89,1.18-1,1.33-1.86-.11-.78-1.1-.67-1.33-1.33.39-1,1.59-1.24,1.46-2.78C287,72.47,288.4,72.77,288.62,71.68Z"/><path class="cls-1" d="M278.67,68.5c1.77-1.08,4.87-.26,5,1.06.13,1-.94,1.14-1.33,2.26s.07,2.22-.39,2.92-1.51.57-2.26.79c-1.67.5-4.89,2.46-6.24.27.2-1.18,1.34-1.41,1.73-2.39,0-.77-.79-1.17-.66-2,.16-1,.91-.66,2-1.06C277.33,70.06,277.66,69.12,278.67,68.5Z"/><path class="cls-1" d="M188.05,39.71c.28,1.18-3.49,2.72-3.85,1.19C183.92,39.68,187.09,38.16,188.05,39.71Z"/><path class="cls-1" d="M183.67,338.76h-2A3.22,3.22,0,0,1,183.67,338.76Z"/><path class="cls-1" d="M177.7,30.29a.63.63,0,0,1,.8,0c-.13.31-.24.65-.8.53Z"/><path class="cls-1" d="M165.89,51.38c0,.73-2.63,1.94-2.92.53a1.08,1.08,0,0,1,.53-1.06C164.21,50.42,165.87,50.67,165.89,51.38Z"/><path class="cls-1" d="M110.7,174.64c-.07.2-.2.34-.27.53C109,175.12,110.3,173.32,110.7,174.64Z"/><path class="cls-1" d="M56.83,81.9c.93-.54,1.82.82,1.2,1.46C57,83.56,56.74,82.39,56.83,81.9Z"/><path class="cls-1" d="M201.45,86.81c-.62-.16-1.47-.13-2.26-.27s-1.48-.32-2.12-.39c-1.64-.2-3.41.28-4.38-.67a43.37,43.37,0,0,1,5.71-6c.6-.54,1.9-.91,1.59-2-1.13-1-2.51.06-3.58.66a12.22,12.22,0,0,1-3.72,1.73c-2.19.33-5.1-.64-6.89.53-.25,1,2,.61,1.72,2.12a2.62,2.62,0,0,1-2.39-.4c-.61-.55-.26-1.39-.66-1.72-.68-.56-3.24-.72-4.38-.53-1.39.23-2.63,1.06-2.79,2.25,1.68.79,4.44-.8,5,1.2-.91,1.65-3.07,2.56-2.78,4.78a3,3,0,0,0,1.86,2.12c.73.13,1.14-.6,1.85-.53s.58.93,1.46.79c1.28-.54,2-2.33,3.45-2.25,1.76,2.13-1.58,3.17-3.45,3.85-2.12.77-4.88,1.18-6.5,1.86-.85.35-4.06,3.45-4.51,1-.32-1.72,1.59-1.23,2-2.65-2.05-.4-4,.89-5.84,1.6-2.66,1-7.18,1.64-7.83,4.64-.12.6.27,1.72-.13,2.12s-2.22.38-3,.66c-1.28.44-2.4,1.38-3.19,1.6-.59.16-1.47.11-1.85.26-1.06.41-1.45,1.84-2.66,2.79-.49.39-1.59.67-2,1.06-.68.68-.77,2.39-2,2.65-.77.07-1.39-.58-2.12-.13-.09,1.69.6,4-.13,5.7a36.29,36.29,0,0,1-5.31,3.32c-1.11.63-2.11.79-3.45,1.46-.95.48-1.82,1.61-2.92,2.26-2.53,1.49-5.59,3.25-5.57,7,0,.82.43,1.7.53,2.65.06.57-.07,1.12,0,1.73.16,1.39,1.16,3.15,0,4.11-1.79-.73-4.06-1-5.31-2.25-.34-1.32.69-2.39.54-3.59-.13-1-1.48-2.66-2.26-2.78s-1.55.73-2.39.66c-1-.08-1.91-1.44-3.18-1.59-1.87-.22-3.24.42-5.31.13-2,1.07-2.59,3-5,2.79-.86-.07-1.66-.73-2.65-.93a16.24,16.24,0,0,0-3.85-.53c-2.26.15-3.9,1.77-5.84,2.78-1.71.89-4.13,2-4.64,3.85-.28,1,0,2.4-.4,3.32a16.9,16.9,0,0,1-1.06,1.72,13.39,13.39,0,0,0-1.6,10.22,23.75,23.75,0,0,0,2.26,4.51,7.38,7.38,0,0,0,3.85,1.86,17,17,0,0,0,3-.67,28.28,28.28,0,0,0,3.45-.53c2.87-.91,2.3-4.79,5.17-6.1a13.51,13.51,0,0,1,4.91-.79,3,3,0,0,1,.93,2.51c-.07.68-.72,1.29-1.06,2.26s-.37,1.84-.66,2.52c-.4.9-1.28,1.55-1.6,2.39-.2.55-.09,1.23-.26,1.72-.3.88-1.47,1.49-.93,2.39,2.84,1.13,6.28-.32,8.76.14,1,.19,3.2,1.44,3.18,3,0,1.21-.93,2-1.06,3.32-.16,1.66-.86,3.69-.93,5-.12,2.21,3.23,6,5.57,6,2.52,0,4-2.51,7-1.2,1,.44,2.08,2.07,3.19,2,.92-.06,2.31-1.67,2.92-2.78.75-1.36.8-2.5,2.12-3.19s2.56-.38,4.38-1.06a10.32,10.32,0,0,0,2.25-1.33c.65-.44,1.32-1.6,2.13-.79,1.06,1.06-1.3,1.65-.4,2.78,1.84,1,2.78-1.81,4.11-1.85a9.37,9.37,0,0,1,2.66,1.32c1,.68,1.38,1.64,2.52,1.86.72.14,1.89-.28,2.91-.13,1.36.19,2.17,1.35,3.19,1.32,1.25,0,1.85-1.39,2.92-1.59,2.34-.43,3.21.26,4.24,1.73,1.16.2,1.2-1.34,2.26-.8-.58,1.16.2,1.69.66,2.66.3.62.25,1.06.54,1.32.63.61,1.85.61,2.78,1.2s1.53,1.76,2.65,3,3.1,2.69,4.65,2.78,2.64-.41,3.85-.26c2.74.34,4.45,1.71,6.37,3.19,1.07.82,2,1.39,2.38,2.38.24.69.13,1.62.4,2.39.59,1.65,3,2.45,2.12,5.31.4.83,1.3,1.14,2.26,1.72.77.47,1.42,1.46,2.25,1.59a13.12,13.12,0,0,0,1.6-.13,12.45,12.45,0,0,1,3.85,1.2,14.66,14.66,0,0,1,2.38.8c.68.45.76,2,1.6,2.38.54.26,1.74-.1,2.65,0,1.42.17,3.36,1,4.64,1.06.78,0,1.43-.32,2.12-.26,3.25.25,5.1,4.13,8.23,5.3,1,.37,2.52.11,3.19.4,1.17.51,2.16,4.11,2.25,5.7.27,4.83-3.43,6.37-5.57,9.56-.45.67-.69,1.72-1.33,2.65-1.27,1.88-2.69,2.27-2.52,5.71.05.94.53,1.87.53,2.92a18.92,18.92,0,0,1-.4,4.11c-.21.88-.94,1.59-1.06,2.39s.24,1.43.14,2.12a12.41,12.41,0,0,1-1.47,2.92c-1.22,2.26-1.49,4.93-4,5.84-1.46.53-3.44.23-5,.79-.64.23-1.46.83-2.25,1.2-2.31,1.07-5.6,2.52-6.24,4.91-.57,2.12.79,3.81.4,6.23a22.24,22.24,0,0,1-1.59,2.26c-.57.75-.86,1.64-1.46,2.39-.8,1-2,1.44-2.52,2.78-.17.46-.06,1-.27,1.73-.07.27-.56.68-.79,1.19s-.21,1.08-.4,1.46c-.61,1.23-2.41,4-3.72,4.38-2.75.77-5.66-1.17-7.56-.8.27,1.33,1.24,1.19,1.86,2.13a14.22,14.22,0,0,0,1.06,1.85c.59.69,1.12.95,1.19,1.73a4.73,4.73,0,0,1-2,3.85,12.2,12.2,0,0,1-3.85,1.06c-1,.16-3.51.17-4,.8-.68.92.37,3.19-.13,4.11-1,1.94-3.66-.06-5,.53a2.54,2.54,0,0,0,1.06,2.52c.84.49,2.1-.15,2.66.8-.28,1.31-1.7,1.49-2,2.78,0,1.27.42,1.6.26,2.39-.34,1.7-3,1.63-2.92,3.45.12,2.72,5.22,1.6,5.31,4.25.05,1.6-1.46,1.62-2,3.18-.29.83.16,1,0,1.72-.22.94-1.33,1.22-1.33,2.26,0,1.27,1.86,2.66,2.79,3.71a14.74,14.74,0,0,0,3.31,3.19c1.87,1,4.64.8,5.44,2.65-.25,1.12-1.33,1.42-2.38,1.72h-.27a3.22,3.22,0,0,0-2,0h-1.86c-1.77-.81-3.93-1.34-6.1-2.12-.78-.27-1.67-.94-2.52-1.32-.64-.29-1.36-.4-1.86-.67-1.14-.6-2.43-2.54-3.58-3.31-.7-.47-1.8-.72-2.26-1.2a19.48,19.48,0,0,1-1.06-2c-.43-.61-1.21-1-1.72-1.72-1.1-1.47-2.51-3.44-2.52-4.51s1-1.79.66-2.79-2.36-.73-2.65-1.86c-.18-.68.58-1.82.53-2.78,0-.56-1.08-1.32-.67-2.13s1.38.08,2.13-.39c-.57-1.92,0-5-1.86-5.58-1,.83,1,2.68-.67,3.19-1.6-.71-1.23-2.83-1.59-4.38a17.29,17.29,0,0,1-.79-3.05,16.12,16.12,0,0,0,.13-1.86c-.28-1.78-2.27-3.25-2.39-5-.05-.87.53-1.6.66-2.52.1-.63-.08-1.33,0-2,.12-.84.59-1.62.67-2.39a21.31,21.31,0,0,0-.27-5.18c-.33-1.53-1.54-2.83-1.72-4.5-.07-.61.2-1.62.13-2.39S150,274.84,150,274a15.75,15.75,0,0,1,.27-2.39c.14-1.66-.33-3.52-.27-5.17,0-.49.27-.85.27-1.33,0-1.37-.48-2.75-.54-4.11-.1-2.52.28-4.31-.13-6.64-.31-1.76-.69-4.46-1.32-5.57s-3.5-3.33-4.91-4.11c-.93-.52-2-.7-3.05-1.2-2.16-1.05-6.35-3.3-7.3-5.43-.28-.62-.24-1.44-.53-2.13-.58-1.36-1.8-2.53-2.66-3.85-1.64-2.5-3-5.64-4.64-8.22a32.87,32.87,0,0,0-2.52-3.85c-.55-.62-2.3-1.19-2.52-2.12-.3-1.23-1.21-2.91-1.06-3.85.19-1.27,2.65-2.3,2.65-3.45,0-1-1.32-1.56-1.59-2.39-.67-2,.39-3.22,1.19-4.91a19.67,19.67,0,0,1,.8-1.85c.49-.74,1.47-.94,2.12-1.73.36-.44.59-1.36,1.06-2,1-1.34,2.64-1.84,3.06-3a25.75,25.75,0,0,0,.13-7.56c-.24-1-1.12-1.75-1.46-2.66-.6-1.6-.74-3.35-2.39-3.32-1,0-1.74,1.15-2.39,1.86-.16.95-.07,2-1.06,2.26-1.51.44-2.09-1.59-3.85-2.13-.7-.21-1.81-.2-2.25-.39-1.29-.58-1.7-2.46-3.06-3.19-1.13-.61-2.1-.4-2.78-1.33a10.19,10.19,0,0,1-.13-2.65c-1.46-.85-2.69-4-4.38-4.77-1.13-.5-2.84-.46-4.25-.93a15.27,15.27,0,0,0-1.86-.67,11.14,11.14,0,0,1-2.38-.53c-2.63-1.3-4-5.53-7.3-5.44-1.39,0-2.72,1.34-4,1.33s-3.34-1-4.91-1.73-3.43-1.16-4.78-1.85c-1.08-.56-1.84-1.57-2.78-2-.73-.32-1.79-.37-2.39-.66a26.54,26.54,0,0,1-2.79-2c-1-.69-2.08-1.75-2.12-2.65s1-1.92,1.06-2.92c.34-3.16-2-5.43-3.45-7.3-1.09-1.38-2.36-2.56-3.45-3.84a9.63,9.63,0,0,0,0-1.86A26.43,26.43,0,0,1,57,134.57c-.78-1.08-2.32-2.23-2.52-3.44-.24-1.5.57-2.81,0-4.25-.94-2.41-4.28-1.32-3.85,1.86.12.87,1.36,2,1.73,2.92s.31,2,.66,3.05,1.37,1.9,1.73,3c.56,1.82.54,3.77,1.06,4.91s2.13,2,1.19,3.18c-1.25.26-1.74-1-2.52-1.72-.43-.41-2-1.18-2.25-2.13-.2-.78.49-1.83.26-2.78-.45-1.88-4.23-1.92-4.25-3.85,0-1.21,1.59-1.35,1.6-2.52s-1.75-2.36-2.12-3.45a19.1,19.1,0,0,1-.53-4,26.11,26.11,0,0,0-.27-3.85,6.23,6.23,0,0,0-2.52-2.65c-1.16-.65-2.09-.38-2.66-1.33a10.91,10.91,0,0,1-.92-3.45c-.19-1.59-.05-3.34-.14-5a26.26,26.26,0,0,1,0-5.17c.66-1.29,1.86-1.92,2.53-3.19.46-.88.53-2,1-2.92,1-1.73,3.09-3.33,4.52-5a23.27,23.27,0,0,0,3.84-5.71c.33-.74,1.19-2.4,1.07-3.31-.18-1.28-2.58-2.33-2.39-3.85.12-.94,1.46-.93,1.86-1.86a9.19,9.19,0,0,0,.39-2.39c0-1.27-.65-2.61-.39-4,.21-1.16,2-1.63,1.06-2.91s-2.47.68-3.45-.14.18-1.66.26-3c0-.55-.32-1.18-.26-1.59.08-.59,1.23-1.59.93-2-.72-.91-1.53-3.21-3.06-4-1.94-1-4.05-.32-6.76-.8-1.66-.29-2.45-1.85-4-1.72-1,.07-1.49,1.15-2.79,1.72s-3,.37-4.24.66S29,59.05,27.64,59c-1.09-.09-1.1-1.07-2.39-1.2a20.19,20.19,0,0,0-2.25.4A30.66,30.66,0,0,1,15.17,58,22.72,22.72,0,0,1,10,56c-1.58-.73-4.51-1.63-4.38-2.79.08-.74,2.77-1.53,3.84-1.86,1.73-.52,2.8-1.37,4.12-1.46.51,0,1.18.32,1.85.27s1.52-.68,2.39-.8c1.86-.25,4.47.1,4.25-1.72-1.41-1.11-7.15.82-7.3-1.59-.09-1.46,2.18-1.91,3.85-2.26a26.25,26.25,0,0,1,5.17-.8c1.52.08,3.51,1.78,4.38-.13.42-1.35-.51-2.49-.8-3.58,1.13-1.56,3.2-1.36,4.78-1.59a19.58,19.58,0,0,0,5-1.33,19.84,19.84,0,0,1,5-1.33c1.81-.23,3.56-.91,5.18-1.06a37.32,37.32,0,0,0,3.85-.26c1.13-.22,2.33-.85,3.58-.8.84,0,1.55.65,2.39.8s1.69,0,2.52.13c.64.14,1.22.57,1.86.66,1,.16,2.08-.14,3,0s1.65.69,2.52.8c2,.26,4.38-.11,6.37.27.75.14,1.43.51,2.25.66s1.63,0,2.39.13c1.06.21,1.94,1.21,3,1.33,2.06.21,4.36-.89,6.5-1.06a39.18,39.18,0,0,0,4.78-.27,31.18,31.18,0,0,1,4.25-.93c.72,0,1.33.22,2,.14s1.51-.92,2.25-.8c1,.16.82,1.41,1.86,1.72,1.16-.6,2.31,0,3.58,0s2.35-.61,3.72-.39c2.41.37,5.79,2.74,7.69,1.46.48-.33.37-.89.8-1.73.59-1.14,1.74-2.48,1.46-4.11-2.66,0-5.2,1.34-8.23,1.46-3.06-1.92.82-3.11,3-4,1.85-.73,3.3-2.33,5.58-2.66,1.85-.26,3.89.41,6.1.67,1.29.14,2.57-.09,3.32.13,1.3.39,2,1.68,3.05,2,.46.13,1.23.12,1.85.27,1.2.27,2.27.9,3.46,0,.93.16,1,1.16,2,1.32.88-.47,1.56-1.68,2.91-2,.59-.13,1.21.1,1.86,0,1.08-.17,2.52-1.64,3.19-.27-.27,1-1.72,1.11-2.53,1.86s-1.81,2.22-1.72,2.92c.16,1.27,2.06.78,2.12,2.39-.28.93-1.36.51-2.25.93s-1.12,1.16-2,1.33c-2.41.45-4.42-.61-6.5-.53-.1.9,1,1.43,1.59,1.72,1.89,1,3.43.86,6.1.8,1.37,0,2.94.4,4.11-.4.75-.51.71-1.63,1.33-2.26a5.11,5.11,0,0,1,3.58-1.32c.61.1,1.45.81,1.46,1.32,0,1.21-1.7.82-1.72,2.13,1.12.67,4.09-.74,4.24-1.86.12-.82-1-1.29-.92-2.12.06-1.39,1.95-1.37,1.72-2.79-.91-.72-1.86.15-2.79,0-1.3-.22-2.47-1.78-3.05-2.79.58-.71,1.78-.24,2.65-.13,1-1.35,2.8-1.88,5.31-2.12.9-.09,2.09-.45,2.52.39.22,1.26-1.85,2-1.46,3.46,1.79.44,2.38-2,3.85-2.93a14.07,14.07,0,0,1,2.52-1.05c.82-.32,1.72-1.09,2.39-1.07s.87.63,1.59.93,1.51-.19,1.73.66c-1.54,2.67-7.27,1.14-8.76,3.85.33,1.82-.9,3.56.13,4.78.74.87,2.4.28,2.79,1.19.52,1.22-1.61,1.22-1.06,2.66,1.4.84,3.08-.81,4.38-1.46s3.15-1.54,3.31-3.19c-.7-1.34-3.31-.3-3.71-1.72-.22-.77.8-2.5,1.06-2.79,1.38-1.55,6.21-3.76,9.69-3.45.66.06,1.32.46,2,.53,2.28.24,5-1,6.76,0,1.44-.84,3.17.12,5.18-.13,1.54.91,1.12,2.85,3.45,3.72.63.23,1.42.06,2.25.26.62.15,1.29.87,2,1.2,1,.45,1.78.35,2,1.06s-.73,1.14-.66,1.85c.57.48.09,1.19.4,1.86.57,1.23,2,1.14,3.45,1.73,1,.41,3.15,1.67,3.05,2.65-.07.66-2,1.81-2.65,2.12-.46.22-2.7,1.31-3.45,1.2-1.26-.19-1.75-2.72-3.45-2.66a1.41,1.41,0,0,0-1.46,1.46c0,1.75,1.95,1.81,2,3.32.05,1.8-1,1.93-2.52,3a10.73,10.73,0,0,0-3.45-1.19c-.85,1,1.39,1.37.66,2.65-2.13.45-3.76-.6-5.7-1.19a11.48,11.48,0,0,1-2-.4c-.76-.44-1-1.73-1.6-2.39a5.58,5.58,0,0,0-3.32-1.86c-1.63,0-4,2-5.3.13.89-3,5.15-.78,8-1.85,1-.4,1.4-1.51,2.26-2,1.71-1,4.5-1.12,4.24-3-.13-1-1.49-1-2.25-1.46-1-.68-1.84-3.07-3.32-3.19-.77-.06-1.31.59-2.13.67-1.71.16-3.62-.69-5.17,0-.72.41-.23,1.07-.8,1.85s-1.55.83-2,1.46-.4,1.68-1.06,2.26c-1.09,1-3.39,1.12-4.77,1.59-.62.21-1.4.93-2,.93-1.1,0-1.57-1.47-2.79-.93-.11,1.42,1.5,2,2.52,2.65s2.26,1.42,2.65,2.66c-1.08,2.29-2.8-.12-4.51-.13-1.88,0-4.63,3.58-6.23.66.4-1.55,2.1-1.79,2.52-3.32-1.88.32-3.51,1.9-5.71,2.39-.92.21-1.82.16-2.65.4-1.59.46-2.7,1.64-4.38,2.25-.65.25-1.44.17-2.12.4a35.4,35.4,0,0,0-5.17,2.39A29.66,29.66,0,0,0,138,56.43c-.57.49-2,2.23-2,2.78.07.79,1.56,1,1.59,1.86,0,.49-.86,1.54-.26,2.26s1.63.12,2.78.26c2,.25,3.36,1.93,4.91,2.79A13.76,13.76,0,0,0,149.31,68c1.82.23,3.86-.53,4.11.93s-1.72,1.9-1.86,2.78c1,1.3-.66,1.92-.66,3.06A2.85,2.85,0,0,0,153,77.12c1.34.12,3.29-1.31,3.85-2.65.66-1.59.38-3.75,1.59-4.91,6.18.17,11.41-2.81,11-9.15a8.75,8.75,0,0,1-.27-2.13c.19-1,2-1.88,1.72-3.18,1.73-.53,1.66-3.31,3.45-3.72,1.51-.33,3.2,1.07,5.18.93.64,0,1.47-.62,2.12-.53,1.3.18,2.08,1.78,3,2.52s1.77.45,2,1.33c-.25,1.49-1.3,1.52-1.19,2.92a2.87,2.87,0,0,0,2,2.26,6.3,6.3,0,0,0,3.31-.8c1.78-.84,3.3-3.38,4.78-3,1.17.25,2.09,4,2.26,5.3s-.2,2.53-.13,3.85c.17,2.24,3,2,4.37,3.19.42.35.59,1.26.93,1.72.68.9,1.49.9,1.6,1.86.24,2.29-2.08,2.48-1.86,5-.48,1-1.69.93-1.6,2.25.16,2.1,3.17.49,4,2.13.45.88-.07,1.53-.39,2.78,1,1.23,1,3.19-.8,3.19C202.87,88.27,202.56,87.08,201.45,86.81ZM58,83.36c.62-.64-.27-2-1.2-1.46C56.74,82.39,57,83.56,58,83.36Zm92.61,12.07c-.56-.54-2.36-.38-3.59-.26-.87.09-1.9.27-2,.93C146.44,96.73,150.2,97.19,150.64,95.43Zm-6.91-2.25a1.63,1.63,0,0,0-.53-2.79c-.43-.11-1,.32-1.72.27s-1.5-.75-2.12-.8a3.19,3.19,0,0,0-2.53.93c0,.79.59.92.54,1.72-1.29.93-.61,4,.66,4.12s2-3.41,3.85-3.72C142.53,92.8,142.87,93.28,143.73,93.18Zm-1.85,5.31c-1.89-.67-3.63.45-5.18.66-.92.12-2.6-.19-2.38,1.19.17,1.13,1.91.72,2.91.4A12.68,12.68,0,0,0,141.88,98.49ZM136,88.4c2.64-1.13-.52-4.59-1.72-4.91-2.16-.56-5.21,1.58-7.7,2.26-1.4.38-2.73.41-3.05,1.59,1.25,2.08,3.74-.45,5.57-.13.93.16,1.47,1.43,2.39,1.59A27.09,27.09,0,0,0,136,88.4Zm-1.86,2.12c-.55-.64-3.52.08-4.38.67-.58.4-1,1.39-1.59,2.12s-1.33,1.34-1.86,2-3.16,4.47-1.06,4.91c.9.19,2.75-1.67,2.92-2.39a8,8,0,0,1,3.58-5.31C132.88,91.85,134,91.94,134.18,90.52ZM117.6,75.66c1.48,0,2.48-4.42,0-3.84C115.93,72.2,115.53,75.74,117.6,75.66Zm-7.17,99.51c.07-.19.2-.33.27-.53C110.3,173.32,109,175.12,110.43,175.17Zm-56.12-111c0-.25-.15-.29-.13-.53-.41,0-.88-.08-.8.4A.55.55,0,0,0,54.31,64.12ZM193.76,43.29c.65.08,1-.13.92-.79C194.09,42.08,193.23,42.63,193.76,43.29Zm-15.26-13a.63.63,0,0,0-.8,0v.53C178.26,30.94,178.37,30.6,178.5,30.29ZM128.08,40.51c.44-.29,1.12-.68.79-1.33-1.46-.69-3.94-.17-6.1-.4-1.22-1.73-3.27-2-3.45.8C121.79,41.58,125.53,38.64,128.08,40.51ZM104.33,54.17c.75-.26,1.8-.13,2-.93-.62-.5-1.26-1.17-2-1.19-1,0-1.43.81-2.39,1.32-1.12.6-2.68.74-2.78,1.73C101.21,55.5,103.06,54.61,104.33,54.17Zm-.67-9.55c.85-.15,1.72.23,2.26-.53-.63-2.92-4.67-1.14-7-.93a6.69,6.69,0,0,0-1.33,2.65C99.39,46.27,101.6,45,103.66,44.62Zm39.81,135.6c1.05-.17.74-2.58-.53-2C142,178.67,142.48,180.37,143.47,180.22Z"/><path class="cls-1" d="M54.18,63.59c0,.24.16.28.13.53a.55.55,0,0,1-.93-.13C53.3,63.51,53.77,63.59,54.18,63.59Z"/><path class="cls-1" d="M50.2,71.42A2.81,2.81,0,0,1,48.34,73a3,3,0,0,1-.66-.66C47.73,71.09,49.52,70.16,50.2,71.42Z"/><path class="cls-1" d="M1351.38,296.44c.79-.06,1.86-.77,2.52-.13a5.25,5.25,0,0,1-2.52,2.79c-.55.24-1.28.15-1.86.4-1.1.45-1.68,1.6-2.65,2.39s-2.12,1.37-3,2-2.21,1.78-3.32.92c.09-1.55,1.74-1.53,2.13-2.79,0-.92-.83-1-.8-2,1.84-1.61,4.73-2.77,5.17-6.1.2-1.47-1-4.64.8-4.78,2.11-.16.92,2.13,1.06,3.32.06.48.55.81.79,1.46C1350.09,295.08,1350.06,296.14,1351.38,296.44Z"/><path class="cls-1" d="M1338.51,304.4c-.74,2.22-4,3.38-6.1,4.78-.66.43-1.19,1.41-2,1.72-1,.41-2.21.28-3.31.8-1.75.82-3.07,2.44-4.64,3.45s-3.8,2.39-5.58,2.52c-2,.15-5.59-1.11-3.18-2.92a34.17,34.17,0,0,1,4.38-2.25c3.77-1.9,9.08-3.17,12.2-5.44,1.77-1.29,3.37-2.65,5-3.72C1336.16,302.81,1337.58,304.24,1338.51,304.4Z"/><path class="cls-1" d="M1315.56,215.64c.42-.11.41.21.66.27-.16,1.89-1.29,3.13-3.72,2.92-1.08-.1-3-.91-3-1.46C1309.18,215.46,1314.34,216.64,1315.56,215.64Z"/><path class="cls-1" d="M1309.06,224.66c1,.28,5.22,3.29,3.84,4.64-.74.75-1.7-.39-2.91-.66-1.63-.35-2.87.08-4-.79-1.27-1-1.57-3.15-2.93-4.38a6,6,0,0,0-3.71-1.33c-2.1.23-2.08,2.64-4,3.72-1.81-.2-2.88.33-4.25-.14s-2.15-2.35-3.45-2.51-4.54,2.17-5,.13c-.4-1.65,2.23-2.2,2.39-3.32s-1-2.94-1.59-3.45-1.34-.54-2-.93-1.2-1.18-2-1.59c-2.78-1.45-7-.86-8.09-3.19-.19-.41.1-.86-.14-1.45s-1.35-1-1.72-1.6c-1-1.61-.28-4,1.32-4.24s4.31,1.57,4.65,2.65c.17.57-.12,1.21,0,1.86s1.32,2.7,2.39,2.78c1.37.12,2.18-2,3.44-2.78a6.53,6.53,0,0,1,3.46-1.06c1.12.08,1.88,1,3.18,1.45.93.35,2.08.49,3.18.8s1.8.84,2.79,1.2c3.16,1.14,6.92,1.81,8.62,3.84.47.56.46,1.38,1.07,2s3.63,1.12,3.71,2.39c.07,1-1.26,1-1.32,2C1305.88,222.62,1308.59,222.5,1309.06,224.66Z"/><path class="cls-1" d="M1281.06,304.14a8.48,8.48,0,0,1-3.32,4.64c-1.19.83-5,2.52-5.44.14a15.57,15.57,0,0,1,1.06-4.38c.94-1.86,1.94-.65,3.45-.4S1279.82,303.2,1281.06,304.14Z"/><path class="cls-1" d="M1270.71,111.22c.54,1.6.91,3.16,1.33,4.65-1.46,1.82-4.36,1.14-6.5,2.12-1,.46-1.29,2.13-2.26,2.39-.78.2-1.38-.68-2.12-.67-1.91,0-2.84,3.19-5.18,2.39-1.33.8.06,3.86-1.59,4.11-1.17.19-1.81-1.32-2.52-2.25-.86-1.13-2.08-1.74-2.12-2.65s1.91-2.53,2.52-3.19c.75-.81,2.23-2.31,3.18-2.52,1.77-.39,3.57.17,4.91-.4,1.16-.49,1.23-2.32,1.86-2.78s1.14-.29,1.59-.53a4.83,4.83,0,0,0,1.86-5.31c-.44-1.48-2.9-3.1-1.32-4.91,2.35.25,5.44,2.56,5.83,4.91.15.91-.35,1.83-.27,2.78A12.65,12.65,0,0,0,1270.71,111.22Z"/><path class="cls-1" d="M1271.24,96.76c-.3.68-.9.54-1.46.93s-1.18,1.6-1.85,1.72c-1.07.2-2.26-1-3.32-.79-1.25.29-.52,1.25-.93,2.38-1.09-.23-2.88-1.44-2.92-2.65,0-.76,1-1.23,1.2-2.12.39-1.52-.63-2.28-1.2-3.72,0-.21.13-.22.13-.39,1.3-.28,3.85,2.17,6.77,2.65C1269.55,95.08,1271.13,94.91,1271.24,96.76Z"/><path class="cls-1" d="M1266.34,231.43c.13,1.1-1.79,1-2,.26C1264.38,230.84,1266.1,230.57,1266.34,231.43Z"/><path class="cls-1" d="M1257.05,85.62c1.31.69,4.49,2.26,2.25,3.71C1257.94,88.83,1256.53,87.11,1257.05,85.62Z"/><path class="cls-1" d="M1250.94,225.6c1.52-.83,3.18-2.65,5.84-1.73-.58,1.65-2.58,1.61-3.84,2.39s-2.37,2.1-4,2.25a1.18,1.18,0,0,0-.53-.53C1248.42,226.5,1249.89,226.16,1250.94,225.6Z"/><path class="cls-1" d="M1247.36,200.65c1.56,0,3-.48,4.11.13-.2,3.32-5.35.8-8.75,1.33-.73.11-.94.67-1.73.39a2.86,2.86,0,0,1,2.52-2.38C1244.48,200,1245.94,200.64,1247.36,200.65Z"/><path class="cls-1" d="M1248.69,204.76c.15,1.84-2.36,2-3.06,3.45,1.11,1.69,1.54,4,2.79,5.57-.05,1,.21,2.34-.4,2.79-2.67.51-4.1-4.29-5.17-6-2,.38-.18,6.91-2.92,6.1-1.34-.4,0-2.26-.27-3.71-.24-1.27-1.49-1.53-1.59-2.52-.07-.82.9-1.69,1.2-2.52.42-1.21.15-3.52,1.59-3.58.71,0,1.66,1.49,2.12,1.59C1244.57,206.3,1246.45,204.34,1248.69,204.76Z"/><path class="cls-1" d="M1243.78,224.53c-.49,1-3.22.52-3.45-.4C1240.8,223.09,1243.55,223.4,1243.78,224.53Z"/><path class="cls-1" d="M1241.25,227.71a3.32,3.32,0,0,1-.52.54c-1-.33-2.09-.57-2.39-1.6C1239.08,225.56,1241.22,226.47,1241.25,227.71Z"/><path class="cls-1" d="M1237.67,224.4c-.67.95-3-.08-3.84.92-1.38,0-2.77,0-3-1.19.39-1,1.65-.3,2.65-.4C1235,223.59,1237.25,222.46,1237.67,224.4Z"/><path class="cls-1" d="M1219,275.21c0-1.17-.75-2.2-.93-3.44-.07-.45.06-1,0-1.6-.09-.82-.5-1.5-.4-2,.18-.88,1.21-1,1.46-1.72.42-1.24-.51-1.44-.53-2.92,0-1.05.79-1.56,1.33-2.92a22.39,22.39,0,0,1,.53-2.26c.34-.56,1.81-1,2.38-1.32,2-1,3.67-2.85,5.71-3.19.52-.08,1.22.07,1.59,0,1.21-.21,2.72-1.22,4.38-1.59s3-.23,4.25-.93a11.12,11.12,0,0,0,3.71-4c.61-1.46.43-2.69,1.59-3.18.58-.24,1.14,0,1.73-.13a8.25,8.25,0,0,0,2.39-1.2c.92-.83,1.07-2.18,2.12-3.05a18.45,18.45,0,0,1,3-2,5.29,5.29,0,0,1,2.12-.53c1.87.16,2.74,2.77,4.78,2.25.73-.18,1.47-1.72,2.13-2.65,1-1.35,1.65-3.18,3.31-3.58,1.34-.33,2.84.51,3.58-.66.17-.84-.62-1.34,0-1.86,1.55.09,4.16,2.18,6.5,2.25,1.26,0,3.6-1.37,3.85.53.11.85-.94,1.53-1.19,2.39-.18.61.26.94-.14,1.59-1.08.43-2.22.65-2.25,1.86,0,1.51,2.14,2.22,3.45,3.06.89.56,1.64,1.43,2.12,1.72s1.06.35,1.33.53c.86.56,1.47,1.82,2.66,1.86,1.34,0,2.69-1.69,3.44-3.32.88-1.91.93-4.23,1.33-6.24.13-.67.61-1.32.79-2,.52-1.81,1.21-4.26,2.79-4.91,1.58,1.68,2.12,4.94,1.86,7.7,1.06.81,2.92.54,3.18,2.39.09.64-.32,1.46-.26,2.12.09,1.12.92,2.1,1.06,3.05.27,1.77-.29,3.23.53,4.51,1,1.63,3.06,1.57,4.38,3.32a6.07,6.07,0,0,0,.66,2.39c.12.4,0,1.06.13,1.33.43.88,1.58,1,2,1.72.21.37.15,1.06.4,1.72a15.84,15.84,0,0,0,1.86,2.66c.6.92,1.58,1.92,1.72,2.65.27,1.32-.69,2.23-.93,3.32-.28,1.32,0,3-.52,4.38-.62,1.59-2.14,3.16-3.32,5.17a17.75,17.75,0,0,1-3.72,4.64c-.84.67-1.83,1.06-2.65,1.73a40.3,40.3,0,0,0-3.45,3.58c-1.2,1.27-2.64,2.23-3.59,3.32-1.36,1.58-2,4.12-4.37,4.38a14,14,0,0,0-3.85.53c-2,.78-3.27,2.22-4.24,2.25s-2-1.2-2.92-1.32-1.9.8-3.45.79c-.64,0-1-.37-1.86-.66-1.89-.6-4-.58-4.24-2.65-.15-1.13.72-1.64.66-2.66s-1-1.27-1.46-2.12a2.21,2.21,0,0,0-.67-2.66,2.64,2.64,0,0,1,.54-1.85,18.36,18.36,0,0,0-2.66,1.06c-1,.59-1.66,1.93-2.78,1.73-1-.37-.25-1.42-.4-2.26a11.85,11.85,0,0,0-2.26-3.85,19.22,19.22,0,0,0-4.51-1.73c-4.1-.64-6.71,1.56-10,1.87-.83.07-1.74-.14-2.52,0-2.67.46-5.64,2.58-7.3,4-2.74.28-5.53-.56-8.36.27s-4.42,3.17-8.75,2.52c-.86-.74-2.38-1.1-2.39-2.39,0-1,1.5-1.66,2-2.39a9.32,9.32,0,0,0,1.46-3.71c0-.88-.6-1.94-.53-3.05C1218.49,277,1219,276.07,1219,275.21Z"/><path class="cls-1" d="M1216.71,219.89c.73-.1,1.27-.64,2-.66,1.55-.06,3.08,1.14,4.91.92.4.43.13.79.14,1.47,1.55.82,4.09.67,4.9,2.25-1.16,1.23-2.89.34-4.38.13s-2.78-.1-4.24-.27c-1.86-.21-3.54-1.24-5.31-1.45-1.07-.14-2.17.15-3.18,0-1.2-.19-5.65-1.87-5.71-3.05s2-1.57,3.85-1.33C1212.06,218.21,1213.65,220.31,1216.71,219.89Z"/><path class="cls-1" d="M1220.29,210.73c-1-.28-1.94-.12-2.38-.4-.91-.55-.78-2.14-1.07-3.05s-1.39-1.4-2-2.65c-.87-1.81-1.24-5.86,1.06-6.24.92-.15,1.87.56,2.52.4,1.28-.31,1-2,2.12-2.65.59-.39,1.68-.23,2.52-.53a5.71,5.71,0,0,0,2.12-1.86c.56-.66,1-1.78,1.73-2.25s1.59-.56,2.25-1.07c1.74-1.32,1.8-3.17,3.19-4.78,1.18-1.35,3,1.31,3.18,2.39.66.85,2,1.06,2.52,2-.78,2.34-3,2.54-2.52,5.84a9.82,9.82,0,0,0,.8,2.26c.38.78,1.5,1.61,1.46,2.12-.09,1-2.09.95-2.53,2s0,1-.13,2.52c-.55,1.08-2.05,1.34-2.52,2.66-.56,1.57.08,3.61-1.19,4.77-.88,0-1.85.77-2.92.66s-2.27-1.7-4.11-1.72c-.71,0-1.54.45-2.26.4S1221.13,211,1220.29,210.73Z"/><path class="cls-1" d="M1211.71,207.78c3.37,0,3.37,5.24,0,5.24S1208.33,207.78,1211.71,207.78Z"/><path class="cls-1" d="M1206.76,207.15a5.58,5.58,0,0,1,1.86,2.65c0,.94-1.45.89-1.86,2.13-.62,1.9.28,4.06-.8,5a5.89,5.89,0,0,1-2.65.26,39.3,39.3,0,0,1-6.37-6,14.44,14.44,0,0,1-2.12-2.39c-.69-1.26-.94-2.66-1.72-3.84s-2-1.79-2.66-2.92c-.55-.93-.61-2.16-1.19-3.05s-1.48-1.2-2.13-1.86c-.42-.44-.66-1.12-1.06-1.59-1.67-2-4.87-3-5-6,.68-.77,1.38.3,2.65.54.83.15,1.8-.07,2.39.13,1.21.4,2,2.29,3.32,3.32.72.57,1.65,1,2.38,1.59s1.37,1.6,2,2c.86.53,2.06.87,3.18,1.59,1.54,1,4.27,2,4.65,4,.09.49-.24,1.33-.14,1.71.19.7,1.07,1,1.59,1.6s.79,1.84,1.73,2S1205.75,207,1206.76,207.15Z"/><path class="cls-1" d="M1144.13,179.29c1.15.37,5,5,3.85,7.56a3,3,0,0,1-2.92,1.46c-2.62-.42-2.12-6.26-1.32-8.63A.65.65,0,0,1,1144.13,179.29Z"/><path class="cls-1" d="M1055.9,246.43a6,6,0,0,1,1.73-3.46c1.22-.91,2.88-.81,4.11-1.46a10.49,10.49,0,0,0,3.19-2.38c.64-.83.67-1.78,1.19-2.39.36-.43,1.16-.54,1.59-1.06s.3-1.34.93-1.86c1.84-.79,2.37,2.59,2.66,4.91a16.07,16.07,0,0,1,.39,1.85c-.19,1.06-1.36,1.28-1.72,2-.09,2.91-1.23,5.43-2.26,7.82-.88,2.07-1.39,4.33-2.12,6.11-.26.64-.82,1.15-1.06,1.72-1,2.26-1.31,5.8-3,6.77a14.1,14.1,0,0,1-3.72.93,3.8,3.8,0,0,1-3.45-2.65,20.28,20.28,0,0,1-.13-2.39c-.16-1.07-.8-2-.67-3.19.3-2.7,2.93-4,3.06-6.24C1056.66,249.79,1055.72,248.12,1055.9,246.43Z"/><path class="cls-1" d="M992,57.62c.16,2.22-3.4,2-3.85,3.85-.2.86.42,2,.27,2.78-.27,1.4-1.62,1-3.32,1.73-.86.37-1.7,1.75-2.65,1.85s-1.41-.5-2-.39c-.87.16-.58,1.23-1.86,1.46-1,.17-2.8-.91-2.92.4-.07.84,1.6,1.29,2.66,1.19.83-.08,1.44-.65,2.25-.66,1.57,0,2.59,1.16,3.58,1.19,2.28.06,4.52-2.1,6.91-1.86,1.07.11,1.71.88,2.51.8,1.28-.12,2.37-1.6,3.32-2.13-.4-2.23,0-5.18,2.13-5.3,1.43-.09,3.58,2.45,3.84,0,.12-1.07-1.13-2-2-2s-1.76,1.51-2.39.27c0-1.22,1.37-.9,2.13-1.2.56-.23,1-.84,1.59-1.06,3.15-1.11,7.53,1.09,8.76-1.59-2.8-2.39-7.57.87-10.75.66a4.36,4.36,0,0,1-3.58-2.39,16.65,16.65,0,0,1-.14-1.72c-.12-.85-.56-1.74-.53-2.26.14-2.4,6.1-2.85,6.1-5.84-1.13-1.09-4.47-.9-5.57.27-.39.42-.37,1.27-.92,2.12-1.19,1.82-5,2-6.24,4.25a4.73,4.73,0,0,0-.53,2.65C989.08,56,991.86,56.3,992,57.62ZM960.38,187.38c-3.83-.56-7.74,1-10.35,2.12-1.52.66-3,1.67-4.38,1.73s-2.5-.67-3.72-.8a20.39,20.39,0,0,0-5.17.27c-1.53.27-2.9,1.36-4.25,1.45-2.57.2-5-2.31-6.63-3.58-1-.77-2-1.4-2.92-2.12s-2.28-1.24-3.05-2c-1-1-1-2.77-1.59-4.11-.65-1.58-2.62-2.75-4.12-4.25-1.12-1.12-3.7-2.8-4-4.24-.14-.74.32-1.59.27-2.39-.07-1.16-1-1.82-.93-2.66,0-1.16,1.4-2.06,1.72-3.05.17-.5.09-1.21.27-1.85.37-1.35,1.26-2.15,1.06-4.12-.08-.78-.75-1.5-.8-2.52,0-.69.46-1.08.4-1.72-.1-1.14-1.57-1.36-1.72-2.66s1.28-2.45,2.12-4c.38-.68.59-1.73.93-2.25.74-1.13,2-1.68,2.52-2.79.42-.82.55-2,.93-2.65.49-.79,1.46-1.22,2.39-2.26.75-.85,1.06-1.87,1.59-2.25a12.86,12.86,0,0,1,2.39-.93,10.51,10.51,0,0,0,5.44-4.91,5.5,5.5,0,0,1,1.06-4.51c.81-1.37,1.4-2.67,2.79-3.45,1.66-.94,3.21-1,4.37-2.79a8.26,8.26,0,0,0,1.46-3.31,3.66,3.66,0,0,0-2.52-3.19c-1.2-.19-3,.91-3.71-.4-.22-.42.08-1.39,0-1.86-.16-.86-.9-1.48-.93-2.12-.06-1.24,1.23-2.54,1.59-4,.5-2,0-3.45-.13-5.7,1.85-2.93,6-1.48,10.08-1.2.62,0,1.33-.15,2-.13,2.44.06,4.35.79,5.18-1.33a14.18,14.18,0,0,0,.39-4.51,10.22,10.22,0,0,0-2.78-3.71c-1.32-.84-3.23-.47-4-2,.61-2.62,3.54-.44,5.3-1.06.9-.32.8-1.88,1.6-2.13.54-.17,1.23.55,2,.53a13.6,13.6,0,0,0,3.58-1.59c.85-.57,1.11-1.76,1.86-2.26a9.79,9.79,0,0,1,1.72-.52A10.12,10.12,0,0,0,963,75.27c1.09-1.32,1.59-3,2.92-3.19,1.78-.32,5.8.36,6.1-1.59s-1.63-3.31-.93-5.31c.56-1.58,2-1.3,4-2.25,1,.68.69,2.65.8,3.85,1.23,0,3.74-.37,4-1.46.3-1.37-1.8-2.76-2.26-3.59s-.6-2.46-1.59-2.65c-2-.39-4,2.78-6.5,2.78a4.43,4.43,0,0,1-3.85-2.52,10.65,10.65,0,0,1-.13-2.12c-.16-1.08-.81-2.21-.53-3.71,1-1.74,3.36-2,5-2.92.64-.34,1.15-1.07,1.86-1.33,1.19-.44,3,0,4.11-.66.74-.42.53-1.15,1.06-2,.34-.54,1.15-.85,1.6-1.46.31-.43.34-1.07.66-1.46,1.15-1.44,3.26-2,4.11-3.45.38-.66-.65-.9-.4-1.86.43-.92,2.09-.24,3.05-.4,1.32-.2,2.54-1.81,4-2.12s3.12-.13,4.52-.66c.83-.32,1.6-1.08,2.39-1.2.27,0,1.06.15,1.45.14s1-.34,1.73-.4c1-.1,2.18.24,3.45.26,2.1,0,4.09-.63,5.84.14.91.39.81,1.43,2,1.85.59.22,1.37-.08,2.25,0,1.3.13,2.66,1,4.38,1.2.61.06,1.25-.08,1.86,0a32.91,32.91,0,0,1,5.84,1.85c1.55.53,4.84,1.18,4.9,2.66.08,1.74-2.86,2.25-4.11,2.25-2.09,0-4.85-1.22-7-.53,0,3,3.27,5.28,6.24,4.91.26-1.41-1.68-.62-1.46-2,1.32-1,2.9.67,4.77.4.73-.2.61-1.25.8-2,1.57-1,3.55-2.37,6-1.33a1.23,1.23,0,0,1,.53-.53c.16-1.45-1.59-2.21-.66-3.58.46-.94,2.93-.62,3.31.13.19.9-.61.8-.53,1.59a2.14,2.14,0,0,0,2.13,1.2c1.3-.07,1.56-1.24,2.78-1.86.5-.25,1.23-.28,1.86-.53s1.39-.9,2-1.06c.44-.12,1.11,0,1.72-.13.79-.17,1.62-.8,2.26-.8.8,0,1.37.93,2.39,1.06.55.08,1.18-.31,2-.4.65-.07,1.32.08,1.86,0,1.26-.18,2.13-.85,3.18-.79.74,0,2,1,2.52.53.86-.85-1.15-1.48-.53-2.26,2,.16,4.2.11,6.24.4,3,.43,5.89,1.93,8.62,2-.26-1.84-2.37-1.31-3.32-2.12a7.77,7.77,0,0,1-1.45-2.79,15.72,15.72,0,0,1,1.85-3.18c1.17-1.1,5-1.09,6.1.4.75,1,.51,2.55,1.59,2.52s1.44-2.33,2.53-2.39c.9-.05,1.35,1.48,2.25,1.46,1.1,0,1.87-2.07,3.32-2.12.78,0,1,.4,2.25.53.84-.54-.27-1.24.14-2,1.48-1.07,4.87-.25,6.76-.92.53-.63-.67-1.08-.13-1.73,1.64-1.14,4.39-1.25,7.17-1.72,1.7-.29,3.31-1.48,4.64-1.6s2.72.82,4,.8a7.24,7.24,0,0,0,2.39-.53c.75-.29,1.26-1,2-1.19,1.17-.29,2.64.13,4,0s2.68-.7,3.72-.53,1.73,1.18,2.65,1.32c2.79.44,5.68-.42,8.22.27.46.12.92.59,1.46.8,1.71.62,2.87.42,3.19,2.52,1.34.47,2.13,1.7,3.71,2.12,1.06.28,2.13-.14,3.32-.14a37.86,37.86,0,0,1,4.91.27c.76.12,1.39.68,2.12.8.54.08,1.25-.06,1.86,0,.83.07,1.58.42,2.25.4,1.39-.05,2.45-1.29,3.59-1.47a9.36,9.36,0,0,1,2,.27c2.23.19,4.81-.29,6.63.13a13,13,0,0,1,3.72,2.13c.78.59,1.25,1.54,2,2a7.29,7.29,0,0,0,3.18,1.07c.85-.14.89-1.08,1.72-1.46,2.64-.59,7.31.84,9.43-.13.82-.38.66-1.25,1.32-1.73,4-.19,8,.16,11.68.27a29.9,29.9,0,0,1,3.85-.14c1.31.23,2.27,1.55,3.58,2,.87.3,2.4.14,3.71.4.88.17,1.6.7,2.26.8a18.16,18.16,0,0,0,4.12-.27c3-.24,7-.4,10,.8,1.59.64,2.26,1.93,4,2.12,2.46.27,6.25-.2,8.76,0,.6,0,1.16.3,1.59.27.84-.07,1.36-.78,2.39-.8,1.32,0,3.41,2,5.31,1.73.82-.56-.66-1.33.13-1.86s1.77,0,2.92,0c.63,0,1.4-.32,2-.27,1.46.13,2.84,1.44,4.64,1.86a16.77,16.77,0,0,0,5.18.27,14.45,14.45,0,0,1,3.58-.4,17.84,17.84,0,0,1,1.73.66c.56.15,1.12,0,1.59.13s.88.54,1.33.67c2.46.7,5.75,1.05,8.36,1.86,1.53.47,3.1,1.42,4.38,1.45.62,0,1.18-.27,2-.26,4,0,8.72,1.69,8.35,5.44-4.69,1-8.62-3.23-13.53-2a2.11,2.11,0,0,0-1.59,1.85c.18,2.32,6,2.12,6.49,4.38-1,.72-2,0-2.78.14a9.62,9.62,0,0,0-4,2.12c-.9.84-1.69,3-2.65,3.18-1.19.24-3-1.16-4.78-.79-.65.14-1.28.95-1.86,1.06-1.46.28-3.32-.8-4.24.93.48,1.21.19,2.9,1.19,3.58.65.44,1.46.1,2.26.4s1.45,1.48,2.25,2.12,1.36.54,1.73,1.2c.08,1-.39,1.08-.27,1.72.21,1.11,1.95,1.36,2,2.12.06,1-1.09.76-1.32,1.73-.09.61.71.78.79,1.59.05.54-.44,1.11-.39,1.72,0,.89.75,1.48.66,2.26a2.07,2.07,0,0,1-1.2,1.46c-2.54-1.63-4.83-3.88-7.56-6s-7.24-4.78-7.7-9.29c0-.69,1.47-1.23,1.73-2.25.1-.42-.17-1-.13-1.59.09-1.56,1.38-3.06,1.33-4s-2-2.91-2.93-3.19c-.77.4,0,1.21-.13,1.86a2.59,2.59,0,0,1-2,1.85c-2.51.22-2.79-3.23-6.77-2.25a3.36,3.36,0,0,0-2.12,3.71c.11.58,1.71,1.21,1.59,2s-3.61,1-4.38.92c-2.14-.17-3.24-1.77-5.17-1.72-1,0-1.78.79-2.52.93-4.18.76-10.38-2.06-11.81,1.59-.2.51-.09,1.19-.26,1.72a19.46,19.46,0,0,1-1.06,1.86c-.17.41-.14,1.22-.4,1.86s-2.75,2.84-.53,3.45c.53.14.77-.23,1.46-.13,1.14.15,3,2,4.37,2,.8,0,1.91-.91,2.52-.93,1.23-.06,2.12.73,3,1.19s2.26,1.36,2.93,1.33c1.25-.07.65-.93,1.85-1.33,2.3.68,3.37,3.11,5.57,5,.8.7,2,1.3,3.06,2.26.6.53,2.44,2,2.52,2.65s-.52.91-.67,1.46c-.21.81.29,1.4-.26,2-2.12-.78-2.59-2.87-4.12-4.64-.56-.66-1.13-1.45-2-2.39-.39-.43-1.8-1.92-2.66-1.59-1.67.63.91,3.16,1.33,3.71.88,1.17,2,2.75,2.12,4,0,.8-.51,2.23-.53,3.59,0,.91.23,1.74.14,2.52a18.86,18.86,0,0,1-.94,2.52c-.31,1-.38,2.13-.66,2.78a5,5,0,0,1-3.45,2.66c-1.1,0-1.57-.85-2.65-.8-1.64.08-1.94,1.58-2.92,2.79.09,1.3.49,1.75.27,2.65-.36,1.41-2.32,1.65-2.26,3s1.79,1.55,2.65,2.13a21.85,21.85,0,0,1,4.38,4c.74.94,1.81,2.71,1.73,3.71-.1,1.31-3.88,3.14-5.45,2.65s-1-1.87-1.32-3.18c-.27-1-1.06-1.44-1.46-2.25-.21-.43-.11-1.11-.4-1.6-.8-1.35-2.2-.61-3.85-1.46-1.08-.55-.76-1.72-1.19-2.78-.57-1.43-3-2.11-4.91-1.73-1.42.28-1.86,1.47-3.18,1.73-2-1.16.4-4-2-4.25-1.83-.19-3,2.63-4.12,3.45-.72.55-2,.67-2.12,1.46-.15,1.46,1.55,1.16,2.92,1.72s1.38,1.92,2.52,2c.95.07,1.58-1,2.52-1.06a6.58,6.58,0,0,1,4,1.2c-.66,1.61-4.23,2.79-4.24,4.91,0,1.23,1.42,1.44,2.52,2.25.92.69,2.14,2.63,3.45,4,.56.58,1.47,1,1.72,1.33.62.88.52,2,1.19,2.52.12.73-.33.91-.26,1.59.33,1,1.8.78,2.12,1.73-.27,2.29.68,4.44-1.19,5.31-.86,4.1-1.84,7.31-4.64,9.55-2.53,2-5.86,2.6-8.89,3.58-.79.25-1.42,1.09-2.13,1.33-1.76.6-4.9.23-5,2.39-.08,1.06,1.34,1.7,1.45,2.78a3.43,3.43,0,0,1-2.39,3.45c-.77.08-2.43-.45-2.52-1.86-.1-1.58,2-2.23,2.13-3.18.28-1.69-1.46-3.34-3.45-3.18-1.76.13-5.74,3.64-5.84,5.57-.08,1.43,2.85,4.43,3.85,5.3,3.72,3.29,7.68,5.26,7,13.27-.93,2-3.31,2.46-5.18,3.58-1.41.85-2.12,3.5-4.51,3.72-1-.33-.4-1.83-.66-2.52-.36-.95-2.26-1.42-3.45-2.39-1-.8-1.38-2.05-2.12-2.79-.93-.91-2.32-1.1-3.46-1.72-.71-.39-1.27-1.76-2-1.72-1.17,0-.76,1.17-1.05,3s-1.65,3.27-1.2,5.45c.19.89,1.3,1.61,1.85,2.52.93,1.5,1,3.25,2,4.11.62.57,1.68.69,2.38,1.19,1.41,1,3.89,3.19,4.38,4.38.58,1.4,0,3,.4,4.51.44,1.7,2.67,2.92,1.33,4.65a14,14,0,0,1-7.3-5.71,11.86,11.86,0,0,1-1.06-1.59c-.46-1.19-.36-2.53-.79-4a12.55,12.55,0,0,0-2.93-4.25c-.93-.87-2.58-1.39-2.65-2.65-.1-1.78.6-3.87.53-6,0-.45-.32-.91-.39-1.46-.14-1,.1-2.26-.14-3.19a15.11,15.11,0,0,0-1.19-2.38,23.1,23.1,0,0,1-1.06-2.52c-.54-1.54-1.14-4.5-2.39-4.65s-2.64,2.5-4.38,2.53a2.41,2.41,0,0,1-2.25-1.6c-.17-.81.41-1.63.39-2.52-.05-1.78-1.31-2.47-2.25-3.71-.39-.51-.49-1.22-.8-1.6-.6-.72-1.76-1.12-2.52-1.85a10.51,10.51,0,0,1-1.86-2.39c-.51-1-.68-2.39-1.46-2.52s-1.61.94-2.39,1.19a21.65,21.65,0,0,1-3.58.67c-2.66.18-4.82-.53-4.51,2.65-.41,1.43-1.92,1.44-2.92,2.12-1.27.86-2.19,2.6-3.58,4-.67.68-1.65,1.1-2.26,1.73s-.66,1.36-1.19,1.85c-1.42,1.34-3.54,1.46-4.51,3.32-.06,2.21,1,3.88.8,6-.12.95-.83,1.8-.94,2.79-.08.84.35,1.75.14,2.65-.12.48-.65.74-1.06,1.33s-.52,1.23-.79,1.59c-.45.57-1.19,1-1.6,1.46-.68.8-.82,1.37-1.46,1.46-2.91.42-3.63-5.11-4.91-7.43-.59-1.07-1.8-2-2.39-3.32-.68-1.49-.89-3.35-1.86-5a33.39,33.39,0,0,1-2.52-4.38c-.47-1.26-.88-2.84-1.32-4.24a22.84,22.84,0,0,1-1.07-4.51c-.11-1.73.34-2.79-1.06-3.46-1.28.31-1.85,1.6-3.31,1.6s-5.22-2.46-4.11-4.65c-.93-1.31-3.27-2-5-3.58-1-.89-1.94-3-3.71-3.18a9.25,9.25,0,0,0-1.59.26c-1.13.1-3.12-.1-4.38,0a28.11,28.11,0,0,1-5.58.27c-1.29-.14-2.9-.39-4.24-.53-1.7-.18-4-.58-4.91-1.46-.59-.55-.82-2.28-1.86-2.52-1.23-.29-1.91.66-3,.93-2.43.55-4.46-.5-6.1-1.6-1.17-.77-2.23-1.17-3.05-1.72-2-1.35-2.38-5.41-5.45-5.44-1.06,0-2.76.65-2.92,1.86-.1.84,1,2.41,1.47,3.05,1.48,2.1,4.22,2.88,5,5.7.55.22,1.67-.48,2.25.14.52,1.2,0,3.45,1.2,4,5.51.91,7.09-2.12,9.55-4.25,1.43.94,1,1.75,1.46,2.79a4.44,4.44,0,0,0,2.25,2.25c.67.26,1.53,0,2.53.4.62.24,3.24,2.71,3.32,3.58s-1.72,3.44-2.26,4.11-1.34,1-1.6,1.6-.12,1.43-.26,1.72c-.25.53-1.44,1.22-2.12,1.86a28.25,28.25,0,0,1-2.26,1.72c-.84.65-1.36,1.53-2.25,1.86-1.77.65-3.45.37-4.91,1.33-1,.62-1,2-2.12,2.78s-3.29.8-5,1.6c-1.13.51-1.81,1.51-2.78,1.85-.4.15-.9,0-1.33.14-.88.22-1.7.85-2.52,1.06-.66.17-1.35.08-2,.27-2,.59-3.92,2.66-6,1.45-1-2.23-1.13-5.05-2.26-7-.57-1-1.71-1.32-2.12-2.39-.06-.85,1-.61,1.06-1.32-.34-1.44-1.69-2.11-2.52-3.32-.41-.6-.59-1.44-1.06-2.12-1.58-2.3-4.7-3.5-5.31-6.37-.16-.78,0-1.4-.13-2a7.58,7.58,0,0,0-1.6-2.79c-.5-.59-1.54-1-2.12-1.86-.38-.57-.47-1.38-.79-2a22.14,22.14,0,0,0-5.31-6.37c-1.08.16-2.25.24-2.79.94a20.38,20.38,0,0,0,2.26,4.64,26.93,26.93,0,0,1,2.52,4.24c.21.56.17,1.28.4,1.86.83,2.11,3.46,2.75,4,5.18.35,1.62-.08,2.75.4,4.37s2.76,2.49,3.71,4c.78,1.23.79,3,1.33,4.12.79,1.7,3,2.44,4.64,3.58,1.46,1,2.51,2.61,3.72,3.72.71.64,1.68.76,1.85,1.46.23.89-.37,1.2-.53,2,1,1.06,2,3,3.72,3.19.7.07,1.58-.64,2.65-.8.54-.08,1.14.09,1.59,0,.71-.13,1.33-.76,2.13-.93,1.35-.29,2.93-.17,4.64-.4s2.74-1.58,4-1.19c1.37,1.5.39,3.2,0,4.65-.13.51-.13,1-.26,1.46-.72,2.36-2.59,4.11-3.45,6.23-.27.65-.22,1.45-.53,2.12-1,2.13-3.05,4.23-4.65,6a25.61,25.61,0,0,1-2.65,2.66c-.95.78-2.12,1.21-3.19,2a28.55,28.55,0,0,0-5.83,5.84c-.58.79-.86,1.71-1.46,2.39-.87,1-2.21,1.44-2.92,2.38a27.28,27.28,0,0,0-1.59,3.45c-.73,1.52-2.26,2.55-2,4.65.1.8.82,1.3,1.06,2.12a9,9,0,0,1-.14,4.11c.75,1.82,1.29,3.85,2.66,5,.16,2.69-.22,5.29,0,7.57.14,1.44.7,2.51.13,3.84a12.33,12.33,0,0,1-3.58,4c-1.25.81-3.17,1-4.51,2-.94.67-1.71,1.86-2.66,2.65-1.56,1.31-3.71,2.53-3.84,3.85-.08.76.6,1.91.79,2.65.52,2,1,4.78.13,6.9-1,2.29-5.82,1.82-6.36,4.24-.17.74.32,1.33.26,2.13a17.74,17.74,0,0,1-1.33,3.84c-.58,1.1-1.92,1.6-2.78,2.53-1.09,1.17-1.64,2.88-2.79,4.11a40.48,40.48,0,0,1-5.7,4.91,16.69,16.69,0,0,1-7.7,2.78c-1.61.12-3.34-.37-5-.13-.62.09-1.3.66-2.12.8-.48.07-1-.09-1.46,0-.83.14-1.62.8-2.39.8a4.69,4.69,0,0,1-4-4.12c0-.78.67-1.53.66-2.25s-1.05-1.91-1.86-3.45-1.07-3.16-1.85-4.38-1.92-1.9-2.52-2.92c-1.22-2-1.31-4.46-1.73-6.9-.13-.8-.68-1.66-.79-2.66-.15-1.21.14-2.57-.14-3.58a18.31,18.31,0,0,0-1.59-2.52c-.94-1.72-1.59-4-2.39-5.3s-2.25-2.56-2.38-4a19.29,19.29,0,0,1,.26-3.72c.14-.93.83-1.67,1.06-2.65.15-.65,0-1.4.13-2.12.68-3,4-4.14,3.59-7.83-.19-1.57-1.3-2.34-1.46-4.12-.08-.83.41-1.56.4-2.39,0-1.12-1-2.78-1.46-3.84-1.35-2.93-2.17-5.61-4.12-7.83-1.05-1.21-2.44-2.07-3.31-3.19a8.38,8.38,0,0,1-1.6-3.31c0-.76.59-1.23.8-2,.28-1,.3-2.83.66-4.38.17-.71.94-2.43.8-3.58a5.55,5.55,0,0,0-3.19-3.59c-1.85-.45-3.76.6-6.1.4C963.14,191.15,963.29,187.81,960.38,187.38Zm73.37,47.5c.61-1,1.38-3.72,0-4.38h-.27C1032.89,231.6,1032.26,234.26,1033.75,234.88Zm-1.86-27.73c.45-.92,1.5-1.89,1.32-3.05-.38-2.56-5.16-1.3-5.7.53-.36,1.23.22,2.2-.27,3.45.53,1,1.84,1.18,3.45,1.06C1031.59,208.75,1031.48,208,1031.89,207.15Zm-8.09,13.67c.52-1-.84-1.61-1.07-2.66-.26-1.22.3-2.66-.79-3.32h-.4C1020.58,217,1021.94,220.61,1023.8,220.82Zm90.48-131.76c-.5-1-1.93.3-1.32,1.2C1113.86,90.32,1114.18,89.8,1114.28,89.06Zm-30.91,5.44c2.15-.41,0-3.85-1.59-3.45C1079.66,91.58,1081.9,94.79,1083.37,94.5Zm-9.82,17.12c.66-4.6-2.92-5-3.58-8.23.3,0,.15-.38.4-.39.87-.42,2.19.67,2.65-.4,0-1.57-2-2.74-4-2-.58-.4-.66-1.29-.8-2.12-1.5-.9-5.22-2.86-5.17-4.65,0-1.47,1.94-2.3,4.11-2.25.92-.7.33-2.83-.53-3.32-3.43-.75-5.26-.25-7.43,1.33-1,.75-2.2,1.27-2.79,1.72a3.45,3.45,0,0,0-1.19,2.12c.08.82,1.26,1.31,1.73,2.39.23.56.18,1.26.39,1.73.58,1.28,2.07,2.1,3.19,3.18.79.76,3,2.41,3,3.32,0,.75-.68.92-.93,1.72a10,10,0,0,0-.39,3.32c.29,1.46,1.8,1.51,3.18,2.12s2.69,1.69,4.11,1.73A5.59,5.59,0,0,0,1073.55,111.62Zm-31.18-9.55c3.6-.65,2-3.69.13-4.78-1.38-.82-3-1.54-4.64-2.52-.94-.57-4.49-1.65-4.51-2.78s2.64-1.66,1.59-3.85c-1.82-.45-6.14.25-5.84,2.25.17,1.16,1.54.52,1.86,1.73-1.3.46-2.88,1.67-4.25,1.46-1.62-.26-2-2.25-2.91-3.45-1.27,0-2.1-1.23-3.59-1.07s-2.38,2.44-3.18,3.59c-.42.6-1.1.91-1.33,1.46-.14.32,0,.85-.13,1.32-.46,1.48-1.73,2-1.6,3.32s1.38,1.67,1.47,2.65c-.09,1-1.73.49-1.6,1.73,2.38,2,2.51-.93,3.72-1.33,1-.32,2.88.27,4.11,0,1-.22,1.78-1.16,2.92-1.59a8.24,8.24,0,0,1,2.52-.53c4.22-.18,7,2.57,10.62,2.65A29.21,29.21,0,0,0,1042.37,102.07Zm-8.49,15.65c.07-1.42-.55-2.49-.67-4.51-2.45-1.47-4.28,1.37-6.76,1.06-1.53-.19-2.62-2-4.25-1.72-.89.13-1.33,1.29-2.25,1.46-1.9.35-2.76-1.52-4.78-.8-2.84-2.16-4.11-5.69-4.78-9.68-1.54-2-3.91-.38-5,.93-.7,0-1.57-.39-1.72.39-.52,2.46,3.47,2.72,3.45,4.38,0,1.09-1.56,1-2.26,1.73s-.25,1.48-1.19,2c-2.62.31-3.48-1.12-3.45-3.45-1.13-1.72-2.56-3-3.58-4.38a5.29,5.29,0,0,1-1.06-2.12c-.1-.62.29-1.41.13-2.13-.29-1.26-2.65-2.22-4.12-2.91a24.82,24.82,0,0,1-4.64-2.39c-.79-.67-1.16-1.82-1.86-2.26s-1.33-.29-1.86-.66c-.72-.51-.6-1.36-1.59-1.6-.5-.18-1.27.5-1.59.94-.64,2.89,1.71,3.09,2.79,4.37.74.88,1.11,2.21,1.86,2.79s1.89.5,2.91.93c.71.29,1.18,1.17,1.86,1.59,1.27.77,3.3.9,3.45,2.39-.79.53-2.57-.78-3.18.53-.16.86.68,1.3.66,2.12a2.74,2.74,0,0,1-2.79,2.52c-.13-.77.7-1.41.67-2.25-.06-1.69-3.45-4.27-5.18-5-.8-.37-1.78-.39-2.52-.8a19.53,19.53,0,0,1-4.38-3.58c-.95-1.26-1.76-3.58-3.84-3.45-.85,0-1.56.83-2.26,1.19a20.29,20.29,0,0,0-2,1.06A4.65,4.65,0,0,1,966,97.42c-1.67.07-3.08-1.23-4.51-.93A3.74,3.74,0,0,0,960,97.56a17.75,17.75,0,0,1,.13,2.12c-.43.75-1.71.7-2.65,1.19a18.53,18.53,0,0,0-3.72,3.32c-.72.71-1.37,1.3-1.46,1.86s.37,1.27.27,1.86a6.33,6.33,0,0,1-2.13,2.52c-.47.32-1.09.36-1.59.66-1,.62-1.51,1.43-2.39,1.59-2.32.43-6.53-.46-6.5,2,0,1.64,2.24,1.65,3.59,1.59,1.87-.07,3.47.4,4.51.14a19.4,19.4,0,0,0,2.25-1.33c.48-.21,1-.22,1.33-.4.79-.4,1.24-1,1.86-1.33a16.73,16.73,0,0,1,4.77-1.06c1.79-.1,3.66.19,6,0,.83-.06,1.64-.59,2.52-.66,1.45-.11,3.35.57,4.51.53.81,0,1.71-.81,2.66-.8a2.73,2.73,0,0,1,2.39,1.47c.11.38-.23,1-.14,1.59.16,1,1,1.36.93,2-.07.83-2.14,1.94-1.86,2.92.19.62,1.67,1.28,2.39,1.72a8.53,8.53,0,0,0,2.92,1.19c.75.09,1.42-.2,2.13-.13a10.43,10.43,0,0,1,3.71,1.33c1.25.88,1.07,2.28,2.52,2.78.62.22,1.73.1,2.52.27,1.93.42,3.37,2,4.78,1.86,2.22-.26,1.21-2.35,1.46-3.85.57-3.39,7.18-3.23,8.49-.93,1,.26,1.82,0,2.92.4.63.21,1.11.9,1.72,1.06s1.14-.07,1.73,0c2.54.29,4.85,2.18,7,1.86,1.39-.21,2.39-1.51,3.71-1.59,2.54-.16,4.17,1.89,6.9.92,2-.7,1.57-2.79,2.26-4.9C1032.9,119.83,1033.82,118.83,1033.88,117.72Zm143-45.24a4.77,4.77,0,0,0-1.33-4.51c-1.53.26-.43,1.86-.53,2.79-.15,1.31-1.55,2.23-1.46,3.58-.51.59-1.38.83-1.46,1.85.85.59,1.21-.45,1.86-1.06C1175,74.18,1176.55,73.62,1176.91,72.48Zm-34.77-46a5.06,5.06,0,0,0-2.91,1.06c-.5.27-1.52.41-1.2,1.19C1139.31,28.54,1141.84,28,1142.14,26.44Zm-56,16.32c3.11.73,4.58-2.79,2.51-4.78-.48-.46-2.11-.64-2.78-1.72-.81-1.3-.7-3-2.65-2.65,0,.15,0,.37-.14.39-.18,2.9,4,3.63,4,6C1087.05,41.2,1085.76,41.33,1086.16,42.76Z"/><path class="cls-1" d="M1042.5,37.72c-.38-1.44,2.34-1.21,1.86.13C1043.94,38.25,1042.77,38.22,1042.5,37.72Z"/><path class="cls-1" d="M1026.18,117.06c.07-1.1,2.56-1.5,3-.53C1029.07,117.6,1026.7,118.33,1026.18,117.06Z"/><path class="cls-1" d="M980.68,109.9c1.38-1.12,4.46-.36,6.36-.4-.35,1-.41,2.33-1.19,2.92C983.67,112,981.65,111.49,980.68,109.9Z"/><path class="cls-1" d="M971,102.86c1.82-1.9,3.73-.89,3,2.79-.43,1.1-2.33,2.56-3.18.93A14.17,14.17,0,0,0,971,102.86Z"/><path class="cls-1" d="M973.64,98.62a1.77,1.77,0,0,1-.93,2C971,100.3,972.3,97.16,973.64,98.62Z"/><path class="cls-1" d="M947.9,71.68a2.23,2.23,0,0,0-1.19-2.12c-.44-.24-1.1-.13-1.59-.4-1.3-.71-1.77-2.19-2.52-2.52.09-1.45-.4-2.5,0-3.45a7.84,7.84,0,0,1,2.92-2.52c1.15-.41,2.37,0,3.05-.93a.88.88,0,0,1,.66.13c0,.84-.71,1-.8,1.73.17,1.21,2.29.45,2.52,1.59-.2,1.24-1.31,1.49-1.32,2.39s1.61,2.28,2.39,3.32c.58.76,1.6,1.33,2.12,2.12s.56,1.51.93,1.86c.69.66,2.27.77,2.39,1.72.15,1.27-1.58,1.77-1.33,3.19-1.82,1.43-4.86.69-7.83,1.06-1.34.17-2.82,1.51-4.25.4-.32-.89,1.18-1,1.33-1.86-.1-.78-1.09-.67-1.33-1.33.39-1,1.59-1.24,1.47-2.78C946.26,72.47,947.68,72.77,947.9,71.68Z"/><path class="cls-1" d="M938,68.5c1.78-1.08,4.87-.26,5,1.06.13,1-.94,1.14-1.32,2.26s.06,2.22-.4,2.92-1.51.57-2.26.79c-1.67.5-4.89,2.46-6.23.27.19-1.18,1.33-1.41,1.72-2.39,0-.77-.79-1.17-.66-2,.16-1,.91-.66,2-1.06C936.61,70.06,937,69.12,938,68.5Z"/><path class="cls-1" d="M847.33,39.71c.28,1.18-3.49,2.72-3.85,1.19C843.2,39.68,846.37,38.16,847.33,39.71Z"/><path class="cls-1" d="M843,338.76h-2A3.22,3.22,0,0,1,843,338.76Z"/><path class="cls-1" d="M837,30.29a.63.63,0,0,1,.8,0c-.13.31-.23.65-.8.53Z"/><path class="cls-1" d="M825.18,51.38c0,.73-2.64,1.94-2.93.53a1.07,1.07,0,0,1,.54-1.06C823.49,50.42,825.15,50.67,825.18,51.38Z"/><path class="cls-1" d="M770,174.64c-.07.2-.2.34-.26.53C768.31,175.12,769.58,173.32,770,174.64Z"/><path class="cls-1" d="M716.11,81.9c.93-.54,1.82.82,1.2,1.46C716.28,83.56,716,82.39,716.11,81.9Z"/><path class="cls-1" d="M860.73,86.81c-.62-.16-1.46-.13-2.25-.27s-1.48-.32-2.12-.39c-1.64-.2-3.41.28-4.38-.67a42.71,42.71,0,0,1,5.7-6c.61-.54,1.9-.91,1.59-2-1.12-1-2.51.06-3.58.66A12.28,12.28,0,0,1,852,79.91c-2.2.33-5.11-.64-6.9.53-.25,1,2,.61,1.72,2.12a2.62,2.62,0,0,1-2.39-.4c-.61-.55-.26-1.39-.66-1.72-.68-.56-3.23-.72-4.38-.53a3.1,3.1,0,0,0-2.79,2.25c1.68.79,4.44-.8,5,1.2-.92,1.65-3.08,2.56-2.79,4.78a3,3,0,0,0,1.86,2.12c.73.13,1.15-.6,1.86-.53s.58.93,1.46.79c1.27-.54,2-2.33,3.44-2.25,1.76,2.13-1.58,3.17-3.44,3.85-2.13.77-4.89,1.18-6.51,1.86-.84.35-4,3.45-4.51,1-.32-1.72,1.59-1.23,2-2.65-2-.4-4,.89-5.83,1.6-2.67,1-7.19,1.64-7.83,4.64-.13.6.26,1.72-.13,2.12s-2.23.38-3.06.66c-1.28.44-2.39,1.38-3.18,1.6-.6.16-1.48.11-1.86.26-1.05.41-1.44,1.84-2.65,2.79-.5.39-1.6.67-2,1.06-.69.68-.78,2.39-2,2.65-.77.07-1.4-.58-2.13-.13-.08,1.69.6,4-.13,5.7a36.17,36.17,0,0,1-5.3,3.32c-1.12.63-2.11.79-3.46,1.46-1,.48-1.82,1.61-2.91,2.26-2.54,1.49-5.6,3.25-5.58,7,0,.82.43,1.7.53,2.65.07.57-.06,1.12,0,1.73.16,1.39,1.17,3.15,0,4.11-1.78-.73-4-1-5.3-2.25-.35-1.32.69-2.39.53-3.59-.13-1-1.48-2.66-2.26-2.78s-1.55.73-2.38.66c-1-.08-1.92-1.44-3.19-1.59-1.87-.22-3.24.42-5.31.13-2,1.07-2.58,3-5,2.79-.86-.07-1.65-.73-2.65-.93a16.1,16.1,0,0,0-3.85-.53c-2.26.15-3.9,1.77-5.84,2.78-1.71.89-4.13,2-4.64,3.85-.28,1,0,2.4-.4,3.32a15.29,15.29,0,0,1-1.06,1.72,13.35,13.35,0,0,0-1.59,10.22,23.11,23.11,0,0,0,2.25,4.51,7.41,7.41,0,0,0,3.85,1.86,17,17,0,0,0,3-.67,28.28,28.28,0,0,0,3.45-.53c2.87-.91,2.3-4.79,5.17-6.1a13.55,13.55,0,0,1,4.91-.79,3,3,0,0,1,.93,2.51c-.07.68-.71,1.29-1.06,2.26s-.36,1.84-.66,2.52c-.4.9-1.28,1.55-1.59,2.39-.21.55-.1,1.23-.27,1.72-.3.88-1.47,1.49-.93,2.39,2.84,1.13,6.28-.32,8.76.14,1,.19,3.2,1.44,3.18,3,0,1.21-.93,2-1.06,3.32-.16,1.66-.85,3.69-.93,5-.11,2.21,3.23,6,5.57,6,2.53,0,4-2.51,7-1.2,1,.44,2.07,2.07,3.18,2,.92-.06,2.31-1.67,2.92-2.78.75-1.36.8-2.5,2.12-3.19s2.56-.38,4.38-1.06a10.39,10.39,0,0,0,2.26-1.33c.64-.44,1.32-1.6,2.12-.79,1.06,1.06-1.3,1.65-.4,2.78,1.84,1,2.78-1.81,4.12-1.85a9.47,9.47,0,0,1,2.65,1.32c1,.68,1.39,1.64,2.52,1.86.73.14,1.9-.28,2.92-.13,1.35.19,2.16,1.35,3.18,1.32,1.25,0,1.85-1.39,2.92-1.59,2.34-.43,3.22.26,4.25,1.73,1.15.2,1.19-1.34,2.25-.8-.58,1.16.2,1.69.67,2.66.3.62.25,1.06.53,1.32.63.61,1.85.61,2.78,1.2s1.53,1.76,2.66,3,3.1,2.69,4.64,2.78,2.64-.41,3.85-.26c2.74.34,4.45,1.71,6.37,3.19,1.07.82,2,1.39,2.38,2.38.25.69.13,1.62.4,2.39.59,1.65,3,2.45,2.13,5.31.4.83,1.29,1.14,2.25,1.72.77.47,1.42,1.46,2.26,1.59a13,13,0,0,0,1.59-.13,12.36,12.36,0,0,1,3.85,1.2,14.8,14.8,0,0,1,2.39.8c.67.45.76,2,1.59,2.38.54.26,1.75-.1,2.65,0,1.43.17,3.36,1,4.65,1.06.78,0,1.42-.32,2.12-.26,3.25.25,5.09,4.13,8.23,5.3,1,.37,2.51.11,3.18.4,1.17.51,2.17,4.11,2.25,5.7.27,4.83-3.43,6.37-5.57,9.56-.44.67-.69,1.72-1.33,2.65-1.27,1.88-2.69,2.27-2.51,5.71,0,.94.52,1.87.52,2.92a19.57,19.57,0,0,1-.39,4.11c-.22.88-1,1.59-1.07,2.39s.24,1.43.14,2.12a12.71,12.71,0,0,1-1.46,2.92c-1.23,2.26-1.5,4.93-4,5.84-1.46.53-3.44.23-5,.79-.65.23-1.47.83-2.26,1.2-2.31,1.07-5.6,2.52-6.24,4.91-.56,2.12.79,3.81.4,6.23A22.24,22.24,0,0,1,860.6,275c-.57.75-.86,1.64-1.46,2.39-.8,1-2,1.44-2.52,2.78-.16.46-.06,1-.26,1.73-.08.27-.57.68-.8,1.19s-.21,1.08-.4,1.46c-.61,1.23-2.41,4-3.72,4.38-2.75.77-5.65-1.17-7.56-.8.28,1.33,1.24,1.19,1.86,2.13a14.22,14.22,0,0,0,1.06,1.85c.6.69,1.12.95,1.2,1.73a4.76,4.76,0,0,1-2,3.85,12.35,12.35,0,0,1-3.85,1.06c-1,.16-3.52.17-4,.8-.69.92.36,3.19-.13,4.11-1,1.94-3.66-.06-5,.53a2.55,2.55,0,0,0,1.07,2.52c.83.49,2.1-.15,2.65.8-.27,1.31-1.69,1.49-2,2.78,0,1.27.42,1.6.26,2.39-.34,1.7-3,1.63-2.91,3.45.11,2.72,5.21,1.6,5.3,4.25.06,1.6-1.46,1.62-2,3.18-.28.83.17,1,0,1.72-.22.94-1.32,1.22-1.32,2.26,0,1.27,1.85,2.66,2.78,3.71a14.79,14.79,0,0,0,3.32,3.19c1.86,1,4.63.8,5.44,2.65-.26,1.12-1.33,1.42-2.39,1.72H843a3.22,3.22,0,0,0-2,0h-1.85c-1.78-.81-3.93-1.34-6.11-2.12-.78-.27-1.67-.94-2.52-1.32-.64-.29-1.36-.4-1.86-.67-1.14-.6-2.42-2.54-3.58-3.31-.7-.47-1.8-.72-2.25-1.2a16.2,16.2,0,0,1-1.06-2c-.43-.61-1.22-1-1.73-1.72-1.1-1.47-2.51-3.44-2.52-4.51s1-1.79.66-2.79-2.36-.73-2.65-1.86c-.18-.68.59-1.82.53-2.78,0-.56-1.08-1.32-.66-2.13s1.37.08,2.12-.39c-.56-1.92,0-5-1.86-5.58-1,.83,1,2.68-.66,3.19-1.61-.71-1.24-2.83-1.59-4.38a16.48,16.48,0,0,1-.8-3.05,14.16,14.16,0,0,0,.13-1.86c-.28-1.78-2.27-3.25-2.39-5,0-.87.53-1.6.67-2.52.09-.63-.09-1.33,0-2,.11-.84.58-1.62.66-2.39a20.84,20.84,0,0,0-.26-5.18c-.33-1.53-1.55-2.83-1.73-4.5-.06-.61.2-1.62.13-2.39s-.45-1.44-.52-2.26a14.48,14.48,0,0,1,.26-2.39c.14-1.66-.33-3.52-.26-5.17,0-.49.27-.85.26-1.33,0-1.37-.47-2.75-.53-4.11-.11-2.52.28-4.31-.13-6.64-.31-1.76-.69-4.46-1.33-5.57s-3.5-3.33-4.91-4.11c-.93-.52-2-.7-3-1.2-2.16-1.05-6.35-3.3-7.3-5.43-.27-.62-.24-1.44-.53-2.13a28,28,0,0,0-2.66-3.85c-1.63-2.5-3-5.64-4.64-8.22a32.87,32.87,0,0,0-2.52-3.85c-.54-.62-2.29-1.19-2.52-2.12-.3-1.23-1.2-2.91-1.06-3.85.19-1.27,2.66-2.3,2.65-3.45,0-1-1.31-1.56-1.59-2.39-.67-2,.39-3.22,1.2-4.91a19.77,19.77,0,0,1,.79-1.85c.49-.74,1.48-.94,2.12-1.73.37-.44.59-1.36,1.07-2,1-1.34,2.63-1.84,3-3a25.41,25.41,0,0,0,.13-7.56c-.23-1-1.12-1.75-1.46-2.66-.6-1.6-.74-3.35-2.39-3.32-1,0-1.73,1.15-2.39,1.86-.15.95-.07,2-1.06,2.26-1.51.44-2.09-1.59-3.85-2.13-.7-.21-1.81-.2-2.25-.39-1.28-.58-1.7-2.46-3.05-3.19-1.13-.61-2.1-.4-2.79-1.33a10.64,10.64,0,0,1-.13-2.65c-1.45-.85-2.69-4-4.38-4.77-1.12-.5-2.84-.46-4.24-.93a15.27,15.27,0,0,0-1.86-.67,11.11,11.11,0,0,1-2.39-.53c-2.63-1.3-4-5.53-7.3-5.44-1.38,0-2.72,1.34-4,1.33s-3.34-1-4.91-1.73-3.43-1.16-4.77-1.85c-1.09-.56-1.84-1.57-2.79-2-.73-.32-1.79-.37-2.39-.66a26.53,26.53,0,0,1-2.78-2c-1-.69-2.09-1.75-2.13-2.65s1-1.92,1.06-2.92c.34-3.16-2-5.43-3.45-7.3-1.08-1.38-2.36-2.56-3.45-3.84a8.26,8.26,0,0,0,0-1.86,26.44,26.44,0,0,1-2.38-3.19c-.79-1.08-2.33-2.23-2.52-3.44-.25-1.5.56-2.81,0-4.25-1-2.41-4.28-1.32-3.85,1.86.12.87,1.35,2,1.72,2.92s.31,2,.67,3.05,1.37,1.9,1.72,3c.56,1.82.55,3.77,1.06,4.91s2.14,2,1.2,3.18c-1.26.26-1.74-1-2.52-1.72-.44-.41-2-1.18-2.26-2.13-.2-.78.5-1.83.27-2.78-.46-1.88-4.24-1.92-4.25-3.85,0-1.21,1.58-1.35,1.59-2.52s-1.74-2.36-2.12-3.45a19.8,19.8,0,0,1-.53-4,24.81,24.81,0,0,0-.27-3.85,6.23,6.23,0,0,0-2.52-2.65c-1.16-.65-2.08-.38-2.65-1.33a10.92,10.92,0,0,1-.93-3.45c-.19-1.59,0-3.34-.13-5a24.81,24.81,0,0,1,0-5.17c.65-1.29,1.85-1.92,2.52-3.19.46-.88.53-2,1.06-2.92,1-1.73,3.09-3.33,4.51-5a23.6,23.6,0,0,0,3.85-5.71c.32-.74,1.18-2.4,1.06-3.31-.18-1.28-2.58-2.33-2.39-3.85.12-.94,1.46-.93,1.86-1.86a9.63,9.63,0,0,0,.4-2.39c0-1.27-.66-2.61-.4-4,.22-1.16,2-1.63,1.06-2.91s-2.47.68-3.45-.14.18-1.66.26-3c0-.55-.32-1.18-.26-1.59.08-.59,1.24-1.59.93-2-.72-.91-1.52-3.21-3.05-4-1.95-1-4.06-.32-6.77-.8-1.66-.29-2.45-1.85-4-1.72-.94.07-1.49,1.15-2.79,1.72s-3,.37-4.24.66-1.88,1.17-3.19,1.07c-1.09-.09-1.1-1.07-2.38-1.2a19.92,19.92,0,0,0-2.26.4,30.66,30.66,0,0,1-7.83-.13,22.72,22.72,0,0,1-5.17-2c-1.58-.73-4.51-1.63-4.38-2.79.08-.74,2.77-1.53,3.85-1.86,1.72-.52,2.79-1.37,4.11-1.46.51,0,1.18.32,1.86.27s1.51-.68,2.39-.8c1.85-.25,4.46.1,4.24-1.72-1.41-1.11-7.15.82-7.3-1.59-.09-1.46,2.18-1.91,3.85-2.26a26.23,26.23,0,0,1,5.18-.8c1.51.08,3.5,1.78,4.38-.13.42-1.35-.52-2.49-.8-3.58,1.12-1.56,3.2-1.36,4.78-1.59a19.68,19.68,0,0,0,5-1.33,19.73,19.73,0,0,1,5-1.33c1.8-.23,3.55-.91,5.17-1.06a37.13,37.13,0,0,0,3.85-.26c1.14-.22,2.34-.85,3.58-.8.84,0,1.55.65,2.39.8s1.69,0,2.52.13c.64.14,1.22.57,1.86.66,1,.16,2.08-.14,3.05,0s1.65.69,2.52.8c2,.26,4.38-.11,6.37.27.75.14,1.43.51,2.26.66s1.63,0,2.38.13c1.06.21,1.94,1.21,3.06,1.33,2.05.21,4.36-.89,6.5-1.06a38.9,38.9,0,0,0,4.77-.27,31.5,31.5,0,0,1,4.25-.93c.72,0,1.33.22,2,.14s1.51-.92,2.25-.8c1,.16.82,1.41,1.86,1.72,1.16-.6,2.31,0,3.59,0s2.34-.61,3.71-.39c2.42.37,5.79,2.74,7.69,1.46.48-.33.37-.89.8-1.73.59-1.14,1.74-2.48,1.46-4.11-2.66,0-5.2,1.34-8.23,1.46-3.06-1.92.82-3.11,3.06-4,1.84-.73,3.3-2.33,5.57-2.66,1.86-.26,3.9.41,6.1.67,1.29.14,2.58-.09,3.32.13,1.3.39,2,1.68,3,2,.47.13,1.23.12,1.86.27,1.19.27,2.26.9,3.45,0,.93.16,1,1.16,2,1.32.88-.47,1.56-1.68,2.92-2,.59-.13,1.21.1,1.85,0,1.09-.17,2.53-1.64,3.19-.27-.27,1-1.72,1.11-2.52,1.86s-1.82,2.22-1.73,2.92c.16,1.27,2.06.78,2.13,2.39-.29.93-1.37.51-2.26.93s-1.12,1.16-2,1.33c-2.41.45-4.41-.61-6.5-.53-.1.9,1,1.43,1.59,1.72,1.89,1,3.44.86,6.1.8,1.37,0,2.94.4,4.12-.4.74-.51.7-1.63,1.32-2.26a5.12,5.12,0,0,1,3.59-1.32c.6.1,1.45.81,1.46,1.32,0,1.21-1.71.82-1.73,2.13,1.12.67,4.09-.74,4.25-1.86.11-.82-1-1.29-.93-2.12.06-1.39,2-1.37,1.72-2.79-.91-.72-1.86.15-2.78,0-1.31-.22-2.48-1.78-3.06-2.79.58-.71,1.79-.24,2.66-.13,1-1.35,2.79-1.88,5.3-2.12.9-.09,2.09-.45,2.53.39.21,1.26-1.86,2-1.46,3.46,1.78.44,2.37-2,3.85-2.93a14.07,14.07,0,0,1,2.52-1.05c.81-.32,1.71-1.09,2.38-1.07s.87.63,1.6.93,1.5-.19,1.72.66c-1.54,2.67-7.27,1.14-8.76,3.85.34,1.82-.89,3.56.14,4.78.73.87,2.4.28,2.78,1.19.52,1.22-1.61,1.22-1.06,2.66,1.41.84,3.08-.81,4.38-1.46s3.16-1.54,3.32-3.19c-.7-1.34-3.32-.3-3.72-1.72-.21-.77.8-2.5,1.06-2.79,1.39-1.55,6.22-3.76,9.69-3.45.66.06,1.33.46,2,.53,2.28.24,5-1,6.77,0,1.44-.84,3.17.12,5.17-.13,1.54.91,1.12,2.85,3.45,3.72.63.23,1.42.06,2.26.26.61.15,1.28.87,2,1.2,1,.45,1.77.35,2,1.06s-.73,1.14-.67,1.85c.58.48.1,1.19.4,1.86.57,1.23,2,1.14,3.45,1.73,1,.41,3.15,1.67,3.05,2.65-.06.66-2,1.81-2.65,2.12-.45.22-2.69,1.31-3.45,1.2-1.25-.19-1.74-2.72-3.45-2.66a1.42,1.42,0,0,0-1.46,1.46c0,1.75,1.95,1.81,2,3.32,0,1.8-1,1.93-2.52,3a10.64,10.64,0,0,0-3.45-1.19c-.85,1,1.39,1.37.66,2.65-2.13.45-3.75-.6-5.7-1.19a11.48,11.48,0,0,1-2-.4c-.76-.44-1-1.73-1.6-2.39a5.53,5.53,0,0,0-3.31-1.86c-1.64,0-4,2-5.31.13.9-3,5.15-.78,8-1.85,1.05-.4,1.4-1.51,2.26-2,1.71-1,4.5-1.12,4.24-3-.13-1-1.49-1-2.25-1.46-1-.68-1.83-3.07-3.32-3.19-.76-.06-1.31.59-2.12.67-1.72.16-3.63-.69-5.18,0-.72.41-.23,1.07-.79,1.85s-1.56.83-2,1.46-.41,1.68-1.07,2.26c-1.08,1-3.39,1.12-4.77,1.59-.62.21-1.39.93-2,.93-1.1,0-1.56-1.47-2.79-.93-.1,1.42,1.5,2,2.52,2.65s2.26,1.42,2.66,2.66c-1.08,2.29-2.81-.12-4.51-.13-1.89,0-4.63,3.58-6.24.66.4-1.55,2.1-1.79,2.52-3.32-1.87.32-3.5,1.9-5.71,2.39-.92.21-1.82.16-2.65.4-1.59.46-2.7,1.64-4.37,2.25-.66.25-1.45.17-2.13.4A35.4,35.4,0,0,0,802,53.64a29.66,29.66,0,0,0-4.65,2.79c-.56.49-2,2.23-2,2.78.07.79,1.56,1,1.59,1.86,0,.49-.86,1.54-.26,2.26s1.63.12,2.78.26c2,.25,3.36,1.93,4.91,2.79A13.76,13.76,0,0,0,808.59,68c1.82.23,3.86-.53,4.11.93s-1.71,1.9-1.85,2.78c1,1.3-.67,1.92-.67,3.06a2.88,2.88,0,0,0,2.12,2.38c1.34.12,3.3-1.31,3.85-2.65.66-1.59.38-3.75,1.6-4.91,6.18.17,11.41-2.81,11-9.15a8.75,8.75,0,0,1-.27-2.13c.2-1,2-1.88,1.73-3.18,1.73-.53,1.65-3.31,3.45-3.72,1.5-.33,3.2,1.07,5.17.93.64,0,1.48-.62,2.12-.53,1.3.18,2.08,1.78,3.06,2.52s1.77.45,2,1.33c-.26,1.49-1.31,1.52-1.2,2.92a2.88,2.88,0,0,0,2,2.26,6.36,6.36,0,0,0,3.32-.8c1.77-.84,3.29-3.38,4.78-3,1.16.25,2.08,4,2.25,5.3s-.19,2.53-.13,3.85c.17,2.24,3,2,4.38,3.19.41.35.58,1.26.93,1.72.67.9,1.48.9,1.59,1.86.25,2.29-2.08,2.48-1.86,5-.48,1-1.69.93-1.59,2.25.15,2.1,3.16.49,4,2.13.44.88-.08,1.53-.4,2.78,1,1.23,1,3.19-.8,3.19C862.15,88.27,861.85,87.08,860.73,86.81ZM717.31,83.36c.62-.64-.27-2-1.2-1.46C716,82.39,716.28,83.56,717.31,83.36Zm92.61,12.07c-.55-.54-2.36-.38-3.59-.26-.86.09-1.9.27-2,.93C805.72,96.73,809.49,97.19,809.92,95.43ZM803,93.18a1.63,1.63,0,0,0-.53-2.79c-.44-.11-1,.32-1.73.27s-1.5-.75-2.12-.8a3.17,3.17,0,0,0-2.52.93c0,.79.58.92.53,1.72-1.29.93-.61,4,.66,4.12s2.05-3.41,3.85-3.72C801.81,92.8,802.15,93.28,803,93.18Zm-1.86,5.31c-1.89-.67-3.63.45-5.17.66-.92.12-2.6-.19-2.39,1.19.17,1.13,1.91.72,2.92.4A12.63,12.63,0,0,0,801.16,98.49ZM795.32,88.4c2.65-1.13-.52-4.59-1.72-4.91-2.15-.56-5.21,1.58-7.7,2.26-1.4.38-2.73.41-3,1.59,1.26,2.08,3.74-.45,5.57-.13.93.16,1.47,1.43,2.39,1.59A27,27,0,0,0,795.32,88.4Zm-1.86,2.12c-.55-.64-3.52.08-4.38.67-.58.4-1,1.39-1.59,2.12s-1.32,1.34-1.85,2-3.17,4.47-1.06,4.91c.89.19,2.74-1.67,2.91-2.39a8,8,0,0,1,3.59-5.31C792.17,91.85,793.29,91.94,793.46,90.52ZM776.88,75.66c1.48,0,2.48-4.42,0-3.84C775.22,72.2,774.82,75.74,776.88,75.66Zm-7.16,99.51c.06-.19.19-.33.26-.53C769.58,173.32,768.31,175.12,769.72,175.17Zm-56.13-111c0-.25-.15-.29-.13-.53-.4,0-.87-.08-.8.4A.55.55,0,0,0,713.59,64.12ZM853,43.29c.65.08,1-.13.93-.79C853.38,42.08,852.52,42.63,853,43.29Zm-15.26-13a.63.63,0,0,0-.8,0v.53C837.55,30.94,837.65,30.6,837.78,30.29ZM787.36,40.51c.45-.29,1.12-.68.8-1.33-1.47-.69-3.94-.17-6.1-.4-1.23-1.73-3.28-2-3.46.8C781.07,41.58,784.81,38.64,787.36,40.51ZM763.61,54.17c.76-.26,1.8-.13,2-.93-.62-.5-1.25-1.17-2-1.19-1,0-1.42.81-2.39,1.32s-2.67.74-2.78,1.73C760.49,55.5,762.34,54.61,763.61,54.17ZM763,44.62c.85-.15,1.72.23,2.26-.53-.64-2.92-4.68-1.14-7-.93a6.68,6.68,0,0,0-1.32,2.65C758.68,46.27,760.88,45,763,44.62Zm39.8,135.6c1-.17.75-2.58-.53-2C801.26,178.67,801.76,180.37,802.75,180.22Z"/><path class="cls-1" d="M713.46,63.59c0,.24.16.28.13.53a.55.55,0,0,1-.93-.13C712.59,63.51,713.06,63.59,713.46,63.59Z"/><path class="cls-1" d="M709.48,71.42A2.81,2.81,0,0,1,707.62,73a3.44,3.44,0,0,1-.66-.66C707,71.09,708.81,70.16,709.48,71.42Z"/></svg>