<svg xmlns="http://www.w3.org/2000/svg" viewBox="0 0 75.1 96.46"><defs><style>.cls-1{fill:#fff;}</style></defs><title>loc</title><g id="Camada_2" data-name="Camada 2"><g id="Camada_1-2" data-name="Camada 1"><path class="cls-1" d="M37.55,0A37.58,37.58,0,0,0,0,37.52c0,12.8,6.08,26.54,18.06,40.84A127.93,127.93,0,0,0,35.91,95.9a2.68,2.68,0,0,0,3.28,0A127.93,127.93,0,0,0,57,78.36c12-14.3,18.06-28,18.06-40.84A37.57,37.57,0,0,0,37.55,0M51.46,37.52a13.91,13.91,0,1,1-13.91-13.9A13.9,13.9,0,0,1,51.46,37.52Z"/></g></g></svg>