<svg xmlns="http://www.w3.org/2000/svg" viewBox="0 0 1033.87 302.09"><defs><style>.cls-1{fill:#fff;}.cls-2{fill:none;}.cls-3{fill:#90bdcd;}</style></defs><title>logo</title><g id="Camada_2" data-name="Camada 2"><g id="base"><path class="cls-1" d="M343.64,168.78V62.29h45.69V78.43H359.69v29h21.66V123.6H359.69v29.05h29.64v16.13Z"/><path class="cls-1" d="M453.3,62.29l21.3,71.57V62.29h16V168.78H473.41l-22.08-68.19v68.19H435.28V62.29Z"/><path class="cls-1" d="M558,168.78,539,62.38h16.83l13.35,82.94,13.46-82.94h16.83l-19.36,106.4Z"/><path class="cls-1" d="M663.83,168.78H647.78V62.38h16.05Z"/><path class="cls-1" d="M765.23,142.29q.18,11.11-5.77,19a20.74,20.74,0,0,1-11,7.56,30.2,30.2,0,0,1-8.92,1.19q-9.42,0-15.62-4.67a26.1,26.1,0,0,1-8.2-10.41,41.92,41.92,0,0,1-3.52-15.07l15.28-1.11q1,9.31,4.93,13.49a8.2,8.2,0,0,0,6.62,3q5.26-.17,8.41-5.19Q749,147.63,749,143q0-6.63-6-13.17l-14.27-13.52q-8-7.72-11.3-13.85a32.14,32.14,0,0,1-3.56-15q0-14.54,9.76-22,6-4.5,15-4.5a27.14,27.14,0,0,1,14.69,3.82A22.1,22.1,0,0,1,761,73.16a30.92,30.92,0,0,1,3.52,12.31L749.1,88.28q-.68-6.54-3.74-10.19A7.83,7.83,0,0,0,739,75.45a7.33,7.33,0,0,0-6.7,3.91,15,15,0,0,0-1.87,7.81q0,7.31,6.28,14.86a52.94,52.94,0,0,0,7.14,6.8q5.6,4.67,7.38,6.54a54.42,54.42,0,0,1,9.17,11.72,45.92,45.92,0,0,1,2.47,5A29,29,0,0,1,765.23,142.29Z"/><path class="cls-1" d="M829.53,168.78h-16V62.38h16Z"/><path class="cls-1" d="M904,61a25.44,25.44,0,0,1,25.47,25.47v58.09a25.43,25.43,0,1,1-50.86,0V86.49A25.44,25.44,0,0,1,904,61Zm8.74,25.13A9.13,9.13,0,0,0,903.59,77a9,9,0,0,0-6.54,2.68,8.77,8.77,0,0,0-2.71,6.49v58.26a8.79,8.79,0,0,0,2.71,6.5,9,9,0,0,0,6.54,2.67,9.12,9.12,0,0,0,9.17-9.17Z"/><path class="cls-1" d="M996.52,62.29l21.3,71.57V62.29h16V168.78h-17.24l-22.08-68.19v68.19h-16V62.29Z"/><path class="cls-1" d="M3.08,302.09l61.34-61.33A130.15,130.15,0,0,0,248.48,56.7L302.09,3.08,299,0,256.66,42.35a145.26,145.26,0,0,0-101-40.54C75.09,1.81,9.53,67.37,9.53,148a145.25,145.25,0,0,0,40.54,101L0,299ZM253.57,45.44l-9.7,9.7.54.54a128,128,0,0,0-217,92.13c0,32.79,13.25,65.24,36.36,89.28l-.94-.94-9.69,9.7A140.91,140.91,0,0,1,13.89,148C13.89,69.78,77.5,6.17,155.68,6.17A140.89,140.89,0,0,1,253.57,45.44ZM155.68,273.79A124.91,124.91,0,0,1,66,236.17l0,0c-23.08-23.7-36.31-55.87-36.31-88.38A125.85,125.85,0,0,1,243.91,58.2l0,0a125.83,125.83,0,0,1-88.21,215.56Z"/><path class="cls-2" d="M73,73.72c.1.24.21.47.31.71,0-.56,0-1.11,0-1.67s.19-1,.29-1.45l-.09-.1-.6.66.09.2c-.06.33-.11.67-.17,1l-.63-.44c-.12.14-.23.28-.35.41l.27.15C72.39,73.38,72.67,73.55,73,73.72Z"/><path class="cls-2" d="M129.72,38.14l-.39.1a.69.69,0,0,0,.18.06C129.68,38.34,129.72,38.23,129.72,38.14Z"/><path class="cls-2" d="M138.57,36.75l.63.4,2.3.5,1.25.18c.06.13.11.26.16.4a3.64,3.64,0,0,1-.54.43c-.18.09.84,0,.84,0l.62-.41,2.35.28,1.34.37c-.05.19-.09.38-.14.58l.78.52h.72l-.79-.36.32-.49,2.92.29.68.37,1.14-.1-.62-.35,2.44.28-.44-.27h1.13l-1.43-.31c-.22,0-1.92,0-2.24,0s-1.18-.21-1.18-.21l-4.09-.62-.18-.32-.42.24-1.79-.25a1.86,1.86,0,0,0,0-.37c0-.12-.92.22-.92.22l-.37-.36-1.87-.29-1-.19.71-.25-1,0c0-.06,0-.13,0-.19a13.16,13.16,0,0,0,1.44-.21,8.62,8.62,0,0,0-1.62-.05c-.35,0,.84-.13.84-.13l-.17,0-1.56.23.23.33Z"/><path class="cls-2" d="M139.65,39.38h0l.52.07Z"/><path class="cls-2" d="M135.54,37.16,136,37a1.49,1.49,0,0,1-.19-.19l-1.06.21,0,0Z"/><path class="cls-2" d="M258.85,196l.37-1-2.5-.45-.41-.35-1,.16c-.09-.25-.19-.49-.28-.74l-.9-.43-.8-.32c0-.34-.05-.69-.08-1l.33-1c0-.33,0-.65-.05-1l-.53.23-1.66.27-.85-1.25q0-1.8.06-3.66c.12-.25.24-.5.35-.76s0-.77.05-1.15l-.43.07-.31-.59-.36,0c-.06-.2-.11-.4-.17-.6-.1.31-.2.62-.29.93l-.29-.39-.56.88c-.09.71-.17,1.41-.26,2.11l.09.82c-.1.18-.2.35-.29.53.12.37.23.74.35,1.11l-.92,1.75.58,0,.72-.6-.61,1.35-.67.75c.12.21.24.43.35.65l.68-.11.63.63,1.24-.39,1.31-.85.54-.55.34,0c-.25.49-.51,1-.77,1.46,0,.55,0,1.1,0,1.64,0,0,.29.68.43.67s.3.87.3.87c-.07.32-.14.64-.2,1,0,.16,0,.33,0,.5l-2.08,2-1.21.88c-.23.42-.46.84-.68,1.26l-1.3-.06-.59.74-.93-.22-.72.69-2.72.26-.71.88L239,204l-1.7.58-.93-.1-1.27.26-.94-.34-.74.51-1.18-.3-.09-.57s1-2.23,1.1-2.36,1.33-2.87,1.33-2.88c0-.49,0-1,0-1.48l.51-2c-.13-.66-.26-1.33-.4-2q.38-1.18.75-2.4l1.15-2.13c0-.65-.09-1.3-.14-2,.14-.6.28-1.21.41-1.81q.12-1.85.21-3.72l-.61-.6-.92.16s.08-2.58.12-2.85l-.48,2.29c-.1.45-.19.91-.29,1.36l-.39,2.58c-.11.8-.21,1.6-.32,2.39l-.6,1.47.3,1.68c-.17.63-.35,1.25-.52,1.87l-1.27,2,.18,2.42c-.43,1.09-.85,2.18-1.28,3.25l.73,1.86c-.07.71-.15,1.4-.23,2.09l.21,1.27-.31.72-.69.34c.12.65.24,1.3.35,1.93l1.44,0c.08.14.15.28.22.43l2.22-.33.78.38,1.74-.26c-.55.7-1.11,1.38-1.66,2.06-.88.74-1.75,1.48-2.63,2.2l-2,1.81-2.29,1.67-.75.14-.5.52c-2,.71-4.08,1.4-6.13,2.07l-2.41,1.42-1.77.35-1.5,1c-.61.48-1.23.95-1.84,1.41l.09.92-1.11.68c-.25.45-.5.89-.76,1.31.07.29.13.57.19.85-1.1,1.17-2.19,2.28-3.29,3.32-.55.28-1.09.55-1.64.81l-3,.3-.93-.13-.81.39-1.64.32c-.29.54-.58,1.05-.87,1.55-.49.47-1,.91-1.45,1.34l-1.8,0-1.4.18a1.1,1.1,0,0,0,0,.18c-.75.44-1.49.85-2.23,1.24l-.75.09c-1.67.38-3.32.73-4.94,1.06l-2.83.08-1.14-.29-1.92-.2-1.74-.06-1-.41s.39-.66.44-.71,1-.32,1-.32c.09-.39.18-.8.26-1.23s.11-.7.16-1.07l-.4-.35c.09-.33.19-.68.28-1,.65-.88,1.3-1.83,2-2.83,0-.55,0-1.12,0-1.71l.3-.89q-.25-.49-.51-1l.92-1.5,2.41-1.71,1.67-.75.73-.72c.14-.46.27-.94.4-1.41l.5-.73.61-.4s.64-3.34.7-3.56a13.91,13.91,0,0,0-.06-1.78l-1.13-3.07,1.48-1.45c.84-1,1.69-2,2.54-3.09-.09-.68-.19-1.36-.29-2.06l-2.67-.55c-.14-.39-.28-.78-.41-1.18,0,0,.38-.34.51-.47s-.41-1.44-.41-1.44l-1.39-.95-2.57.27s-2.36-.52-2.58-.6-3.13.05-3.13.05l-.63-.67-1.75-.92-3.16.29-1.28-2.5-1.06-1.93c-.29-.69-.58-1.39-.88-2.09,0-1.4.07-2.83.11-4.27q-.35-1.46-.69-2.94c-.24-.41-.49-.82-.73-1.24.2-1.24.4-2.5.6-3.76l1.88-1.7,2.12-3.43c.14-.71.27-1.43.41-2.15l.61-.87c-.08-.45-.15-.91-.23-1.37l.8-1.3,2.16-1.65c1.24-1.15,2.49-2.29,3.75-3.44l2.59-1.21,3.82-1.26,2.09-1.5c.08-.42.15-.85.23-1.28l.78-1.56,1.37-1.45,1.42-.33,2.68-.51,1.82-1.84.94-.54.44.12c0,.24,0,.47,0,.71l.42.77.57.1.72.54,1-.1c.06.25.13.5.2.75h1l.93-.53,1.28.34,2.62-.51,1.37,1,.92-.24,2.82,1.4.78-.23c0,.3.07.61.1.91l.58-.39,1.52,1.11,1.33-.2.5,1,.77.42-1.37,1.12c0,.28,0,.57,0,.85l-.86,1.27-1.29,1.08,1,2.23,1,.72c.58.65,1.15,1.31,1.72,2,.15.77.29,1.54.43,2.31l3,2.4,1.28-.84c0-.39-.06-.78-.1-1.17l1.18-.75,1.47-.27,1.18,1.15.09,1,1.7,1-.17.56.74.18.53.92,1.77,1.19,1,.85.39-.53,1.42.21c0,.26,0,.52.05.78l1.11.14,1.67.31q1.56-1.69,3.11-3.41c.63-1.18,1.26-2.36,1.88-3.55l-.49-.23-.39-.31h-2.27c-.15-.33-.31-.65-.46-1l-.72-1-.7.73-.81,0c0-.44,0-.88,0-1.32l-.83-.52c-.14-.46-.28-.92-.43-1.39s-.09-.84-.14-1.26.09-.76.13-1.14l.87-.09c.08-.38.17-.76.25-1.15l-.54-.46.81-.83,1.2-.21,1.34.22,1,.24c0-.23,0-.47,0-.7l1.59.47,2.08-.39,1,.5,1.26.2c0,.39.07.77.11,1.16l1.33,1.83,1.55.48.54.61,1.75-.87.33-1.48c-.22-.39-.45-.78-.68-1.17-.18-.69-.37-1.38-.55-2.08s-.37-1.25-.56-1.88c0-.17-.05-.35-.07-.52l1.69-.73c0-.32,0-.64,0-1l2-.35a10.53,10.53,0,0,0-1.71-.48l-2.54.58a10.62,10.62,0,0,1-1.06-1.11c-.08-.18.37,1.45.37,1.45-.07.22-.13.45-.2.67l1.29.58-.37.58-1.19-.32-2.1.07.6-1-.6-1.08,1.54-.13-.21-.74h-.83c-.09-.45-.18-.89-.28-1.34,0,0-1.14-.29-1.11-.49s-1.56,1.19-1.56,1.19l-1.62,1.67c-.42.43-.85.86-1.28,1.28l-1.3,1.07-.15,1.2c.14.44.27.88.41,1.32l-1.79.14-1.61.3s.61-.28.69-.45-.23-.75-.23-.75l-2.06-1c0,.34,0,.67,0,1l-1.21.29c0-.47-.07-.94-.11-1.41l-.51,1.33.1,2.18c.07,1.58.22,1.91.3,2L234,162l-.75-.42-.44.79-1,.41-1.1-.72c.14-.59.29-1.19.43-1.79H232l.58,1c-.07-.34-.15-.68-.23-1l-1-.74c.1-.33.2-.67.29-1,0-.69-.11-1.39-.17-2.08s-.14-1.11-.2-1.67l.63-.7.57-.95q-1.51-2.68-3.12-5.41c.18-.67.35-1.33.53-2l0-1.06-.9.87-.84.18.3-1.23.64-.71-1.61-.4c-.05.34-.1.68-.14,1l-1,1.13c.27.46.53.92.79,1.38.1,1.18.2,2.35.29,3.52l1.39,1.23-.51.55.86,1.26c.26.55.53,1.1.78,1.65l-.73.38-.61-1.36-.8.64c0,.58,0,1.17-.08,1.75l-2.29,1.68c-.14-.16-.28-.31-.41-.47l1.2-1.47c.12-.56.23-1.13.35-1.7-.31-1-.62-1.92-.94-2.88l-1.2-1.28-.57-1.56c.13-1.22.25-2.44.37-3.66l-1.32-1.7-2,.69-2.08-.09-1.55-1.3L216,143l-.88,1.78-3.38.88-2.27,1.24.24,1.13-1.61.67-.64.95-1.57,0-1.52.93-1.88-.9-2.21.13c-.06-.33-.13-.65-.19-1s-.25-.89-.37-1.34l-1.42,0c0-.22-.09-.43-.13-.65l-.42-.33-.73-.25.85-.94.3-1c-.07-.18-.13-.35-.19-.53h.49l.17-.37-.67-.07c.18-.31.37-.62.56-.93.47-.48.94-1,1.42-1.43l.84-1.09c0-.52.09-1,.13-1.56l.6-.39a10.35,10.35,0,0,0-.35-1.92l1.31-.22.62.35.16-.37,1.25.2.33.51,2.16,1.12,2,.89c.25.27.51.53.76.79l1.76.07,1-1.24.78-2.34a14.84,14.84,0,0,0-1.12-1.83c-.17-.08.69-.92.69-.92l-.27-1.43-.65.21c-.08-.43-.17-.85-.26-1.28l-.94-.87.37-.84,2,.57.21.46,1.65.33.51-1.93.65.08,0,.86,1.19.55.77-.5,1.64-.17c.06-.4.13-.81.19-1.21l2.19.1,1.16.56.81-.47c.21-.31.41-.62.61-.93l1.23-.55,1.3-.23.46.3.79.31c0,.26,0,.52,0,.78l.35,0,.17-.55.72-.15.5.67c0-.29.07-.58.11-.87a2.65,2.65,0,0,0,.64.32c-.06-.25-.13-.49-.2-.74l.63-.4,0-.34-.23-.68.37-.1.19-.61-.4-.27c.06-.3.12-.6.19-.89l.65-.46-.52-.46c.17-.39.33-.78.49-1.16l.47.58.6-.19.79,0c0-.22.05-.43.08-.65l-.51-.33s-.93.37-1.07.24l.9-.6,1.07.53.45-.61.94-.08-.27.63-.25.29h-.58c.13.16.26.31.38.47-.15.27-.31.54-.47.81l.57.78-.48.53-.35-.53-1,.92-.81,1,.4.27-.57.28.06,1.51.56.64c.07.24.13.49.2.73l.46-.33.71.14.57-.29,1.65,1.61,3,.74.88-.33.83.22v.56l-.55-.42c0,.27,0,.54.08.81h1c0,.14.09.28.13.42l1-.7.17-.68.91-.44-.24.86.73-.32.12-.71.94-1.38,1-1.35,1.34-.11c0,.23-.08.47-.11.7s0,.61,0,.92l1.29-.14c0-.29,0-.57,0-.86l.44-.51.52-.69-.47-.12c.17-.47.35-.95.53-1.42l.8,0,1.26.15,1.11.89.11-.41.59.2.6.61.58-.08.85-.19,1.34.63-.56-.79-.62-.36c-.19-.36-.37-.72-.56-1.07.06-.17.13-.33.2-.5l-1-.05-1.14-.65-1,.44-1.46-.07a7.85,7.85,0,0,1-.08-.93c0-.19-.49.48-.49.48l-.45-.46c.06-.21.13-.42.2-.63l.8,0-.39-1-.72-.54c.08-.38.16-.77.23-1.16l.6-.88c.07-.43.15-.86.23-1.29.08-.22.17-.44.26-.66a1.37,1.37,0,0,1,.39-.25c.21-.08,1.74-.29,1.74-.29l1.13-.68c.21-.35.42-.69.64-1l.4,0,.61-.11c0-.18,0-.35,0-.53s.23-.31.34-.46c-.15-.27-.31-.53-.47-.8l-.95-.49-.73-.49-.86.3-1,.43c-.1.29-.19.59-.29.89s-.25.52-.37.79l-1.4.55-1.28-.51-.41.58-.8-.1-.33.82-.42-.16c-.42-.16-.48.14-.48.14l-.33,1.11-.59.56c-.26.73-.52,1.45-.77,2.18l.69.09.44.38,0,.67.24.6c-.08.33-.15.65-.23,1l-.9.13.36.61-1.17.48c-.14-.19-.29-.38-.43-.58l-.94.06-.52,1.39-1,1.27c-.13.23-.27.46-.41.69l.8-.28-.91,1-.71-.23-1.13-.57-1,.32.09.67-.92.1-.94-.62c.18-.56.36-1.13.53-1.69l.43-.56c-.14-.86-.28-1.72-.43-2.58l.54-.84-.39-1,.53-1.11-1.45.57-.65-.61a22.19,22.19,0,0,0-3.06.34c-.08-.2-.17-.41-.26-.61l-.89-.52a4,4,0,0,0,0-1c-.09-.25.81-.22.81-.22l.44-.89-1.2-.11c-.06-.22-.13-.43-.19-.65l.56-.07,1,.21.61-.66.84-.61s-1.59.37-1.81.4.37-.71.37-.71l-.74-.58c.13-.32.26-.64.4-1l.73.3,1.52.42-.21-.45-.68-.07s-.71-.49-.88-.57.08-.65.08-.65l1,0-.79-.47.39-.48.81.75,1.2-.07-.65-.47.44-.45.47.44.9-.29c0-.24-.06-.48-.1-.72l.9.33,1-.21c-.08-.12-.15-.25-.23-.38s.05-.33.08-.5l.69.36.73.38-.18.91,1.18.21.94-.91-1.27.33c0-.16,0-.33,0-.49l2.8-1.33.8.5c0-.21,0-.42.07-.63l2.25-.24-.18-.62.61-.46,2.22-.36c.09-.27.17-.55.26-.83s.26-.46.4-.69L250,105l.35-.58.85-.49-.74-.1-.24-.45,1.46-.22c.28-.37.57-.74.85-1.12l-1.07-.47c.32-.2,1.05-.56,1.05-.56l.41.49-.39.54.66.12.71.15c-.12-.25-.23-.51-.35-.77l.39-.41c0,.34.09.69.13,1l1.1-.58c0,.16,0,.32.05.48l.53-.33c-.08.25-.16.5-.23.76l.41.11c.08-.23.15-.47.22-.7l.82,1c-.09-.31-.18-.61-.28-.92s-.11-.49-.17-.74l.83.68c.21.28.43.55.65.83l1-.36.52.25.31.51c.13-.19.25-.38.37-.57A113.17,113.17,0,0,0,141.36,35.92l.34.2.92-.26L144,36l.25.41.79.26.63,0,.51.29,0,.12c0,.12.46-.18.46-.18l1-.11-.94-.29-1.17-.08-.73,0,.36-.43,1.31.31.18-.35.9.09.06.3,1.53.37c0,.11.07.23.1.35l.39.43.38-.35.64.36-.29-.44.31-.28.49.32.81.28.92.26-.61-.46.39,0,.28.14.57.11.58-.3.08.24.64.13.81,0A1.23,1.23,0,0,0,156,38l.31.38.29-.46-.41-.35,1.16.12.9.22,1.25.22s.85.46.84.3l1.16,0c.27.1.54.22.81.33,0,0,.09-.19-.17-.28s.45-.1.45-.1l1,.21.93.4,1,.3h1l.77.21.35.21-.87.09-1.29,0-1.1,0,1,.21h.89l1,.06.93-.26s.75.05,1,.1a6.62,6.62,0,0,1,.84.36l.84.37.91.3.12.29.73.32,1.09.31-.35.23h-.9l-1.05,0-1,.13-1.06-.35-1.64-.07-.67.06,1.43.21,1.41.26-.7.2-1.19,0-1.6-.11a6.76,6.76,0,0,1-1.13-.38l-1.22.08-1.11.16-.84-.06-.09-.21-.91.35-.63-.21-.6-.24c0,.12.09.25.14.37s-1.53,0-1.81,0l-1.24-.11-1-.25-1.39-.33-1.1-.26,1.29.45-.32.16a3.49,3.49,0,0,0-.92-.36c-.33,0,.19.19.19.19l-.21.24-1.13-.22-.59-.43-.87-.11.85.53-.61.29.22.06a13.48,13.48,0,0,0,1.67.11,4.83,4.83,0,0,1,.95.13l.19.29.73.08c.41,0,.2.3.2.3l-.64.24a7.67,7.67,0,0,1-.85-.26l.37.19-.47.14-1.06-.22.12.39h-1.16l-.56-.39-1-.09c0,.19-.09.38-.13.58l-1.17-.19-.8-.1.73.39,0,.36.41.15-.11.24-1.31.2c-.06-.11-.13-.21-.19-.31l-1.39.28-.87.21c.08-.11.17-.21.25-.31l.29-.56-.65-.06-.4-.57-.48.35-.65-.27s-.87-.11-1.16-.18,0-.26,0-.45-.43.2-.43.2l-.62-.2-.44.41-.9-.17-.79-.3-.92-.42-.22.15a8.84,8.84,0,0,1-1.11-.11c-.36-.09-.09-.38-.09-.38h-.68v-.64l.58-.06,1.11-.09.88.26.65-.14a.8.8,0,0,0-.38-.33c-.21-.05,0-.47,0-.47l.78.18,1.28.19.14.23.74.31,0,.35.71.17,1.33.17.69-.38h-.79l-.86-.2c0-.12-.07-.24-.1-.36.18-.2.37-.39.55-.58,0,0-1.33.21-1.62.24s-.2-.24-.2-.24l-1-.09-1-.23.73-.48L141,40l1.42,0,.92.3,1.25.14s.89.25.85.38.9-.12.9-.12l-1-.32s-.57-.31-.78-.44.82,0,.82,0l-.82-.13c-.11-.24-.23-.47-.34-.69l-.25.25-.58.58-1-.18c-1-.18,1,.18-.85-.1s1.87.28-.78-.08l-1.13-.15-.19.35-.8-.22-.7.34-.95,0-.3-.29-.5.07-1.14,0-.28-.47.29-.42.23-.3,1-.08.43-.09-.79-.2-.68.15-.76-.16-.28-.35,1.12,0-1.19-.28-.17-.28c-1,.2-2,.41-3,.64.23,0,.47.1.58.11s.27.35.27.35l0,.57-.73,0-.94-.07-.78.1s-.22-.48-.18-.59c-1.29.32-2.57.67-3.85,1l.49.11.09-.16c.1-.17.45-.18.45-.18l.19.13.07.25.24.33-.37.44c0,.2-.07.4-.11.61l-.33.77-.9.14-1.66-.28L122.36,41c.1-.16.2-.32.31-.47l.86-.2-1-.17h-.08c-2.88.92-5.73,1.95-8.53,3.09h0l.26.17c0,.22-.09.45-.13.69l-.12.41-.29.62.37.43-.15.37.7.06.27-.51c.07.15.14.31.2.46l.3.54.64.35.51.19.42.11c-.21.32-.42.65-.62,1l-.42.2-.5-.32V47.6l-.53-.08-1-.14s-.25-.6-.38-.45-.52.22-.39.37a2.68,2.68,0,0,1,.2.78l.58-.09s.67.12.55.27a2.39,2.39,0,0,1-.54.35l-1-.14-.47.06-.62-.16L111.5,48l-.2-.17-.55-.15c0-.11-.09-.22-.14-.34l-.46-.24c0-.11-.05-.21-.07-.32l.8-.27-.38-.33-1.55.37-2,0-.43,0c-.94.47-1.88.95-2.81,1.44l.12.19,0,.65.76-.18-.62.78c.06.24.13.48.19.72l.61-.32c.05-.33.11-.67.16-1,.2-.13.39-.27.58-.41l3.19-.27-.76-.29L107,48l-.49-.31-.71.28-.69-.37,1.53-.51,1.06.36,1.47,0,.35.64-.43.54.71.37a1.68,1.68,0,0,1,1.12.49l.21.53.7.57,1,.18.81-.07,1.52.52.71-.1c.15-.25.29-.5.44-.74l.82-.07c.12.29.24.58.37.87l.6-.12c0,.25,0,.51,0,.76l-.63.51.15,1.24h.76l-.06-.81c.45-.27.9-.54,1.36-.8l1.77-.29.89-.33-.92-.16.47-.64.93,0,1-.48-1.08-.29-.37-1a5.61,5.61,0,0,1-1.5.43l.59-.58-.66-.63.88-.13.25-.47,1-.35.09-.42,1.1-.24,1.14-.74v-.76c.16-.32.31-.64.46-1l.52-.44a5.2,5.2,0,0,1,1.55.14l.71-.23,1.77.92,1.37.67-1,.58-1.8.14-1.51-.22-1.13,0-.21.72-.94.19c0,.29,0,.59,0,.89l1,1.06.95.62.24.71-.72.08-.2-.42-.57.4c0,.12,0,.25,0,.37l-1,.29s.25.54.63.56.91.73.91.73L125.54,53l.77.22,1-.61.41-.57,1.28.07c-.05.31-.1.62-.14.94l-1.25.83L127,55l.54,1,1.52-.27,1-.93,1.69-.71,1-.1c0-.36.05-.72.08-1.07s.3-.56.46-.84l1.11.7,1.17.44c0,.27.07.55.11.83l.85.34L136,55l-.74.29.51.25-1.19.57c0,.29.08.57.11.86l.35.74-.8.81-1-.31-1.71.11-1,.33c-.07-.38-.15-.76-.22-1.13l-.84-.15c.1.45.21.91.32,1.37l-1,.12c-.16-.38-.33-.75-.49-1.11l-.85.06c0,.24,0,.48-.07.72l-1.19.6c-.09-.35-.18-.7-.26-1l-2-.49-1.24.27,2.34.71c.08.27.17.55.26.83l-.74.75-1.24,0c-.26-.29-.52-.59-.77-.89l-1,.25-.42,1.08-.83-.15c-.16.24-.31.49-.47.74l-1,.35-.88-.5c-.2.31-.39.62-.58.93l-1.68.15-1.63.73c0,.22,0,.45,0,.67l-1-.31.15.62-1.51.55c-.06.32-.13.65-.19,1s-.17.88-.25,1.32l1.16,0c.12.47.24.94.37,1.42l-.36,1.55,1.78.59c.3.42.6.84.89,1.27l1.36,1V74l1,.21.24,1.08,1.14.4.12.79,1.44.38L121.61,78s-1,1.68-1.18,2-.82,2.16-.82,2.16l.49,1.48,1,1.41,1.15-.37,1.59-1.51c.23-.65.47-1.3.71-1.95-.08-.2-.17-.4-.25-.61.21-.39.41-.79.61-1.19l2.38-.29,1.91-1c.28-.2.57-.39.86-.58l-.54-.57.93-.43-.21-1.2-.09-1.9-.6-.94.39-1,.93.07.39-.71,1,.22c-.07-.47-.14-.93-.2-1.39.18-.34.37-.67.56-1l1.21-.66c-.09-.34-.17-.68-.25-1l1.22.06.71.7,2,.92,1.39-.48.9.9.32.95.21,1.16,1.85.76-.82.2.74.75-.39.72-1.14,1.08,1.17,1.29c-.09.35-.17.69-.26,1l1.14.29-.24,1.3,2.22-1,1.28-.54q1-.91,1.95-1.8c.08.4.15.8.23,1.21-.14.45-.27.9-.41,1.36l.69.63-.56.81c0,.31.06.63.1.94s-.09.74-.13,1.11l.71.91-.93.7,1,.26c-.19.49-.39,1-.59,1.48l-.87-.6.33,1.71,1.06.8c-.18.29-.37.57-.56.86l1.83.43c.09.44.17.87.25,1.31l1.14-.23-.06,1h-1l-3.32.2-.43.91,2.27-.47,2.18,0,.77.85c.22.26.43.53.65.8l-.24,1.13-1.4,1.1L149,94.38l-1.63,0-1.22,1-1.86.23-1.59-.35-.57-.64-1.64-.23-1.43-1-1.19.08-1.53-.73-.94.45-1.69.85-2,.31-1.11.53-1,1.14-1.74.7,1.71,0,1.91-1.32,2.53-.52,2-.31,1.76.55c.08.35.16.71.23,1.06l-.66,1.12-.49-.19-1.29-.65L135,98l1.68.11-.61,1s-1.12.25-.76.39a16.39,16.39,0,0,1,1.48.87c0,.41-.07.81-.11,1.22l1.62,0c-.11.33-.21.67-.31,1l-.63-.53-.57.61,1.35.55c.06.4.12.8.19,1.2l-1.24.49-1.42-.72-1.09.84a3.64,3.64,0,0,0-1.11.54l-1.1-.45c-.19-.45-.37-.9-.55-1.35l1.4-.56,1.32,0L136,103l-1.64-.52h-.72s2.13-1.53,1.73-1.27a3.64,3.64,0,0,1-1.3.32l-1,.87c-.12-.28-.23-.56-.34-.84l-.68.86-.51-.77-.36,1.12-1.3.32-.9-.22-1.17.37-.8-.74-2.21,1.78c.29.4.59.8.88,1.21l.45.6-1.18.09-.72-.29c0-.29,0-.58,0-.87l-.85.64-1.25-.36-2.49.54c0,.29,0,.58,0,.86l-.82.94-1,.43-.45-.89-.7,1c.07.27.15.53.22.8-.37.41-.73.83-1.09,1.25l-.62-.82-.59-.25c.35-.37.69-.75,1-1.12l1.11-1-1.18-.48-1.12,1.65-.9,1.47.64,1.11s-1-.15-.74.12a4,4,0,0,1,.64,1.11l-.83.65.41,1-1-.15s-.59-.24-.62.17,0,1.11,0,1.11l-1.14.1-.79.94-1.42-.18-.89.19-1.06,1-.69-.3c-.36.37-.73.73-1.1,1.09l-.72.82c-.23.37-.46.74-.7,1.11.07.41.13.81.2,1.22.06.64.13,1.28.19,1.92l-.69,2.53c-.11.42-.22.84-.34,1.26l-1.17,1.74-1-2.86c-.06-.64-.13-1.28-.2-1.92l1.43-.65-1.07-.32.3-1.14.55-.75-.57-1.94-.8.36-.69-.58L98.81,117l-.63-.41L97,116.2l-.89-.38-.79-.62-.89.32.5,1c-.08.43-.16.86-.23,1.29l-.73-.45c0-.44-.09-.88-.14-1.32l-.57.17-.38.67-1.08-.47c0-.27,0-.54,0-.81L91,114.3l-1.36,0-1.44.2-1.56.56-.58-.39c-.27.38-.53.77-.79,1.16l-1.32,0L83.75,117l.41.87c-.1.41-.21.82-.31,1.23L83,120l-.59.68c0,.44-.06.88-.1,1.33l-.74,1.15c.06.4.13.79.2,1.18l-1,1.18.44,1.16c.12.37.23.74.35,1.12,0,0-.5,1.53-.23,1.79s.64.58.64.58c.16.26.32.51.47.77,0,0,.92.84.81,1.2l-.12.35,1.7-.42,1.22.31.38.72,1.06-1L88.65,130s.09-.65,2-.16.09-1.35,1-.37,1,.86,1,.86c-.2.56-.39,1.12-.58,1.68l-.9.82c-.09.38-.17.75-.26,1.13l-1,1.3c-.28-.27-1.05.19-1.05.19,0,.37,0,.74,0,1.1l-.78,1.28s-1,.59-.62.79,2.17.91,2.17.91l1.34.08.64.72,1.24.45c0,.41,0,.82,0,1.23.16.26.33.52.5.78-.22.68-.44,1.35-.65,2-.36.6-.71,1.2-1.06,1.8s-.42,1.34-.62,2c.22.78.43,1.56.65,2.34.08.44.15.88.23,1.32l.93.19,1.27.75.8-1,1.32,1c0,.33,0,.66.07,1,.29.45.57.9.85,1.35.07.61.13,1.23.2,1.84l.87-2.41.63-.37c.23-.48.47-.95.71-1.43l1.53.05.79.37,1.82-.79,1.72-.43c0,.43.07.86.1,1.29l-.92.39c-.07.34-.13.67-.2,1l-.87.68c0,.68,0,1.36,0,2l1.1-.16.12-1.58c.14-.43.28-.87.43-1.3l1.6.33-.3-1.1,1.15.54.06,1.4.65.85-.39.78,1.61-.07,1,1.41a11.55,11.55,0,0,0,2.39.84l2,.38-.63.67c.16.44.32.88.49,1.32l1.4.23-1.61,1.17,2.14.84c.33.61.67,1.21,1,1.81,0,0-.55.83-.87,1.36l-.31.53,1.32-.34,1.09,1.17-.24.69,1.41.24,1.6.45.65,1.24.9.53c.21.32.42.63.62.95.18.92.35,1.83.53,2.75l.5.88c-.07.58-.14,1.16-.2,1.74.1.22.2.43.31.65l.61.92-1.31.32.27.77-1.47.37-1.34.43-1.44.75-1.9.15,2.4.32,1-.19,1.26.18,2.23-.66.78,1.23-.27,1.14-.37.11-.51.14,2.19-.56,1.12,1.37,1.62,1.46c-.07.3-.13.6-.19.91s-.11.78-.16,1.17l1.85-.32c.22.5.43,1,.65,1.51l1.5.26,1.26.9.95,1.74,1,1.5c.16.27.32.54.49.8.49.32,1,.65,1.47,1,0,.59,0,1.18,0,1.76l-.27,1.4c-.18.46-.36.93-.53,1.39l-1.76.88-1.26.27-1.1.9-1,.5-.86,1c-.15-.31-.29-.62-.43-.93l-.63,1-.94.17s.35.78.25,1.06-1.22,2.78-1.21,2.77l-.93,1.27c0,.38-.09.76-.14,1.14l-1.77.9-1.74.88c0,.44,0,.87,0,1.31l-1.07.34s-1-1-1.08-.79l-.08.26-1.9-.46c.1.23.19.45.28.68l-1.16-.08-1.12-.25s-.38.5-.72.46-2.23,0-2.23,0l-.54,1.15c-.07.4-.13.79-.19,1.18s0,.75,0,1.12l-1.43.67-.78.89-1.11.91c.09-.4.18-.81.28-1.23l-.65-.16-.69.58-.86.33c0,.27.11.54.16.81l-1.23.59-.93.77-1-.31-1-.62-.88-.58-1.07-.82c.12-.42.23-.85.35-1.28l-.57.69.21,1.32c.21.22.43.44.65.65,0,.2.08.4.11.6l.59,1-.54.65-.86.67-1.39-.06-2-.61-.84-.09-.47-.42-.25.29.46.48c-.14.3-.28.6-.43.9l-.5.7-1.31-.49-.63-.92-.37.54.66.62c0,.18-.1.35-.16.53l.6.29s.47.47.35.64-.54.16-.54.16l-.58-.36-.67.48c-.06.26-.12.52-.17.78h-.62c.16.2.31.4.47.59l-1-.15-.94.43c-.06.23-.11.47-.15.7l.87.65.48.36-.06,1-1.21-.13-.73.61c.28.42-.43.77-.43.77l-.57-.7a3.62,3.62,0,0,0-.22.32l.18.51c-.17.19-.34.37-.52.55l.69.53c0,.2,0,.39.08.59l-.49-.15-.7-.21,1.28.88.18.85c.46.33.92.66,1.38,1l1.19.54,1.59.21c-.07.12-.14.23-.2.35l-1-.24L93,237.2l-.59-.38-.5,0c-.06.13-.13.25-.2.37l-.39-.58-.6-.28-1-.08L89,236a2,2,0,0,0-.88-.44l-.79-.67,1.09.2c-.06-.15-.13-.29-.19-.44L87.08,234l-.87-1.06c.4-.07.22-.73.22-.73l-.57-.6c0-.2,0-.4,0-.6l.39.06-.46-.91s-.59-.15-.58-.35a3.23,3.23,0,0,1,.44-.83l.2-.2.06-1.12.33-.52s-1.64-1-1.62-1.23a3.07,3.07,0,0,1,.24-.72.39.39,0,0,1,.6,0c.28.34.64.85.64.85s.5.05.61-.12a10.07,10.07,0,0,0,.3-1.44l.37-.84,0-.85c.15-.25.31-.49.47-.74l.15-.48h-.92a2.14,2.14,0,0,1-.35-.63,1.76,1.76,0,0,1,.07-.76l1-.85-.21-1.91-.18-1.17,1.25,0c0-.43.1-.86.16-1.29l.21-.86,1.13-1.25c.16-.9.34-1.82.52-2.75.19-.31.38-.62.58-.93l-.39-.94c.27-.81.56-1.64.85-2.47.47-1.18,1-2.37,1.45-3.59.23-.63.47-1.26.72-1.91.25-1.43.52-2.89.8-4.37-.18-.38-.37-.77-.56-1.15a27.92,27.92,0,0,0-2.3-3.23l-1.38-2.15c-.22-.6-.43-1.2-.64-1.8.08-.53.15-1.06.24-1.59-.2-.52-.39-1-.58-1.57l.18-1.3c-.14-1.21-.29-2.43-.43-3.65l-1-3.06c-.49-.73-1-1.47-1.45-2.21.15-.33.31-.65.47-1-.13-.44-.26-.87-.38-1.31l1.16-.89.87-.17.3-.72-1-.37c-.14-.24-.28-.48-.41-.72l.91-.78c0-.45.08-.89.11-1.34l1.37-.2,0-1.9,1.39-.2c.09-.31.17-.61.26-.91l1.18-.71,1.31-.27-.5-1.29,1.41-1.42c.25-1,.5-2,.76-2.95l-.78-1.18.51-.83-.77-.78c0-.36,0-.73,0-1.1L94,154l-.42,1.4-1,.33-.81-1.46c-.19-.46-.39-.91-.58-1.36l-1.15-.7.06-1.44-.57-1.36c0-.29-.07-.57-.11-.86l-.71.73-.64-.72c.12-.52.24-1.05.35-1.58-.2-1.08-.4-2.17-.59-3.26.08-.28.17-.55.25-.83l-.67-.19-1.19-.85-1.09-.8c-.31-.56-.62-1.11-.92-1.67-.38-1-.75-2-1.11-3L82.2,135l-1-.1-1.09-.26L78.77,134l-1.15-1.9-1.38-.68c-.38-.63-.75-1.26-1.12-1.89l-1-1.15c-.28-.77-.57-1.53-.85-2.29s-.57-1.52-.85-2.28l.45-1.11.79-1.1c-.21-1.79-.41-3.58-.6-5.36-.26-.87-.53-1.75-.78-2.62l-.61-.81.69-.75c-.11-.22-.21-.45-.32-.67l-.45-1.27c0-.31,0-.62,0-.93L70.92,108c0-.58,0-1.16,0-1.73L70.48,104l.54-1.21-.42-.31-1-.93c-.19.31-.37.63-.55.94.09.74.19,1.47.28,2.22l.51,1c-.12.43-.23.87-.34,1.3,0,.68.1,1.36.16,2l-.15,2c.2.48.39,1,.59,1.46-.16.59-.31,1.18-.47,1.76l.66,1.63c-.25.55-.49,1.1-.73,1.65-.07-.61-.13-1.21-.18-1.81-.25-.68-.49-1.37-.73-2l.15-2.43c-.13-.46-.26-.92-.4-1.37-.19-.26-.39-.52-.58-.79-.15-.5-.3-1-.44-1.51l.77.22c.15-.46.3-.92.46-1.37-.06-.25-.12-.49-.17-.73l.18-.84L68,104l-.21-1.52c.1-.26.19-.53.28-.79,0-.58-.08-1.16-.11-1.74s0-.85,0-1.28l-.4-.94-.85-1.38-.68-.4c0-.63.05-1.26.08-1.89l-.45-2.09.66-.37c-.13-.39-.25-.78-.38-1.16l.52-.81-.85-.2c.1-.51.19-1,.29-1.53-.07-.61-.13-1.22-.2-1.82l.89-1.17.54-2,.33-1.48c.39-.68.8-1.36,1.2-2,0,0,1.61-3.1,1.68-3.44A10.4,10.4,0,0,1,71,74.39l0-.4A113.15,113.15,0,1,0,259,196.23Zm-18.18-26.11,1.19.27-1,.81-1,.23-.63-1Zm-5.85-7.63s0,0,0,0Zm-3,3.36.71.74.87.39.6.69s-.78.63-1,.39-1.17-1.23-1.18-1.23l-.83-1.22Zm-7-8.15-.35,1c-.29.44-.58.88-.88,1.32L222.23,158c-.09-.52-.19-1-.29-1.56l.55-.34c.38.28.77.55,1.15.81Zm-3.9-9.72.42-1.12.92-.3.76-.51-.66,1.72c-.34.37-.69.74-1,1.12l-.6-.42C220.76,148,220.82,147.86,220.89,147.7Zm-1.68,3.72.12-1.39h0s.07,0,.82-.64-.82.64,1.25.13-.12,1.11-.12,1.11l-.82,1.21-.94.88-.87-.1C218.84,152.22,219,151.82,219.21,151.42ZM216.1,149c-.1.2-.19.4-.28.6l-.66-.59Zm-2.95-.31.61-.74.22-.49s.45,1.08,0,1.46l-1.23.32Zm-2.07-.5.62.14a1.91,1.91,0,0,1-1.12.37Zm36.66-23.32.81.31.52-.13-.51,1-1-.24C247.65,125.46,247.69,125.16,247.74,124.86Zm-4.53.22,1.17-.49.5.26-1,1-.79.14C243.11,125.68,243.16,125.38,243.21,125.08Zm-7.6.58-.51.59-.69-.77s-.12-.91-.19-1.36a5.44,5.44,0,0,1,1.83.21C235.9,124.77,235.76,125.21,235.61,125.66Zm21.94-25.24,1,.25-.18.77-1-.19-.48-.54Zm-2.87,0,.58.59a5,5,0,0,1-1.21-.19Zm-4.76,1.25.94.66-.48.62-1.1,0c-.08-.22-.16-.43-.23-.64ZM120.51,50.52l-.46.38L119,50.73l-.8,0-.51-.46,0-.5-.76.11-.4-.48a.78.78,0,0,1,.14-.4l.79.09.48-.62.74.14.35-.33.69.42.52.33.33.46-.45.69Zm3.91-7.78-1-.07c.2.15.61.25.74.39s-.06.62-.06.62l-.59.19s-.43-.38-.55-.25,0,.55,0,.55l.37.26L123,45l.73-.15s.54,0,.42.1l-.56.65-.54.55h-.94l-.47-.35-.82.37-.74.27-.69-.29-.09-.6s-.13-.43-.3-.53a2.61,2.61,0,0,1-.45-.73l-.61,0-.81-.58c.09-.29.19-.58.28-.86l.89.22c.06.17.12.35.19.53a2.5,2.5,0,0,1,.8,0,2.41,2.41,0,0,0,.82,0c0-.17.08-.34.13-.51l-.64-.32a.73.73,0,0,1,.45-.47,7.75,7.75,0,0,1,1.1-.1s.31.38.52.43a.75.75,0,0,0,.48-.15c0-.09-.05-.18-.08-.27l1,.08a4,4,0,0,0,.79-.12,1.07,1.07,0,0,1,.63,0ZM127.88,65l-1.52-.19-.91-.29a3.37,3.37,0,0,1,.19-.32l.68.22.76-.36,1.52-.12c.08.13.16.25.23.38Zm1.71-1.64a9.53,9.53,0,0,0-1.55-.73c-.27,0,.72-.44.72-.44,0-.18-.08-.37-.11-.55l-1.06.1L126.18,63l-.91-.29.46-.75-1,.29c0-.28.1-.56.16-.84l1.4-.52a8,8,0,0,0,.73-1.16c0-.2.42-.51.61-.67s.37.26.37.26c.13.23.25.46.37.69l.76.23,0,.67.68.81c0,.28-.05.57-.08.86l1.3.42-1.18,1.2C129.8,63.87,129.7,63.59,129.59,63.31Zm2,3.72-.72.46-.32-.57.46-.32.88-.4ZM104,129.74l.31.07.21.52-.29.43-.54-.52Zm-5.84,2.72a2,2,0,0,1-.69.32l-.63-.22a1,1,0,0,1,.56-.31l.09-.44c.06-.17.11-.33.17-.49l.58.55S98.23,132.31,98.11,132.46Zm4.74,9.11-.43-.48-.39.38-.6-.35-.62-.49c0-.22,0-.43,0-.65l-.37-.24.07-.39.79.16.63.08c0,.14,0,.27,0,.41l.78.22.38.81Zm-.39-3.62c0-.16,0-.33,0-.5l.56-.09c0-.22.07-.44.1-.66l-.58-.41c-.12-.28-.24-.57-.35-.86s0-.53,0-.8l-1.21-.48-.47-1.26-1-1-.21-.52-1-.54-1,.31-.57.16-.83-.38.48-.27,0-.62.62-.13,1.12-.06.64.22.58.19.06.38.61.13.74.48,1.14.86c.06.25.13.49.2.73l1.72,1.84c0,.25.08.5.13.76l.45.2c0,.31.1.61.14.92H105l.38.59-.22.26c.15.2.29.41.44.62l.76.49c-.1.16-.2.33-.31.49l-.57.3-1.25-.78Zm9.47,6.92-1-.53-.46.35-.77-.49-.45-.63-.36.82-.51-.09c0-.22,0-.43,0-.65l-1.86-1-1.26-.58a5.83,5.83,0,0,1-.11-.82l.62-.07.09.68.9.12.73-.37.49-.62-.58-.83.52.24.48.36.41.54.56-.24,1,.3.24.46.48.36c.11.28.21.56.31.84l.78.49.52.81c0,.23.07.45.1.68Zm2.75,2-.76-.35c-.18-.08,0-.33,0-.33l-.24-.67.61.2.89.4.26.4Zm1.88,14.78-.63.06c-.36,0,.1-.5.1-.5.06-.23.11-.45.17-.68l.7.32C116.79,161.15,116.67,161.42,116.56,161.68Zm-38.83-.27s-.87-.09-1-.64l.46-.51c0-.31-.08-.62-.11-.94.22.46.45.91.67,1.37ZM205.22,92.2c0-.31,0-.61,0-.92l-2.56-1.38,1.67-.19-1.64-1.49,1.42-.28,1.2-.77-1.49.13-1.43-.36,1.45-.66H205l0-.9.75.57.27,1.65,1,.58,1.17-.38,1.86.95,2.16.57,1.23-.22,1,1.88c-.16.48-.32,1-.49,1.46,0,0,.8,1.41.28,1.31a17.9,17.9,0,0,0-2.22-.09L209.32,93l-.88-.26-1,.72Zm5.3,28.68-2,.25-.79-.79-.56-1,1.83-.31c.18-.4.35-.79.52-1.19l-1.14-1,1.48-.47c.14-.31.27-.63.41-.94l1.31.88L213,115.3c0-.17.05-.35.08-.52.42.33.84.66,1.25,1l-.09.52.51,1.09a12,12,0,0,1-1.95.94l.26.69c-.21.48-.42,1-.62,1.43Zm11.18,5.37-1.45-.11,0,.7-1.28-.18-1.14-.53-1.44.48-1.09-.66-1.07.23-1.5-.7-1.64.55c0-.34,0-.67,0-1l2.64-1.24L215.4,125l.76-.8-.68-.32-1-.31-1.1-.65c0-.22.1-.44.14-.65l1.2.12c.1-.24.21-.47.31-.71l-.75-.5,1.18-.16c-.17-.36-.33-.73-.5-1.09l1,.31.48.8,1.16-.45c.08-.39.16-.78.23-1.17-.19-.29-.39-.57-.59-.85l.6-.43-.72-.9-1.24,0,.43-1.63c.16-.26.31-.52.47-.77l-.94-.72.85,0c-.1-.32-.19-.65-.28-1a10.89,10.89,0,0,1-.11-2l.68,1c.51.1.58-.71.58-.71l1.39-1.29,1.74.13c0,.41,0,.83,0,1.25l-1.15.43.88.84,1,.77c-.22.31-.45.62-.67.94l-.73,1-.88.43.73,1.19c.1.52.19,1,.29,1.55s.42,1.15.62,1.72c0,.5-.07,1-.11,1.51l.7.9-.71.38.75.78.63.73Zm-5.5-16.87.8-.87.51,1.07-.76.48Zm8.38.38s-.32-.84-.06-1.13l.47-.46c.11.47.23.94.35,1.41ZM145.79,48.37c0,.17.23.54.23.54,0,.27-.09.53-.13.8l-.6.08-.9-.25-.82-.11-1.08.25-.3-.33-1.08-.12c0-.16-.05-.33-.08-.5,0,0,.23-.3.19-.48s.56-.15.56-.15l.88-.46h.89l.56.21a12.19,12.19,0,0,0,1.22,0A.45.45,0,0,1,145.79,48.37Zm-9.68-8.46c.18-.09.55.22.55.22l-.06.31-.4.24-.62-.33-.24-.1C135.1,40.15,135.92,40,136.11,39.91Zm-6.14-.8.54-.11.61.22.72-.11.94.07.71.29.19.23-.86.17h-.92l-.56-.36-1.22-.13-.44-.14Zm-1.22,3.83-.48.14c-.06-.08-.12-.17-.19-.25h-.61l-.12-.24s-.11-.34-.39-.4-.2-.15-.2-.15l-.31,0a1.82,1.82,0,0,1,.39-.41c.19-.11.49.11.49.11l.6-.36,1.06,0,.51.27c0,.22,0,.44.05.67Zm2,1.08c0-.11,0-.21,0-.32l.84-.74.73-.7c-.11-.29-.22-.56-.33-.83l-.72-.32L131,41l-.47.14-.4-.29-.93-.26-.25-.34c0-.22.05-.44.07-.65l.85-.09L131,40l1,.27c.06.16.13.32.2.48l1.52.11.78.61.2-.39.23-.14.46.06c-.05.16-.1.33-.14.5l-.75,0,.64.6-1.36.08a1.13,1.13,0,0,0,.62.35c.32,0,.93.12.88.27s.9.73.9.73l1.7.05,2.13.27,1.13.22,1.27.37.8.21.36.52.85.06.81.87-.37.24-1,.13-.37.35-2.83-.68c-.07-.14-.14-.27-.22-.4l-.73.26-1.57-.35-.83-.38-1.12-.34-.36-.09-.5,0-1-.14.06-.58-.8.12-.48.16-1.22-.2a2.61,2.61,0,0,0-.28-.17Zm7.87,50.9s.06-.34.09-.6l1.79,1.34.87,1.27-.18.58-1-.58-.91-.55.21-.65Zm2.53,9.49a4.56,4.56,0,0,0-1,0c-.32.06.44-.77.44-.77l1-.37.25.3Zm.33-2.22-1.24,1-.78,1.09-.59-.42a12.88,12.88,0,0,1,.33-1.38l.7-.47,1.38-.47,1.3.15c0,.2.07.4.11.6Zm11.68,2.58c-.2.43-.39.85-.58,1.28l-.86-.07c-.1-.2-.21-.4-.32-.6l-.83-.34.86-.6c-.19-.3-.38-.6-.58-.9l-1.8.5c.14-.23.28-.46.41-.69l0-.57-1.52-.34-1.78-.81-.8-.61-1.2.27a7.44,7.44,0,0,1-.14-1.18l1.19-.27-.21-1,1.24-.15c.06-.19.11-.39.17-.58l1.42-.73c.17-.46.35-.91.53-1.36l1.31-.49,1.51.32-.5.45-1,.25-.49.63c-.21.38-.42.76-.62,1.14a6.52,6.52,0,0,1,1.22.12c.24.1-.51.45-.51.45l.4.62,2.24.91c-.11.39-.22.78-.34,1.17a5.78,5.78,0,0,0,1.17.47c.28,0-.35,1-.35,1l1,.13-.83,1.18ZM157.32,67l-.65-.38h-.87c0,.36-.08.73-.13,1.11,0,0-1-.75-1.23-.89s.21,1,.21,1l-1.06.73s-.58-.52-.85-.54.48-.53.48-.53a4.23,4.23,0,0,0-1.13-.54c-.35,0,.22-.39.22-.39l-.45-.38s-1-.57-1-.79a4.1,4.1,0,0,0-.28-1,1.49,1.49,0,0,1-.73.13c-.24-.08.07.86.07.86l-.72-.39c-.36-.2-.55,0-.55,0,.16.22.31.45.46.68s.29.61.43.91l.22.46c.12.41.25.81.37,1.22h.94l-.15,1-.72.46c0,.37,0,.75.05,1.13,0,0-.88-1-1.08-1.17a.72.72,0,0,0-.55,0l-.81-.6-.67.17-.57-.51c-.38-.22-.77-.43-1.16-.64l.51,1c.15.29.31.58.47.87l.84.54c0,.28-.05.57-.08.85l1.4.42L148,72.85c-.18-.26-.36-.51-.55-.76L146,71.48l-1.29-.77-1.46-.27-1.34-.15-.82-1.07.59.12.78,0-1.24-.82c.06-.37.11-.75.16-1.12l-.79-.42c0-.3-.09-.6-.14-.9l-1.18-.85.09.8-1,0-.09-.34h-.46l-1.24,0-1.28-.19-.59-.73.62-.11c0-.16.07-.33.1-.49l.46-.15.45-.76.31.1.59.27.35.19,1.15-.08,1.53.73,2.09.09c-.21-.7-.42-1.4-.63-2.08.11-.09.22-.18.34-.26l1-.33.49-.35.82.19.21-.66.42-.38.6-.38c0-.31,0-.62,0-.93l-.48-.58a2.8,2.8,0,0,1,.64-.57c.26-.13-.48-.71-.48-.71l-1.37.27-.55-.45a4.27,4.27,0,0,0,.83-.57c.11-.17-.82-.45-1.12-.41s.49-.47.75-.45.37-.57.37-.57l-.83,0-.62-.59c0-.25.09-.5.14-.75,0,0-1-.9-1.3-.91s0,.52,0,.73-1.14.07-1.14.07l-.3-.62L139,52.78l-.45.26c0,.33,0,.66,0,1l-.75-.23c0-.22-.05-.45-.08-.68l-.78-.94c0,.45.09.89.14,1.35l-1-.83-1-.22L134.2,52l-.52-.15s-.86,0-1.12,0,.09-.62.09-.62l-.51-.39-.62-.11-.29-.46c-.08-.21-.16-.42-.23-.62l.77-.1-.62-.23s-.76-.27-1-.32.39-.39.39-.39-.46-.54-.67-.6.09-.45.09-.45l1.19-.39,1.23-.66,1.34-.68,1.53.17,1.41.31,1.65.26.61.33h-1.32l-1.54,0-.68.52-.86.66c-.07.24-.13.48-.2.72l.09.57-1.08.38,1.11.06.58.66c0-.14,0-.29.05-.43l.37-.38-.18-.24s-.28-.44-.17-.59.48-.17.48-.17l.81.22.45-.36s-.47-.19-.77-.27-.21-.53-.21-.53a8.05,8.05,0,0,1,1.07,0c.41,0,.27-.34.27-.34a7.4,7.4,0,0,1,1.14-.21c.37,0,1.07,0,1.07,0l1.07-.12,1,.39a2.1,2.1,0,0,1-.26.57,1,1,0,0,1-.56.26l-.59.32a1.39,1.39,0,0,0,.22.66c.18.23-.26.35-.26.35l-.56.52a2.57,2.57,0,0,0,.63.49c.23.06.26-.49.26-.49l.64-.37.63.36.37.23-.4.44.49.45.41-.32.55-.4.61.54.52-.22-.57-.47-.12-.46,1.2.09.53.39.92.76,1.66.23.49.2c.06.14.11.29.17.43v.38c0,.19,0,.38,0,.57l-.41.2-.71.38.88.19a1.47,1.47,0,0,0,.7.34l.64-.13c0,.22,0,.44,0,.66l.95,0s.48.54.26.74a8.08,8.08,0,0,1-.7.52,1.35,1.35,0,0,0,1,.12l.95-.18.56.58-.41.21c0,.26.05.52.08.78l.9-.26c.17.18.33.37.49.56-.12.31-.25.61-.37.92l-.48-.29-.64.29.76.59c.11.23.23.45.34.68l-.5-.1-1-.24.13.4-.69.06-.37.31,1.18.38c.05.16.11.33.17.49l.47.81c0,.15.07.31.1.47l.94.17.75.17c-.05.21-.11.41-.16.61l.54-.11.33.41-.27.65a3.49,3.49,0,0,0,1,.2c.31,0,.26.38.26.38l.27.55,1.2-.27.45,1.07,0,.46Zm-16.68-8.25c.32-.33.65-.65,1-1l.81.18c0,.22.09.44.13.67-.24.23-.48.46-.71.7l-1,0Zm2.77.44.49-.2.36.33-.5.34Zm25.46,23.08s-.21-1.79-.19-2-1.19-1-1.43-1.06-.12-1.73-.12-1.73l-.3-1.35,1.74-.74s-1.3-.32-1.62-.44.71-.64.71-.64-.5-.75-.89-.73.23-.64.23-.64-.22-.89-.43-1-.23-.88-.23-.88,1-.65,1.32-.86-.43-.47-.84-.77.7-.61,1.05-.71a2.44,2.44,0,0,0,.74-.51l1.1-.06,1.81.42c.18-.42.37-.84.56-1.25l1.07.15-.21-1.06.76-.7L172.59,65l-.81-.28a12.28,12.28,0,0,0-1.06-1.4c-.21-.15.2.51.2.51.09.54.17,1.09.26,1.64l-.2.38-1.87.09s-1.21-.8-1.41-1,.57-.17.57-.17-.67-.53-1-.7,1-.55,1-.55c.18-.23.37-.46.56-.68,0,0,.84.21,1.08.3s-.35-.41-.35-.41c-.06-.29-.13-.58-.19-.86l1.08.29,1.37.62,1.14.91,1.08.31,1.38-1-1.68-.95s-1.49-.94-1.73-1-.66-.86-.66-.86l-.81.43s-.85-.36-1.08-.44.54-.8.54-.8c.17-.36.35-.71.52-1.07l1.15.32s.4-.55.23-.75a6.59,6.59,0,0,1-.31-1.58l-.58-.77.82-.27-.67-1.24-.88-.85-.21-.87L168.92,52l-.77-1-1.6-1-.39-.12h-1l-.39-.52-1.52-.21-1.26.11c0-.19.07-.37.1-.56l-1-.44-.78.47c0-.18-.05-.36-.08-.54l-.47-.25-.56.94-.67-.48-1.14-.2c-.09-.16-.19-.32-.29-.48l.58-.3-.83-.23-.21-.34c-.1-.15-.19-.31-.29-.47l-.32-.52.85.06.4.55.9.13-.42-.28,1.47,0,1.1.24,1.72.25.36.27.61.16c.06-.13.12-.26.19-.39l-1-.38s-1.95-.31-2.25-.28.12-.41.12-.41l-.32-.3-.55.51-.9-.14-.61-.38-.39-.31-.48-.55-.51-.6,1-.19.63.1,1.81.32,1.64.21,1.29.08.94.3,1.49.18,1.33,0,.29-.39h.44l.48-.53-1-.36-.57.16-.7-.14-.2-.45-.92-.08-.35-.24.34-.21.37-.24.86.16,4.82.25.92.33.74-.63,1.24,0c.12.27.25.54.38.82.11-.23.22-.46.32-.69l3.74.67L181,44c.05.22.11.45.16.69v1l1.18-.29a25.34,25.34,0,0,1,2.5,1.5c.15.2.11-.61.11-.61l.67-.33c.16-.31.33-.62.5-.93,0,0,1.47.67,2,.87s.83,1.6.83,1.6c.28.35.55.71.83,1.07l3,.41-1.6-.79-.18-.08c-.32-.34-.65-.67-1-1s-.34-.63-.52-.94l2.25.34,1.78.37q.38-.35.75-.66l1.21.09,1.42.53.15.67,1.83,0,1.69-.28,1.86.41s4.49,1.57,4.77,1.56,3.41,1.29,3.41,1.29q2.31.92,4.6,1.86l-1.75.08,1,.46,1-.05,1.05.25.39.73-1.4.09,1.26.21,1.38.33.43.64,1.54.57,1,.88-2.18,0-.95-.48-1.65-.37-1.13-.48c-1.53-.56-3.05-1.1-4.58-1.64l-1.72-.78-1.86-.11-1.68-.28-.57.22,2.1.36,2.1.37,1.3.52,3.28.93c-.13.23-.27.47-.42.7l2.74.95.4-.47,1.28.17a7.85,7.85,0,0,1,1.32.68l-1,.51-3.07,0L217,58s1.79,0,2.07,0a7.21,7.21,0,0,1,1.7.22,4.66,4.66,0,0,1,1,.88l1.59-.13s1.44.38,1.69.42A18,18,0,0,1,227,60.64l2.05,1c-.05.2-.1.4-.16.6l-2.3,0-1.39-.51L223,61.14c.67.4,1.34.8,2,1.21l-1.18.45-1.41-.71s-2.36-1.22-2.55-1.42-.48.47-.65.66,1.26.24,1.26.24l2,1.36-1,.55L220.09,63l-.58.92s-1.29.23-1.6.31,0,.63.23.72-.24.53-.24.53-.62.38-.31.51a16.13,16.13,0,0,1,1.45.88c-.06.54-.11,1.09-.17,1.64l-1.08-.88a10.44,10.44,0,0,0-1.85-.62c-.29,0,.49.77.49.77l0,1.61c-.09.33-.17.67-.26,1,0,0-.67-.36-.88-.52s-.26,1-.26,1l1.53.94-1.11.43-1.24-1-1.44.07,1.09.91.15.52-1.86,0-.78.29c.08.36.17.73.26,1.1l-.84,1-1-1.28s.3,1.44.53,1.54.22,1.43.13,1.63a9,9,0,0,0-.14,1.37,23.61,23.61,0,0,1-2.17-1.48,10.67,10.67,0,0,1-.55-1.73l-1.5-.46c-.21.33-.42.66-.64,1l-2.15.14s1.37,1,1.7.86,1.86.3,2,.13S209,78.24,209,78.24l-2.53.78-2-.44-1,.31-.91-.3-1.68.52-3.34-.88-1.79-.09-1-1.31c-.23.64-.47,1.27-.7,1.92l-3.32,0-2.26,1.49-.41-.58-1.49.48L186.1,79s-2.14-.44-2.55-.6a.49.49,0,0,0-.61.26l-1.25.17c.09.36.17.73.25,1.1a8.74,8.74,0,0,0-1.18,1.46c0,.25-2.25.81-2.25.81l-1.95,1.62-1.76,1.2c.13.43.25.86.38,1.29a13.68,13.68,0,0,1-1.57.6c-.31,0-.45-1.32-.45-1.32l-1.54-.7-.27-1.49-1.94.36ZM217.16,230.8a6.77,6.77,0,0,1-.62,1.06l-.9.37s.29-.68.09-.5-.84.89-.84.89l-1,.55c-.65.35-1.31.69-2,1l-1.37.46c-.71.39-1.43.76-2.14,1.12l-1.75.53-1.4,0-.35-.48c.19-.25.39-.5.58-.76,0-.2,0-.41,0-.61l1.46-.76,1.37-.48.77-.15c0-.24-.07-.48-.11-.73l.69-.69.71-.19,1.34-.33,1-.19.91.23.49-.17.84-.32,1.05-.35c.41-.28.82-.57,1.22-.87l.48.29A7.16,7.16,0,0,0,217.16,230.8Z"/><path class="cls-2" d="M259.91,104.74l1-.48-.3-.73-.38.08C260.12,104,260,104.36,259.91,104.74Z"/><path class="cls-2" d="M264,113.52c.13.58.25,1.16.38,1.74l-.37.42.42.39-.18.61.74.73c.09.28.17.55.25.82-.11.3-.22.6-.34.89-.13.71-.27,1.41-.41,2.12l.39-.22c.08.2.15.4.22.6s-.09.43-.14.64l1.12,1.11.47,0,.24-1c0-.07,0-.14,0-.21s-.31-.39-.46-.58l-.06-.76.16-.14c-.47-1.85-1-3.68-1.53-5.51h0A17,17,0,0,1,264,113.52Z"/><path class="cls-3" d="M234.82,162.21l0,0S234.82,162.21,234.82,162.21Z"/><path class="cls-3" d="M73,72.07l-.09-.2-.71.77.63.44C72.89,72.74,72.94,72.4,73,72.07Z"/><path class="cls-1" d="M135.4,41l-.46-.06-.23.14-.2.39.75,0C135.3,41.31,135.35,41.14,135.4,41Z"/><path class="cls-1" d="M135.58,40.35l.62.33.4-.24.06-.31s-.37-.31-.55-.22-1,.24-.77.34Z"/><path class="cls-1" d="M129.41,38.85l.78-.1.94.07.73,0,0-.57s0-.35-.27-.35-.35-.06-.58-.11l-1.32.32c0,.09,0,.2-.21.16a.69.69,0,0,1-.18-.06l-.1,0C129.19,38.37,129.41,38.85,129.41,38.85Z"/><path class="cls-1" d="M266.3,121.66c.15.19.3.39.46.58l-.36-1.48-.16.14Z"/><path class="cls-1" d="M259.52,102.67l-.52-.25-1,.36c-.22-.28-.44-.55-.65-.83l-.83-.68c.06.25.12.49.17.74s.19.61.28.92l-.82-1c-.07.23-.14.47-.22.7l-.41-.11c.07-.26.15-.51.23-.76l-.53.33c0-.16,0-.32-.05-.48l-1.1.58c0-.34-.08-.69-.13-1l-.39.41c.12.26.23.52.35.77l-.71-.15-.66-.12c-.28.38-.57.75-.85,1.12l-1.46.22.24.45.74.1-.85.49L250,105l-.45-1.29c-.14.23-.27.46-.4.69s-.17.56-.26.83l-2.22.36-.61.46.18.62L244,107c0,.21,0,.42-.07.63l-.8-.5-2.8,1.33c0,.16,0,.33,0,.49l1.27-.33-.94.91-1.18-.21.18-.91L239,108l-.69-.36c0,.17-.05.33-.08.5s.15.26.23.38l-1,.21-.9-.33c0,.24.07.48.1.72l-.9.29-.47-.44-.44.45.65.47-1.2.07-.81-.75-.39.48.79.47-1,0s-.24.56-.08.65.88.57.88.57l.68.07.21.45L233,111.5l-.73-.3c-.14.32-.27.64-.4,1l.74.58s-.58.74-.37.71,1.81-.4,1.81-.4l-.84.61-.61.66-1-.21-.56.07c.06.22.13.43.19.65l1.2.11-.44.89s-.9,0-.81.22a4,4,0,0,1,0,1l.89.52c.09.2.18.41.26.61a22.19,22.19,0,0,1,3.06-.34l.65.61,1.45-.57L237,119l.39,1-.54.84c.15.86.29,1.72.43,2.58l-.43.56c-.17.56-.35,1.13-.53,1.69l.94.62.92-.1-.09-.67,1-.32,1.13.57.71.23.91-1-.8.28c.14-.23.28-.46.41-.69l1-1.27.52-1.39.94-.06c.14.2.29.39.43.58l1.17-.48-.36-.61.9-.13c.08-.33.15-.65.23-1l-.24-.6,0-.67-.44-.38-.69-.09c.25-.73.51-1.45.77-2.18l.59-.56.33-1.11s.06-.3.48-.14l.42.16.33-.82.8.1.41-.58,1.28.51,1.4-.55c.12-.27.24-.53.37-.79s.19-.6.29-.89l1-.43.86-.3.73.49.95.49c.16.27.32.53.47.8-.11.15-.23.3-.34.46s0,.35,0,.53l-.61.11-.4,0c-.22.34-.43.68-.64,1l-1.13.68s-1.53.21-1.74.29a1.37,1.37,0,0,0-.39.25c-.09.22-.18.44-.26.66-.08.43-.16.86-.23,1.29l-.6.88c-.07.39-.15.78-.23,1.16l.72.54.39,1-.8,0c-.07.21-.14.42-.2.63l.45.46s.51-.67.49-.48a7.85,7.85,0,0,0,.08.93l1.46.07,1-.44,1.14.65,1,.05c-.07.17-.14.33-.2.5.19.35.37.71.56,1.07l.62.36.56.79-1.34-.63-.85.19-.58.08-.6-.61-.59-.2-.11.41-1.11-.89-1.26-.15-.8,0c-.18.47-.36.95-.53,1.42l.47.12-.52.69-.44.51c0,.29,0,.57,0,.86l-1.29.14c0-.31,0-.61,0-.92s.07-.47.11-.7l-1.34.11-1,1.35-.94,1.38-.12.71-.73.32.24-.86-.91.44-.17.68-1,.7c0-.14-.09-.28-.13-.42h-1c0-.27,0-.54-.08-.81l.55.42V130l-.83-.22-.88.33-3-.74L235,127.73l-.57.29-.71-.14-.46.33c-.07-.24-.13-.49-.2-.73l-.56-.64-.06-1.51.57-.28-.4-.27.81-1,1-.92.35.53.48-.53-.57-.78c.16-.27.32-.54.47-.81-.12-.16-.25-.31-.38-.47h.58l.25-.29.27-.63-.94.08-.45.61-1.07-.53-.9.6c.14.13,1.07-.24,1.07-.24l.51.33c0,.22-.05.43-.08.65l-.79,0-.6.19-.47-.58c-.16.38-.32.77-.49,1.16l.52.46-.65.46c-.07.29-.13.59-.19.89l.4.27-.19.61-.37.1.23.68,0,.34-.63.4c.07.25.14.49.2.74a2.65,2.65,0,0,1-.64-.32c0,.29-.08.58-.11.87l-.5-.67-.72.15-.17.55-.35,0c0-.26,0-.52,0-.78l-.79-.31-.46-.3-1.3.23-1.23.55c-.2.31-.4.62-.61.93l-.81.47-1.16-.56-2.19-.1c-.06.4-.13.81-.19,1.21l-1.64.17-.77.5-1.19-.55,0-.86-.65-.08-.51,1.93-1.65-.33-.21-.46-2-.57-.37.84.94.87c.09.43.18.85.26,1.28l.65-.21.27,1.43s-.86.84-.69.92a14.84,14.84,0,0,1,1.12,1.83l-.78,2.34-1,1.24-1.76-.07c-.25-.26-.51-.52-.76-.79l-2-.89-2.16-1.12-.33-.51-1.25-.2-.16.37-.62-.35-1.31.22a10.35,10.35,0,0,1,.35,1.92l-.6.39c0,.52-.09,1-.13,1.56L200,141c-.48.47-.95.95-1.42,1.43-.19.31-.38.62-.56.93l.67.07-.17.37H198c.06.18.12.35.19.53l-.3,1-.85.94.73.25.42.33c0,.22.08.43.13.65l1.42,0c.12.45.25.9.37,1.34s.13.64.19,1l2.21-.13,1.88.9,1.52-.93,1.57,0,.64-.95,1.61-.67-.24-1.13,2.27-1.24,3.38-.88L216,143l1.36-.18,1.55,1.3,2.08.09,2-.69,1.32,1.7c-.12,1.22-.24,2.44-.37,3.66l.57,1.56,1.2,1.28c.32,1,.63,1.93.94,2.88-.12.57-.23,1.14-.35,1.7l-1.2,1.47c.13.16.27.31.41.47l2.29-1.68c0-.58,0-1.17.08-1.75l.8-.64.61,1.36.73-.38c-.25-.55-.52-1.1-.78-1.65l-.86-1.26.51-.55-1.39-1.23c-.09-1.17-.19-2.34-.29-3.52-.26-.46-.52-.92-.79-1.38l1-1.13c0-.34.09-.68.14-1l1.61.4-.64.71-.3,1.23.84-.18.9-.87,0,1.06c-.18.66-.35,1.32-.53,2q1.6,2.73,3.12,5.41l-.57.95-.63.7c.06.56.13,1.11.2,1.67s.12,1.39.17,2.08c-.09.33-.19.67-.29,1l1,.74c.08.34.16.68.23,1l-.58-1h-.79c-.14.6-.29,1.2-.43,1.79l1.1.72,1-.41.44-.79.75.42.74.2c-.08-.07-.23-.4-.3-2l-.1-2.18.51-1.33c0,.47.07.94.11,1.41l1.21-.29c0-.33,0-.66,0-1l2.05,1s.32.57.24.75-.69.45-.69.45l1.61-.3,1.79-.14c-.14-.44-.27-.88-.41-1.32l.15-1.2,1.3-1.07c.43-.42.86-.85,1.28-1.28l1.62-1.67s1.59-1.39,1.56-1.19,1.11.49,1.11.49c.1.45.19.89.28,1.34h.83l.21.74-1.54.13.6,1.08-.6,1,2.1-.07,1.19.32.37-.58-1.29-.58c.07-.22.13-.45.2-.67,0,0-.45-1.63-.37-1.45a10.59,10.59,0,0,0,1.07,1.11l2.53-.58a10.53,10.53,0,0,1,1.71.48l-2,.35c0,.33,0,.65,0,1l-1.69.73c0,.17,0,.35.07.52.19.63.38,1.26.56,1.88s.37,1.39.55,2.08c.23.39.46.78.68,1.17l-.33,1.48-1.75.87-.54-.61-1.55-.48-1.33-1.83c0-.39-.07-.77-.11-1.16l-1.26-.2-1-.5-2.08.39-1.59-.47c0,.23,0,.47,0,.7l-1-.24-1.34-.22-1.2.21-.81.83.54.46c-.08.39-.17.77-.25,1.15l-.87.09c0,.38-.09.76-.13,1.14s.09.84.14,1.26.29.93.43,1.39l.83.52c0,.44,0,.88,0,1.32l.81,0,.7-.73.72,1c.15.33.31.65.46,1H243l.39.31.49.23c-.62,1.19-1.25,2.37-1.88,3.55q-1.55,1.71-3.11,3.41l-1.67-.31-1.11-.14c0-.26,0-.52-.05-.78l-1.42-.21-.39.53-1-.85-1.77-1.19-.53-.92-.74-.18.17-.56-1.7-1-.09-1-1.18-1.15-1.47.27-1.18.75c0,.39.07.78.1,1.17l-1.28.84-3-2.4c-.14-.77-.28-1.54-.43-2.31-.57-.65-1.14-1.31-1.72-2l-1-.72-1-2.23,1.29-1.08.86-1.27c0-.28,0-.57,0-.85l1.37-1.12-.77-.42-.5-1-1.33.2L215.9,155l-.58.39c0-.3-.07-.61-.1-.91l-.78.23-2.82-1.4-.92.24-1.37-1-2.62.51-1.28-.34-.93.53h-1c-.07-.25-.14-.5-.2-.75l-1,.1-.72-.54L201,152l-.42-.77c0-.24,0-.47,0-.71l-.44-.12-.94.54-1.82,1.84-2.68.51-1.42.33L192,155.05l-.78,1.56c-.08.43-.15.86-.23,1.28l-2.09,1.5-3.82,1.26-2.59,1.21c-1.26,1.15-2.51,2.29-3.75,3.44L176.57,167l-.8,1.3c.08.46.15.92.23,1.37l-.61.87c-.14.72-.27,1.44-.41,2.15l-2.12,3.43-1.88,1.7c-.2,1.26-.4,2.52-.6,3.76.24.42.49.83.73,1.24q.34,1.48.69,2.94c0,1.44-.07,2.87-.11,4.27.3.7.59,1.4.88,2.09l1.06,1.93,1.28,2.5,3.16-.29,1.75.92.63.67s2.92-.13,3.13-.05,2.58.6,2.58.6l2.57-.27,1.39.95s.55,1.31.41,1.44-.51.47-.51.47c.13.4.27.79.41,1.18l2.67.55c.1.7.2,1.38.29,2.06-.85,1.05-1.7,2.07-2.54,3.09l-1.48,1.45,1.13,3.07a13.91,13.91,0,0,1,.06,1.78c-.06.22-.69,3.59-.7,3.56l-.61.4-.5.73c-.13.47-.26.95-.4,1.41l-.73.72-1.67.75-2.41,1.71-.92,1.5q.25.53.51,1l-.3.89c0,.59,0,1.16,0,1.71-.66,1-1.31,1.95-2,2.83-.09.36-.19.71-.28,1l.4.35c0,.37-.1.73-.16,1.07s-.17.84-.26,1.23c0,0-1,.28-1,.32s-.44.71-.44.71l1,.41,1.74.06,1.92.2,1.14.29,2.83-.08c1.62-.33,3.27-.68,4.94-1.06l.75-.09c.74-.39,1.48-.8,2.23-1.24a1.1,1.1,0,0,1,0-.18l1.4-.18,1.8,0c.48-.43,1-.87,1.45-1.34.29-.5.58-1,.87-1.55l1.64-.32.81-.39.93.13,3-.3c.55-.26,1.09-.53,1.64-.81,1.1-1,2.19-2.15,3.29-3.32-.06-.28-.12-.56-.19-.85.26-.42.51-.86.76-1.31l1.11-.68-.09-.92c.61-.46,1.23-.93,1.84-1.41l1.5-1,1.77-.35,2.41-1.42c2.05-.67,4.1-1.36,6.13-2.07l.5-.52.75-.14,2.29-1.67,2-1.81c.88-.72,1.75-1.46,2.63-2.2.55-.68,1.11-1.36,1.66-2.06l-1.74.26-.78-.38-2.22.33c-.07-.15-.14-.29-.22-.43l-1.44,0c-.11-.63-.23-1.28-.35-1.93l.69-.34.31-.72-.21-1.27c.08-.69.16-1.38.23-2.09l-.73-1.86c.43-1.07.85-2.16,1.28-3.25l-.18-2.42,1.27-2c.17-.62.35-1.24.52-1.87l-.3-1.68.6-1.47c.11-.79.21-1.59.32-2.39l.39-2.58c.1-.45.19-.91.29-1.36l.48-2.29c0,.27-.11,2.85-.12,2.85l.92-.16.61.6q-.09,1.88-.21,3.72c-.13.6-.27,1.21-.41,1.81.05.66.1,1.31.14,2L235.49,191q-.37,1.22-.75,2.4c.14.67.27,1.34.4,2l-.51,2c0,.49,0,1,0,1.48,0,0-1.19,2.75-1.33,2.88s-1.1,2.37-1.1,2.36l.09.57,1.18.3.74-.51.94.34,1.27-.26.93.1L239,204l2.45-.49.71-.88,2.72-.26.72-.69.93.22.59-.74,1.3.06c.22-.42.45-.84.68-1.26l1.21-.88,2.08-2c0-.17,0-.34,0-.5.06-.33.13-.65.2-1,0,0-.16-.88-.3-.87s-.43-.67-.43-.67c0-.54,0-1.09,0-1.64.26-.48.52-1,.77-1.46l-.34,0-.54.55-1.31.85-1.24.39-.63-.63-.68.11c-.11-.22-.23-.44-.35-.65l.67-.75.61-1.35-.72.6-.58,0,.92-1.75c-.12-.37-.23-.74-.35-1.11.09-.18.19-.35.29-.53l-.09-.82c.09-.7.17-1.4.26-2.11l.56-.88.29.39c.09-.31.19-.62.29-.93.06.2.11.4.17.6l.36,0,.31.59.43-.07c0,.38,0,.77-.05,1.15s-.23.51-.35.76q0,1.86-.06,3.66l.85,1.25,1.66-.27.53-.23c0,.33,0,.65.05,1l-.33,1c0,.35.05.7.08,1l.8.32.9.43c.09.25.19.49.28.74l1-.16.41.35,2.5.45-.37,1,.1.28c.55-1.16,1.08-2.32,1.59-3.51a112.61,112.61,0,0,0,6.26-70.27l-.24,1-.47,0L265,122.26c0-.21.1-.42.14-.64s-.14-.4-.22-.6l-.39.22c.14-.71.28-1.41.41-2.12.12-.29.23-.59.34-.89-.08-.27-.16-.54-.25-.82l-.74-.73.18-.61-.42-.39.37-.42c-.13-.58-.25-1.16-.38-1.74a17,17,0,0,0,.85,1.72h0a112.4,112.4,0,0,0-4-11l-1,.48c.1-.38.21-.76.32-1.13l.38-.08c-.13-.31-.27-.61-.41-.92-.12.19-.24.38-.37.57Z"/><path class="cls-1" d="M70.41,75.87c-.07.34-1.69,3.43-1.68,3.44-.4.67-.81,1.35-1.2,2l-.33,1.48-.54,2L65.77,86c.07.6.13,1.21.2,1.82-.1.51-.19,1-.29,1.53l.85.2-.52.81c.13.38.25.77.38,1.16l-.66.37L66.18,94c0,.63-.05,1.26-.08,1.89l.68.4.85,1.38.4.94c0,.43,0,.85,0,1.28s.07,1.16.11,1.74c-.09.26-.18.53-.28.79L68,104l.63.93-.18.84c0,.24.11.48.17.73-.16.45-.31.91-.46,1.37l-.77-.22c.14.51.29,1,.44,1.51.19.27.39.53.58.79.14.45.27.91.4,1.37l-.15,2.43c.24.68.48,1.37.73,2,0,.6.11,1.2.18,1.81.24-.55.48-1.1.73-1.65l-.66-1.63c.16-.58.31-1.17.47-1.76-.2-.49-.39-1-.59-1.46l.15-2c-.06-.68-.11-1.36-.16-2,.11-.43.22-.87.34-1.3l-.51-1c-.09-.75-.19-1.48-.28-2.22.18-.31.36-.63.55-.94l1,.93.42.31L70.48,104l.39,2.28c0,.57,0,1.15,0,1.73l.66,1.22c0,.31,0,.62,0,.93l.45,1.27c.11.22.21.45.32.67l-.69.75.61.81c.25.87.52,1.75.78,2.62.19,1.78.39,3.57.6,5.36l-.79,1.1-.45,1.11c.28.76.56,1.52.85,2.28s.57,1.52.85,2.29l1,1.15c.37.63.74,1.26,1.12,1.89l1.38.68,1.15,1.9,1.31.64,1.09.26,1,.1.88,1.37c.36,1,.73,2,1.11,3,.3.56.61,1.11.92,1.67l1.09.8,1.19.85.67.19c-.08.28-.17.55-.25.83.19,1.09.39,2.18.59,3.26-.11.53-.23,1.06-.35,1.58l.64.72.71-.73c0,.29.07.57.11.86l.57,1.36L90,152.18l1.15.7c.19.45.39.9.58,1.36l.81,1.46,1-.33L94,154l1-.74c0,.37,0,.74,0,1.1l.77.78-.51.83.78,1.18c-.26,1-.51,2-.76,2.95l-1.41,1.42.5,1.29-1.31.27-1.18.71c-.09.3-.17.6-.26.91l-1.39.2,0,1.9-1.37.2c0,.45-.07.89-.11,1.34l-.91.78c.13.24.27.48.41.72l1,.37-.3.72-.87.17-1.16.89c.12.44.25.87.38,1.31-.16.33-.32.65-.47,1,.48.74,1,1.48,1.45,2.21l1,3.06c.14,1.22.29,2.44.43,3.65l-.18,1.3c.19.53.38,1.05.58,1.57-.09.53-.16,1.06-.24,1.59.21.6.42,1.2.64,1.8l1.38,2.15a27.92,27.92,0,0,1,2.3,3.23c.19.38.38.77.56,1.15-.28,1.48-.55,2.94-.8,4.37-.25.65-.49,1.28-.72,1.91-.5,1.22-1,2.41-1.45,3.59-.29.83-.58,1.66-.85,2.47l.39.94c-.2.31-.39.62-.58.93-.18.93-.36,1.85-.52,2.75L89,214.17l-.21.86c-.06.43-.11.86-.16,1.29l-1.25,0,.18,1.17.21,1.91-1,.85a1.76,1.76,0,0,0-.07.76,2.14,2.14,0,0,0,.35.63H88l-.15.48c-.16.25-.32.49-.47.74l0,.85-.37.84a10.07,10.07,0,0,1-.3,1.44c-.11.17-.61.12-.61.12s-.36-.51-.64-.85a.39.39,0,0,0-.6,0,3.07,3.07,0,0,0-.24.72c0,.22,1.62,1.23,1.62,1.23l-.33.52-.06,1.12-.2.2a3.23,3.23,0,0,0-.44.83c0,.2.58.35.58.35l.46.91-.39-.06c0,.2,0,.4,0,.6l.57.6s.18.66-.22.73l.87,1.06,1.17.68c.06.15.13.29.19.44l-1.09-.2.79.67A2,2,0,0,1,89,236l.69.26,1,.08.6.28.39.58c.07-.12.14-.24.2-.37l.5,0,.59.38,1.49.25,1,.24c.06-.12.13-.23.2-.35l-1.59-.21-1.19-.54c-.46-.31-.92-.64-1.38-1l-.18-.85-1.28-.88.7.21.49.15c0-.2-.06-.39-.08-.59l-.69-.53c.18-.18.35-.36.52-.55l-.18-.51a3.62,3.62,0,0,1,.22-.32l.57.7s.71-.35.43-.77l.73-.61,1.21.13.06-1-.48-.36-.87-.65c0-.23.09-.47.15-.7l.94-.43,1,.15c-.16-.19-.31-.39-.47-.59h.62c0-.26.11-.52.17-.78l.67-.48.58.36s.42,0,.54-.16-.35-.64-.35-.64l-.6-.29c.06-.18.11-.35.16-.53l-.66-.62.37-.54.63.92,1.31.49.5-.7c.15-.3.29-.6.43-.9l-.46-.48.25-.29.47.42.84.09,2,.61,1.39.06.86-.67.54-.65-.59-1c0-.2-.07-.4-.11-.6-.22-.21-.44-.43-.65-.65l-.21-1.32.57-.69c-.12.43-.23.86-.35,1.28l1.07.82.88.58,1,.62,1,.31.93-.77,1.23-.59c-.05-.27-.11-.54-.16-.81l.86-.33.69-.58.65.16c-.1.42-.19.83-.28,1.23l1.11-.91.78-.89,1.43-.67c0-.37,0-.74,0-1.12s.12-.78.19-1.18l.54-1.15s1.88,0,2.23,0,.72-.46.72-.46l1.12.25,1.16.08c-.09-.23-.18-.45-.28-.68l1.9.46.08-.26c.08-.25,1.08.79,1.08.79l1.07-.34c0-.44,0-.87,0-1.31l1.74-.88,1.77-.9c0-.38.09-.76.14-1.14l.93-1.27s1.11-2.48,1.21-2.77-.25-1.06-.25-1.06l.94-.17.63-1c.14.31.28.62.43.93l.86-1,1-.5,1.1-.9,1.26-.27,1.76-.88c.17-.46.35-.93.53-1.39l.27-1.4c0-.58,0-1.17,0-1.76-.49-.31-1-.64-1.47-1-.17-.26-.33-.53-.49-.8l-1-1.5-.95-1.74-1.26-.9-1.5-.26c-.22-.5-.43-1-.65-1.51l-1.85.32c0-.39.11-.78.16-1.17s.12-.61.19-.91l-1.62-1.46-1.12-1.37-2.19.56.51-.14.37-.11.27-1.14-.78-1.23-2.23.66-1.26-.18-1,.19-2.4-.32,1.9-.15,1.44-.75,1.34-.43,1.47-.37-.27-.77,1.31-.32-.61-.92c-.11-.22-.21-.43-.31-.65.06-.58.13-1.16.2-1.74l-.5-.88c-.18-.92-.35-1.83-.53-2.75-.2-.32-.41-.63-.62-.95l-.9-.53-.65-1.24-1.6-.45-1.41-.24.24-.69-1.09-1.17-1.32.34.31-.53c.32-.53.87-1.36.87-1.36-.33-.6-.67-1.2-1-1.81l-2.14-.84,1.61-1.17-1.4-.23c-.17-.44-.33-.88-.49-1.32l.63-.67-2-.38a11.55,11.55,0,0,1-2.39-.84l-1-1.41-1.61.07.39-.78-.65-.85-.06-1.4-1.15-.54.3,1.1-1.6-.33c-.15.43-.29.87-.43,1.3l-.12,1.58-1.1.16c0-.68,0-1.36,0-2l.87-.68c.07-.33.13-.66.2-1l.92-.39c0-.43-.07-.86-.1-1.29l-1.72.43-1.82.79-.79-.37-1.53-.05c-.24.48-.48,1-.71,1.43l-.63.37-.87,2.41c-.07-.61-.13-1.23-.2-1.84-.28-.45-.56-.9-.85-1.35,0-.33,0-.66-.07-1l-1.32-1-.8,1-1.27-.75-.93-.19c-.08-.44-.15-.88-.23-1.32-.22-.78-.43-1.56-.65-2.34.2-.66.41-1.33.62-2s.7-1.2,1.06-1.8c.21-.68.43-1.35.65-2-.17-.26-.34-.52-.5-.78,0-.41,0-.82,0-1.23l-1.24-.45-.64-.72-1.34-.08s-1.75-.7-2.17-.91.62-.79.62-.79l.78-1.28c0-.36,0-.73,0-1.1,0,0,.77-.46,1.05-.19l1-1.3c.09-.38.17-.75.26-1.13l.9-.82c.19-.56.38-1.12.58-1.68,0,0,0,.11-1-.86s1,.85-1,.37-2,.16-2,.16l-1.18,2.06-1.06,1-.38-.72L84.81,132l-1.7.42.12-.35c.11-.36-.81-1.2-.81-1.2-.15-.26-.31-.51-.47-.77,0,0-.37-.31-.64-.58s.23-1.79.23-1.79c-.12-.38-.23-.75-.35-1.12l-.44-1.16,1-1.18c-.07-.39-.14-.78-.2-1.18l.74-1.15c0-.45.07-.89.1-1.33L83,120l.89-.83c.1-.41.21-.82.31-1.23l-.41-.87.21-1.27,1.32,0c.26-.39.52-.78.79-1.16l.58.39,1.56-.56,1.44-.2,1.36,0,.87,1.35c0,.27,0,.54,0,.81l1.08.47.38-.67.57-.17c0,.44.1.88.14,1.32l.73.45c.07-.43.15-.86.23-1.29l-.5-1,.89-.32.79.62.89.38,1.15.36.63.41.75,1.45.69.58.8-.36.57,1.94-.55.75-.3,1.14,1.07.32-1.43.65c.07.64.14,1.28.2,1.92l1,2.86,1.17-1.74c.12-.42.23-.84.34-1.26l.69-2.53c-.06-.64-.13-1.28-.19-1.92-.07-.41-.13-.81-.2-1.22.24-.37.47-.74.7-1.11l.72-.82c.37-.36.74-.72,1.1-1.09l.69.3,1.06-1,.89-.19,1.42.18.79-.94,1.14-.1s0-.7,0-1.11.62-.17.62-.17l1,.15-.41-1,.83-.65a4,4,0,0,0-.64-1.11c-.3-.27.74-.12.74-.12l-.64-1.11.9-1.47,1.12-1.65,1.18.48-1.11,1c-.34.37-.68.75-1,1.12l.59.25.62.82c.36-.42.72-.84,1.09-1.25-.07-.27-.15-.53-.22-.8l.7-1,.45.89,1-.43.82-.94c0-.28,0-.57,0-.86l2.49-.54,1.25.36.85-.64c0,.29,0,.58,0,.87l.72.29,1.18-.09-.45-.6c-.29-.41-.59-.81-.88-1.21l2.21-1.78.8.74,1.17-.37.9.22,1.3-.32.36-1.12.51.77.68-.86c.11.28.22.56.34.84l1-.87a3.64,3.64,0,0,0,1.3-.32c.4-.26-1.73,1.27-1.73,1.27h.72L136,103l-1.49.1-1.32,0-1.4.56c.18.45.36.9.55,1.35l1.1.45a3.64,3.64,0,0,1,1.11-.54l1.09-.84,1.42.72,1.24-.49c-.07-.4-.13-.8-.19-1.2l-1.35-.55.57-.61.63.53c.1-.33.2-.67.31-1l-1.62,0,.12-1.21a16.43,16.43,0,0,0-1.49-.88c-.36-.14.76-.39.76-.39l.61-1L135,98l.65-1.41,1.29.65.49.19.66-1.12c-.07-.35-.15-.71-.23-1.06l-1.76-.55-2,.31-2.53.52-1.91,1.32-1.71,0,1.74-.7,1-1.14,1.11-.53,2-.31,1.69-.85.94-.45,1.53.73,1.19-.08,1.43,1,1.64.23.57.64,1.59.35,1.86-.23,1.22-1,1.63,0,1.47.31,1.4-1.1.24-1.13c-.22-.27-.43-.54-.65-.8l-.77-.85-2.18,0-2.27.47.43-.91,3.32-.2h1l.06-1-1.14.23c-.08-.44-.16-.87-.25-1.31l-1.83-.43c.19-.29.38-.57.56-.86l-1.06-.8-.33-1.71.87.6c.2-.5.4-1,.59-1.48l-1-.26.93-.7-.71-.91c0-.37.09-.74.13-1.11s-.07-.63-.1-.94l.56-.81-.69-.63c.14-.46.27-.91.41-1.36-.08-.41-.15-.81-.23-1.21q-1,.89-1.95,1.8l-1.28.54-2.22,1,.24-1.3-1.14-.29c.09-.35.17-.69.26-1l-1.17-1.29,1.14-1.08.39-.72-.74-.75.82-.2-1.85-.76-.21-1.16-.32-.95-.9-.9-1.39.48-2-.92-.71-.7-1.22-.06c.08.34.16.68.25,1l-1.21.66c-.19.33-.38.66-.56,1,.06.46.13.92.2,1.39l-1-.22-.39.71-.93-.07-.39,1,.6.94.09,1.9.21,1.2-.93.43.54.57c-.29.19-.58.38-.86.58l-1.91,1-2.38.29c-.2.4-.4.8-.61,1.19.08.21.17.41.25.61-.24.65-.48,1.3-.71,1.95l-1.59,1.51-1.15.37-1-1.41-.49-1.48s.65-1.84.82-2.16,1.18-2,1.18-2l-1.22-1.07L119,76.51l-.12-.79-1.14-.4-.24-1.08-1-.21V72.56l-1.36-1c-.29-.43-.59-.85-.89-1.27l-1.78-.59.36-1.55c-.13-.48-.25-1-.37-1.42l-1.16,0c.08-.44.17-.88.25-1.32s.13-.65.19-1l1.51-.55-.15-.62,1,.31c0-.22,0-.45,0-.67l1.63-.73,1.68-.15c.19-.31.38-.62.58-.93l.88.5,1-.35c.16-.25.31-.5.47-.74l.83.15.42-1.08,1-.25c.25.3.51.6.77.89l1.24,0,.74-.75c-.09-.28-.18-.56-.26-.83l-2.34-.71,1.24-.27,2,.49c.08.34.17.69.26,1l1.19-.6c0-.24.05-.48.07-.72l.85-.06c.16.36.33.73.49,1.11l1-.12c-.11-.46-.22-.92-.32-1.37l.84.15c.07.37.15.75.22,1.13l1-.33,1.71-.11,1,.31.8-.81-.35-.74c0-.29-.07-.57-.11-.86l1.19-.57-.51-.25L136,55l.57-.64-.85-.34c0-.28-.07-.56-.11-.83l-1.17-.44-1.11-.7c-.16.28-.31.56-.46.84s-.05.71-.08,1.07l-1,.1-1.69.71-1,.93-1.52.27L127,55l.54-1.16,1.25-.83c0-.32.09-.63.14-.94L127.68,52l-.41.57-1,.61-.77-.22.72-1.36s-.52-.73-.91-.73-.63-.56-.63-.56l1-.29c0-.12,0-.25,0-.37l.57-.4.2.42.72-.08-.24-.71-.95-.62-1-1.06c0-.3,0-.6,0-.89l.94-.19.21-.72,1.13,0,1.51.22,1.8-.14,1-.58-1.37-.67-1.77-.92-.71.23a5.2,5.2,0,0,0-1.55-.14l-.52.44c-.15.32-.3.64-.46,1v.76l-1.14.74-1.1.24-.09.42-1,.35-.25.47-.88.13.66.63-.59.58a5.61,5.61,0,0,0,1.5-.43l.37,1,1.08.29-1,.48-.93,0-.47.64.92.16-.89.33-1.77.29c-.46.26-.91.53-1.36.8l.06.81h-.76l-.15-1.24.63-.51c0-.25,0-.51,0-.76l-.6.12c-.13-.29-.25-.58-.37-.87l-.82.07c-.15.24-.29.49-.44.74l-.71.1-1.52-.52-.81.07-1-.18-.7-.57-.21-.53a1.68,1.68,0,0,0-1.12-.49l-.71-.37.43-.54-.35-.64-1.47,0-1.06-.36-1.53.51.69.37.71-.28L107,48l1-.11.76.29-3.19.27c-.19.14-.38.28-.58.41-.05.33-.11.67-.16,1l-.61.32c-.06-.24-.13-.48-.19-.72l.62-.78-.76.18,0-.65-.12-.19a113.22,113.22,0,0,0-30.2,23.18l.09.1c-.1.49-.19,1-.29,1.45s0,1.11,0,1.67c-.1-.24-.21-.47-.31-.71-.28-.17-.56-.34-.83-.52l-.27-.15c-.28.31-.55.62-.82.94l0,.4A10.4,10.4,0,0,0,70.41,75.87Z"/><path class="cls-1" d="M106.08,139c.11-.16.21-.33.31-.49l-.76-.49c-.15-.21-.29-.42-.44-.62l.22-.26-.38-.59h-.61c0-.31-.09-.61-.14-.92l-.45-.2c0-.26-.09-.51-.13-.76L102,132.81c-.07-.24-.14-.48-.2-.73l-1.14-.86-.74-.48-.61-.13-.06-.38-.58-.19-.64-.22-1.12.06-.62.13,0,.62-.48.27.83.38.57-.16,1-.31,1,.54.21.52,1,1,.47,1.26,1.21.48c0,.27,0,.53,0,.8s.23.58.35.86l.58.41c0,.22-.07.44-.1.66l-.56.09c0,.17,0,.34,0,.5l1.8.54,1.25.78Z"/><path class="cls-1" d="M101.88,140c0-.14,0-.27,0-.41l-.63-.08-.79-.16-.07.39.37.24c0,.22,0,.43,0,.65l.62.49.6.35.39-.38.43.48L103,141l-.38-.81Z"/><path class="cls-1" d="M97.61,131.32c-.06.16-.11.32-.17.49l-.09.44a1,1,0,0,0-.56.31l.63.22a2,2,0,0,0,.69-.32c.12-.15.08-.59.08-.59Z"/><path class="cls-1" d="M104.47,130.33l-.21-.52-.31-.07-.31.5.54.52Z"/><path class="cls-1" d="M112.08,143.52l-.78-.49c-.1-.28-.2-.56-.31-.84l-.48-.36-.24-.46-1-.3-.56.24-.41-.54-.48-.36-.52-.24.58.83-.49.62-.73.37-.9-.12-.09-.68-.62.07a5.83,5.83,0,0,0,.11.82l1.26.58,1.86,1c0,.22,0,.43,0,.65l.51.09.36-.82.45.63.77.49.46-.35,1,.53.77.14c0-.23-.07-.45-.1-.68Z"/><path class="cls-1" d="M114.34,145.75l-.61-.2.24.67s-.23.25,0,.33l.76.35.81-.35-.26-.4Z"/><path class="cls-1" d="M116,161.24s-.46.54-.1.5.63-.05.63-.05l.34-.81-.7-.32C116.14,160.79,116.09,161,116,161.24Z"/><path class="cls-1" d="M77.23,160.26l-.46.51c.09.55,1,.64,1,.64l.06-.72c-.22-.46-.45-.91-.67-1.37C77.15,159.64,77.19,160,77.23,160.26Z"/><path class="cls-1" d="M139.33,96.38l.91.55,1,.58.18-.58-.87-1.27-1.79-1.34c0,.26-.09.6-.09.6l.88.81Z"/><path class="cls-1" d="M141.32,101.55l-1.38.47-.7.47a12.88,12.88,0,0,0-.33,1.38l.59.42.78-1.09,1.24-1,1.21.11c0-.2-.07-.4-.11-.6Z"/><path class="cls-1" d="M140.67,103.63s-.76.83-.44.77a4.56,4.56,0,0,1,1,0l.68-.85-.25-.3Z"/><path class="cls-1" d="M152.41,103s.63-1,.35-1a5.78,5.78,0,0,1-1.17-.47c.12-.39.23-.78.34-1.17l-2.24-.91-.4-.62s.75-.35.51-.45a6.52,6.52,0,0,0-1.22-.12c.2-.38.41-.76.62-1.14l.49-.63,1-.25.5-.45-1.51-.32-1.31.49c-.18.45-.36.9-.53,1.36l-1.42.73c-.06.19-.11.39-.17.58l-1.24.15.21,1-1.19.27a7.44,7.44,0,0,0,.14,1.18l1.2-.27.8.61,1.78.81,1.52.34,0,.57c-.13.23-.27.46-.41.69l1.8-.5c.2.3.39.6.58.9l-.86.6.83.34c.11.2.22.4.32.6l.86.07c.19-.43.38-.85.58-1.28l-.6-.43.83-1.18Z"/><path class="cls-1" d="M129.78,62.54c0-.29.06-.58.08-.86l-.68-.81,0-.67-.76-.23c-.12-.23-.24-.46-.37-.69,0,0-.18-.42-.37-.26s-.57.47-.61.67a8,8,0,0,1-.73,1.16l-1.4.52c-.06.28-.11.56-.16.84l1-.29-.46.75.91.29,1.41-1.27,1.06-.1c0,.18.07.37.11.55,0,0-1,.43-.72.44a9.6,9.6,0,0,1,1.55.72c.11.29.21.57.31.86l1.18-1.2Z"/><path class="cls-1" d="M127.08,64l-.76.36-.68-.22a3.37,3.37,0,0,0-.19.32l.91.29,1.52.19,1-.68c-.07-.13-.15-.25-.23-.38Z"/><path class="cls-1" d="M130.57,66.92l.32.57.72-.46.3-.83-.88.4Z"/><path class="cls-1" d="M142.55,58.66c0-.23-.09-.45-.13-.67l-.81-.18c-.32.31-.65.63-1,1l.24.64,1,0C142.07,59.12,142.31,58.89,142.55,58.66Z"/><path class="cls-1" d="M144.26,59.34,143.9,59l-.49.2.35.47Z"/><path class="cls-1" d="M144.11,47.86l-.56-.21h-.89l-.88.46s-.6,0-.56.15-.19.48-.19.48c0,.17.05.34.08.5l1.08.12.3.33,1.08-.25.82.11.9.25.6-.08c0-.27.09-.53.13-.8,0,0-.27-.37-.23-.54a.45.45,0,0,0-.46-.47A12.19,12.19,0,0,1,144.11,47.86Z"/><path class="cls-1" d="M129,41.41l-1.06,0-.6.36s-.3-.22-.49-.11a1.82,1.82,0,0,0-.39.41l.31,0s-.08.08.2.15.39.4.39.4l.12.24h.61c.07.08.13.17.19.25l.48-.14.8-.59c0-.23,0-.45-.05-.67Z"/><path class="cls-1" d="M120.25,49.07l-.52-.33-.69-.42-.35.33-.74-.14-.48.62-.79-.09a.78.78,0,0,0-.14.4l.4.48.76-.11,0,.5.51.46.8,0,1.07.17.46-.38-.38-.3.45-.69Z"/><path class="cls-1" d="M131.34,39.5l.56.36h.92l.86-.17-.19-.23-.71-.29-.94-.07-.72.11-.61-.22-.54.11-.29.12.44.14Z"/><path class="cls-1" d="M157.72,65.1l-1.2.27-.27-.55s.05-.43-.26-.38a3.49,3.49,0,0,1-1-.2l.27-.65-.33-.41-.54.11c0-.2.11-.4.16-.61l-.75-.17-.94-.17c0-.16-.07-.32-.1-.47l-.47-.81c-.06-.16-.12-.33-.17-.49l-1.18-.38.37-.31.69-.06-.13-.4,1,.24.5.1c-.11-.23-.23-.45-.34-.68l-.76-.59.64-.29.48.29c.12-.31.25-.61.37-.92-.16-.19-.32-.38-.49-.56l-.9.26c0-.26-.05-.52-.08-.78l.41-.21-.56-.58-.95.18a1.35,1.35,0,0,1-1-.12,8.08,8.08,0,0,0,.7-.52c.22-.2-.26-.74-.26-.74l-.95,0c0-.22,0-.44,0-.66L149,54a1.47,1.47,0,0,1-.7-.34l-.88-.19.71-.38.41-.2c0-.19,0-.38,0-.57V52c-.06-.14-.11-.29-.17-.43l-.49-.2-1.66-.23-.92-.76-.53-.39-1.2-.09.12.46.57.47-.52.22-.61-.54-.55.4-.41.32-.49-.45.4-.44-.37-.23L141,49.7l-.64.37s0,.55-.26.49a2.57,2.57,0,0,1-.63-.49l.56-.52s.44-.12.26-.35a1.39,1.39,0,0,1-.22-.66l.59-.32a1,1,0,0,0,.56-.26,2.1,2.1,0,0,0,.26-.57l-1-.39-1.07.12s-.7,0-1.07,0a7.05,7.05,0,0,0-1.14.22s.14.38-.27.33a8.05,8.05,0,0,0-1.07,0s-.08.45.21.53.77.27.77.27l-.45.36-.81-.22s-.36,0-.48.17.17.59.17.59l.18.24-.37.38c0,.14,0,.29-.05.43l-.58-.66-1.11-.06,1.08-.38-.09-.57c.07-.24.13-.48.2-.72l.86-.66.68-.52,1.54,0h1.32l-.61-.33-1.65-.26-1.41-.31-1.53-.17-1.34.68-1.23.66-1.19.39s-.31.4-.09.45.67.6.67.6-.6.33-.39.39,1,.32,1,.32l.62.23-.77.1c.07.2.15.41.23.62l.29.46.62.11.51.39s-.35.6-.09.62,1.12,0,1.12,0l.52.15.89.52,1,.22,1,.83c0-.46-.1-.9-.14-1.35l.78.94c0,.23.05.46.08.68l.75.23c0-.34,0-.67,0-1l.45-.26,1.21.48.3.62s1.18.14,1.14-.07-.31-.74,0-.73,1.29.91,1.3.91c0,.25-.1.5-.14.75l.62.59.83,0s-.1.58-.37.57-1.05.49-.75.45,1.23.24,1.12.41a4.27,4.27,0,0,1-.83.57l.55.45,1.37-.27s.74.58.48.71a2.8,2.8,0,0,0-.64.57l.48.58c0,.31,0,.62,0,.93l-.6.38-.42.38-.21.66-.82-.19-.49.35-1,.33c-.12.08-.23.17-.34.26.21.68.42,1.38.63,2.08l-2.09-.09-1.53-.73-1.15.08-.35-.19-.59-.27-.31-.1-.45.76-.46.15c0,.16-.07.33-.1.49l-.62.11.59.73,1.28.19,1.24,0h.46l.09.34,1,0-.09-.8,1.18.85c.05.3.1.6.14.9l.79.42c0,.37-.1.75-.16,1.12l1.24.82-.78,0-.59-.12.82,1.07,1.34.15,1.46.27,1.29.77,1.48.61c.19.25.37.5.55.76l.54-1.18-1.4-.42c0-.28.06-.57.08-.85l-.84-.54c-.16-.29-.32-.58-.47-.87l-.51-1c.39.21.78.42,1.16.64l.57.51.67-.17.81.6a.72.72,0,0,1,.55,0c.2.15,1.08,1.17,1.08,1.17,0-.38,0-.76-.05-1.13l.72-.46.15-1h-.94c-.12-.41-.25-.81-.37-1.22l-.22-.46c-.14-.3-.28-.61-.43-.91s-.3-.46-.46-.69c0,0,.19-.16.55,0l.72.39s-.31-.94-.07-.86a1.52,1.52,0,0,0,.73-.12,4,4,0,0,1,.28,1c0,.22,1,.79,1,.79l.45.38s-.57.34-.22.39a4.23,4.23,0,0,1,1.13.54s-.76.52-.48.53.85.54.85.54l1.06-.72s-.41-1.15-.21-1,1.23.88,1.23.88c.05-.37.09-.74.13-1.1h.87l.65.38.88-.39,0-.46Z"/><path class="cls-1" d="M123.91,42.2a4,4,0,0,1-.79.12l-1-.08.08.27a.75.75,0,0,1-.48.15c-.21,0-.52-.43-.52-.43a7.75,7.75,0,0,0-1.1.1.73.73,0,0,0-.45.47l.64.32c0,.17-.09.34-.13.51a2.41,2.41,0,0,1-.82,0,2.5,2.5,0,0,0-.8,0l-.19-.53-.89-.22c-.09.28-.19.57-.28.86l.81.58.61,0A2.61,2.61,0,0,0,119,45c.17.1.3.53.3.53l.09.6.69.29.74-.27.82-.37.47.35h.94l.54-.55.56-.65c.12-.14-.42-.1-.42-.1L123,45l.37-.52-.37-.26s-.14-.41,0-.55.55.24.55.24l.59-.18s.19-.49.06-.62-.54-.24-.74-.39l1,.07.12-.5A1.07,1.07,0,0,0,123.91,42.2Z"/><path class="cls-1" d="M109,46.59l1.55-.37.38.33-.8.27c0,.11,0,.21.07.32l.46.24c0,.12.09.23.14.34l.55.15.2.17.32.33.62.16.47-.06,1,.14a2.39,2.39,0,0,0,.54-.35c.12-.15-.55-.27-.55-.27l-.58.09a2.68,2.68,0,0,0-.2-.78c-.13-.15.27-.23.39-.37s.38.45.38.45l1,.14.53.08V48l.5.32.42-.2c.2-.33.41-.66.62-1l-.42-.11-.51-.19-.64-.35-.3-.54c-.06-.15-.13-.31-.2-.46l-.27.51-.7-.06.15-.37-.37-.43.29-.62.12-.41c0-.24.09-.47.13-.69l-.26-.17h0q-3.77,1.53-7.41,3.33l.43,0Z"/><path class="cls-1" d="M123.53,40.35l-.86.2c-.11.15-.21.31-.31.47l1.18.43,1.66.28.9-.14.33-.77c0-.21.07-.41.11-.61l.37-.44-.24-.33-.07-.25-.19-.13s-.35,0-.45.18l-.09.16-.49-.11-2.92.88h.08Z"/><path class="cls-1" d="M131.9,44.13l1.22.2.48-.16.8-.12-.06.58,1,.14.5,0,.36.09,1.12.34.83.38,1.57.35.73-.26c.08.13.15.26.22.4l2.83.68.37-.35,1-.13.37-.24-.81-.87-.85-.06-.36-.52-.8-.21L141.15,44,140,43.8l-2.13-.27-1.69,0s-.95-.6-.91-.74-.56-.24-.88-.27a1.13,1.13,0,0,1-.62-.35l1.36-.08-.64-.6-.78-.61-1.52-.11c-.07-.16-.14-.32-.2-.48L131,40l-1.12-.48-.85.09c0,.21,0,.43-.07.65l.25.34.93.26.4.29L131,41l.31.12.72.32c.11.27.22.54.33.83l-.73.7-.84.74c0,.11,0,.21,0,.32l.83-.06A2.61,2.61,0,0,1,131.9,44.13Z"/><path class="cls-1" d="M135.37,37.74l-1.12,0,.28.35.76.16.68-.15.79.2-.43.09-1,.08-.23.3-.29.42.28.47,1.14,0,.5-.07.3.29.95,0,.7-.34.8.22.19-.35,1.13.15c2.65.36-1.09-.2.78.08s-.17-.08.85.1l1,.18.58-.58.25-.25c.11.22.23.45.34.69l.82.13s-1-.09-.82,0,.78.44.78.44l1,.32s-.93.26-.9.12-.85-.38-.85-.38l-1.25-.14-.92-.3L141,40l-.92-.12-.73.48,1,.23,1,.09s-.08.27.2.24,1.62-.24,1.62-.24c-.18.19-.37.38-.55.58,0,.12.07.24.1.36l.86.2h.79l-.69.38L142.41,42l-.71-.17,0-.35-.74-.31-.14-.23-1.28-.19-.78-.18s-.23.42,0,.47a.8.8,0,0,1,.38.33l-.65.14-.88-.26-1.11.09-.58.06V42h.68s-.27.29.09.38a8.84,8.84,0,0,0,1.11.11l.22-.15.92.42.79.3.9.17.44-.41.62.2s.51-.38.43-.2-.33.38,0,.45,1.16.18,1.16.18l.65.27.48-.35.4.57.65.06-.29.56c-.08.1-.17.2-.25.31l.87-.21,1.39-.28c.06.1.13.2.19.31l1.31-.2.11-.24-.41-.15,0-.36-.73-.39.8.1,1.17.19c0-.2.09-.39.13-.58l1,.09.56.39h1.16l-.12-.39,1.06.22.47-.14-.37-.19a7.67,7.67,0,0,0,.85.26l.64-.24s.21-.25-.2-.3L154,42.7l-.19-.29a4.83,4.83,0,0,0-.95-.13,13.48,13.48,0,0,1-1.67-.11l-.22-.06.61-.29-.85-.53.87.11.59.43,1.13.22.21-.24s-.52-.22-.19-.19a3.49,3.49,0,0,1,.92.36l.32-.16-1.29-.45,1.1.26,1.39.33,1,.25,1.24.11c.28,0,1.81,0,1.81,0s-.1-.25-.14-.37l.6.24.63.21.91-.35.09.21.84.06,1.11-.16,1.22-.08a6.76,6.76,0,0,0,1.13.38l1.6.11,1.19,0,.7-.2L168.33,42l-1.43-.21.67-.06,1.64.07,1.06.35,1-.13,1.05,0h.9l.35-.23-1.09-.31-.73-.32-.12-.29-.91-.3-.84-.37a6.62,6.62,0,0,0-.84-.36c-.22,0-1-.1-1-.1l-.93.26-1-.06h-.89l-1-.21,1.1,0,1.29,0,.87-.09-.35-.21-.77-.21h-1l-1-.3-.93-.4-1-.21s-.71,0-.45.1.17.28.17.28c-.27-.11-.54-.23-.81-.33l-1.16,0c0,.16-.84-.3-.84-.3l-1.25-.22-.9-.22-1.16-.12.41.35-.29.46L156,38a1.23,1.23,0,0,1-.37-.39l-.81,0-.64-.13-.08-.24-.58.3-.57-.11-.28-.14-.39,0,.61.46-.92-.26-.81-.28-.49-.32-.31.28.29.44-.64-.36-.38.35-.39-.43c0-.12-.07-.24-.1-.35l-1.53-.37-.06-.3-.9-.09-.18.35L145.13,36l-.36.43.73,0,1.17.08.94.29-1,.11s-.42.3-.46.18l0-.12-.51-.29-.63,0-.79-.26L144,36l-1.34-.15-.92.26-.34-.2-1,.14.17,0s-1.19.14-.84.13a8.62,8.62,0,0,1,1.62.05,13.16,13.16,0,0,1-1.44.21c0,.06,0,.13,0,.19l1,0-.71.25,1,.19,1.87.29.37.36s.89-.34.92-.22a1.86,1.86,0,0,1,0,.37l1.79.25.42-.24.18.32,4.09.62s.86.18,1.18.21,2,0,2.24,0l1.43.31h-1.13l.44.27-2.44-.28.62.35-1.14.1-.68-.37-2.92-.29-.32.49.79.36h-.72l-.78-.52c.05-.2.09-.39.14-.58l-1.34-.37-2.35-.28-.62.41s-1,.08-.84,0a3.64,3.64,0,0,0,.54-.43c0-.14-.1-.27-.16-.4l-1.25-.18-2.3-.5-.63-.4.5-.13-.23-.33c-1,.17-2,.34-3.06.53A1.49,1.49,0,0,0,136,37l-.43.15-.79-.11,0,0-.71.15.17.28Zm18,5.31h0Zm-13.77-3.67.52.07-.52-.07Z"/><path class="cls-1" d="M171.62,84.92l1.54.7s.14,1.36.45,1.32a13.68,13.68,0,0,0,1.57-.6c-.13-.43-.25-.86-.38-1.29l1.76-1.2,1.95-1.62s2.23-.56,2.25-.81A8.74,8.74,0,0,1,181.94,80c-.08-.37-.16-.74-.25-1.1l1.25-.17a.49.49,0,0,1,.61-.26c.41.16,2.55.6,2.55.6l.42,1.16,1.49-.48.41.58,2.26-1.49,3.32,0c.23-.65.47-1.28.7-1.92l1,1.31,1.79.09,3.34.88,1.68-.52.91.3,1-.31,2,.44,2.53-.78S207.2,76.7,207,76.86s-1.7-.23-2-.13-1.7-.86-1.7-.86l2.15-.14c.22-.33.43-.66.64-1l1.5.46a10.67,10.67,0,0,0,.55,1.73,23.61,23.61,0,0,0,2.17,1.48,9,9,0,0,1,.14-1.37c.09-.2.11-1.53-.13-1.63s-.53-1.54-.53-1.54l1,1.28.84-1c-.09-.37-.18-.74-.26-1.1l.78-.29,1.86,0-.15-.52-1.09-.91,1.44-.07,1.24,1,1.11-.43-1.53-.94s.05-1.17.26-1,.88.52.88.52c.09-.33.17-.67.26-1l0-1.61s-.78-.75-.49-.77a10.44,10.44,0,0,1,1.85.62l1.08.88c.06-.55.11-1.1.17-1.64a16.13,16.13,0,0,0-1.45-.88c-.31-.13.31-.51.31-.51s.47-.43.24-.53-.54-.64-.23-.72,1.6-.31,1.6-.31l.58-.92,1.41.51,1-.55-2-1.36s-1.43,0-1.25-.24.47-.86.65-.66,2.55,1.42,2.55,1.42l1.41.71,1.18-.45c-.66-.41-1.33-.81-2-1.21l2.27.59,1.39.51,2.3,0c.06-.2.11-.4.16-.6l-2.05-1A18,18,0,0,0,225,59.42c-.25,0-1.69-.42-1.69-.42l-1.59.13a4.66,4.66,0,0,0-1-.88A7.21,7.21,0,0,0,219,58c-.28,0-2.07,0-2.07,0l-2.07-.66,3.07,0,1-.51a7.85,7.85,0,0,0-1.32-.68L216.31,56l-.4.47-2.74-.95c.15-.23.29-.47.42-.7l-3.28-.93-1.3-.52-2.1-.37-2.1-.36.57-.22,1.68.28,1.86.11,1.72.78c1.53.54,3.05,1.08,4.58,1.64l1.13.48,1.65.37.95.48,2.18,0-1-.88-1.54-.57-.43-.64-1.38-.33-1.26-.21,1.4-.09-.39-.73-1.05-.25-1,.05-1-.46,1.75-.08q-2.29-.95-4.6-1.86s-3.13-1.31-3.41-1.29-4.77-1.57-4.77-1.56l-1.86-.41-1.69.28-1.83,0-.15-.67-1.42-.53-1.21-.09q-.37.32-.75.66l-1.78-.37-2.25-.34c.18.31.35.62.52.94s.65.65,1,1l.18.08,1.6.79-3-.41c-.28-.36-.55-.72-.83-1.07,0,0-.32-1.42-.83-1.6s-2-.87-2-.87c-.17.31-.34.62-.5.93l-.67.33s0,.81-.11.61a25.34,25.34,0,0,0-2.5-1.5l-1.18.29v-1c-.05-.24-.11-.47-.16-.69l-3.3-.44L174,42.93c-.1.23-.21.46-.32.69-.13-.28-.26-.55-.38-.82l-1.24,0-.74.63-.92-.33-4.82-.25-.86-.16-.37.24-.34.21.35.24.92.08.2.45.7.14.57-.16,1,.36-.48.53h-.44l-.29.39-1.33,0-1.49-.18-.94-.3-1.29-.08-1.64-.21L158,44l-.63-.1-1,.19.51.6.48.55.39.31.61.38.9.14.55-.51.32.3s-.41.44-.12.41,2.25.28,2.25.28l1,.38c-.07.13-.13.26-.19.39l-.61-.16-.36-.27-1.72-.25-1.1-.24-1.47,0,.42.28-.9-.13-.4-.55-.85-.06.32.52c.1.16.19.32.29.47l.21.34.83.23-.58.3c.1.16.2.32.29.48l1.14.2.67.48.56-.94.47.25c0,.18.05.36.08.54l.78-.47,1,.44c0,.19-.07.37-.1.56l1.26-.11,1.52.21.39.52h1l.39.12,1.6,1,.77,1,1.17.36.21.87.88.85.67,1.24-.82.27.58.77a6.59,6.59,0,0,0,.31,1.58c.17.2-.23.74-.23.74l-1.15-.31c-.17.36-.35.71-.52,1.07,0,0-.78.72-.54.8s1.08.44,1.08.44l.81-.43s.42.77.66.86,1.73,1,1.73,1l1.68.95-1.38,1L173,63.78l-1.14-.91-1.37-.62L169.39,62c.06.28.13.57.19.86,0,0,.59.49.35.41s-1.08-.3-1.08-.3c-.19.22-.38.45-.56.68,0,0-1.26.37-1,.55s1,.7,1,.7-.78,0-.57.17,1.41,1,1.41,1l1.87-.09.2-.38c-.09-.55-.17-1.1-.26-1.64,0,0-.41-.66-.2-.51a12.29,12.29,0,0,1,1.06,1.39l.81.29,1.11.62-.76.7.21,1.06-1.07-.15c-.19.41-.38.83-.56,1.25l-1.81-.42-1.1.06a2.44,2.44,0,0,1-.74.51c-.35.1-1.47.4-1.05.71s1.14.57.84.77-1.32.86-1.32.86,0,.72.23.88.43,1,.43,1-.63.65-.23.64.89.73.89.73-1,.51-.71.64,1.62.44,1.62.44l-1.74.74.3,1.36s-.13,1.62.12,1.72,1.45.81,1.43,1.06.18,2,.18,2c.19.51.37,1,.55,1.51l1.94-.36Z"/><path class="cls-1" d="M208.44,92.71l.88.26,2.69.68a17.9,17.9,0,0,1,2.22.09c.52.1-.28-1.31-.28-1.31.17-.49.33-1,.49-1.46l-1-1.88-1.23.22L210,88.74l-1.86-.95-1.17.38-1-.58-.27-1.65-.75-.57,0,.9h-1.15l-1.45.66,1.43.36,1.49-.13-1.2.77-1.42.28,1.64,1.49-1.67.19,2.56,1.38c0,.31,0,.61,0,.92l2.19,1.23Z"/><path class="cls-1" d="M213,119l-.26-.69a12,12,0,0,0,1.95-.94l-.51-1.09.09-.52c-.41-.34-.83-.67-1.25-1,0,.17-.05.35-.08.52l-1.32,1.09-1.31-.88c-.14.31-.27.63-.41.94l-1.48.47,1.14,1c-.17.4-.34.79-.52,1.19l-1.83.31.56,1,.79.79,2-.25,1.87-.43C212.59,120,212.8,119.5,213,119Z"/><path class="cls-1" d="M220.71,123.21l.71-.38-.7-.9c0-.5.08-1,.11-1.51-.2-.57-.41-1.14-.62-1.72s-.19-1-.29-1.55l-.73-1.19.88-.43.73-1c.22-.32.45-.63.67-.94l-1-.77-.88-.84,1.15-.43c0-.42,0-.84,0-1.25l-1.74-.13-1.39,1.29s-.07.81-.58.71l-.68-1a10.89,10.89,0,0,0,.11,2c.09.32.18.65.28,1l-.85,0,.94.72c-.16.25-.31.51-.47.77l-.43,1.63,1.24,0,.72.9-.6.43c.2.28.4.56.59.85-.07.39-.15.78-.23,1.17l-1.16.45-.48-.8-1-.31c.17.36.33.73.5,1.09l-1.18.16.75.5c-.1.24-.21.47-.31.71l-1.2-.12c0,.21-.09.43-.14.65l1.1.65,1,.31.68.32-.76.8-1.68-1.22L211.08,125c0,.33,0,.66,0,1l1.64-.55,1.5.7,1.07-.23,1.09.66,1.44-.48,1.14.53,1.28.18,0-.7,1.45.11.39-1.53-.63-.73Z"/><path class="cls-1" d="M217.51,109.58l-.51-1.07-.8.87.55.68Z"/><path class="cls-1" d="M224.52,108.63c-.26.29.06,1.13.06,1.13l.76-.18c-.12-.47-.24-.94-.35-1.41Z"/><path class="cls-1" d="M214,147.45l-.22.49-.61.74-.39.55,1.23-.32C214.43,148.53,214,147.45,214,147.45Z"/><path class="cls-1" d="M222.33,147.49l.66-1.72-.76.51-.92.3-.42,1.12c-.07.16-.13.33-.19.49l.6.42C221.64,148.23,222,147.86,222.33,147.49Z"/><path class="cls-1" d="M216.1,149h-.94l.66.59C215.91,149.39,216,149.19,216.1,149Z"/><path class="cls-1" d="M211.08,148.18l-.5.51a1.91,1.91,0,0,0,1.12-.37Z"/><path class="cls-1" d="M220.46,151.84l.82-1.21s2.17-1.61.12-1.11-.38-.89-1.25-.13-.82.65-.82.64l-.12,1.39c-.18.4-.37.8-.56,1.2l.87.1Z"/><path class="cls-1" d="M221.94,156.42c.1.52.2,1,.29,1.56l1.33,1.75c.3-.44.59-.88.88-1.32l.35-1-1.15-.53c-.38-.26-.77-.53-1.15-.81Z"/><path class="cls-1" d="M233,167.78c.23.24,1-.39,1-.39l-.6-.69-.87-.39-.71-.74-.84-.24.83,1.22S232.76,167.54,233,167.78Z"/><path class="cls-1" d="M240.9,170.92l1-.81-1.19-.27-1.4.34.63,1Z"/><path class="cls-1" d="M234.22,124.12c.07.45.19,1.36.19,1.36l.69.77.51-.59c.15-.45.29-.89.44-1.33A5.42,5.42,0,0,0,234.22,124.12Z"/><path class="cls-1" d="M244.88,124.85l-.5-.26-1.17.49c-.05.3-.1.6-.14.9l.79-.14Z"/><path class="cls-1" d="M249.07,125l-.52.13-.81-.31c-.05.3-.09.6-.14.9l1,.24Z"/><path class="cls-1" d="M250.38,102.91l.48-.62-.94-.66-.87.68c.07.21.15.42.23.64Z"/><path class="cls-1" d="M252.53,101.05s-.73.36-1.05.56l1.07.47.39-.54Z"/><path class="cls-1" d="M255.26,101l-.58-.59-.63.4A5,5,0,0,0,255.26,101Z"/><path class="cls-1" d="M258.41,101.44l.18-.77-1-.25-.57.29.48.54Z"/><path class="cls-1" d="M216.09,230.35l-1.05.35-.84.32-.49.17-.91-.23-1,.19-1.34.33-.71.19-.69.69c0,.25.07.49.11.73l-.77.15-1.37.48-1.46.76c0,.2,0,.41,0,.61-.19.26-.39.51-.58.76l.35.48,1.4,0,1.75-.53c.71-.36,1.43-.73,2.14-1.12l1.37-.46c.66-.33,1.32-.67,2-1l1-.55s.65-.72.84-.89-.09.5-.09.5l.9-.37a6.77,6.77,0,0,0,.62-1.06,7.16,7.16,0,0,1,.63-1l-.48-.29C216.91,229.78,216.5,230.07,216.09,230.35Z"/><path class="cls-1" d="M510.41,229.18a5.25,5.25,0,0,1,0,.73,1.45,1.45,0,0,1-.16.52.69.69,0,0,1-.25.3.57.57,0,0,1-.32.09H496a1.55,1.55,0,0,1-.95-.35,1.53,1.53,0,0,1-.45-1.26V202.57a1.53,1.53,0,0,1,.45-1.26A1.51,1.51,0,0,1,496,201h13.46a.59.59,0,0,1,.32.09.8.8,0,0,1,.23.3,3.61,3.61,0,0,1,.14.53,4.18,4.18,0,0,1,.05.77,3.8,3.8,0,0,1-.05.72,3,3,0,0,1-.14.51.69.69,0,0,1-.23.29.59.59,0,0,1-.32.09H498.4v9.37h9.51a.52.52,0,0,1,.32.11.87.87,0,0,1,.24.29,1.42,1.42,0,0,1,.14.51,5.47,5.47,0,0,1,.05.76,4.73,4.73,0,0,1-.05.71,1.43,1.43,0,0,1-.14.49.61.61,0,0,1-.24.26.57.57,0,0,1-.32.08H498.4v10.69h11.24a.58.58,0,0,1,.32.1.69.69,0,0,1,.25.28,1.39,1.39,0,0,1,.16.51A5.69,5.69,0,0,1,510.41,229.18Z"/><path class="cls-1" d="M540,229.18a1.86,1.86,0,0,1-.14.79,1.52,1.52,0,0,1-.39.53,1.33,1.33,0,0,1-.53.3,2,2,0,0,1-.59.09H537.1a4,4,0,0,1-1-.12,2.49,2.49,0,0,1-.84-.46,5.06,5.06,0,0,1-.79-.92,12.74,12.74,0,0,1-.84-1.47l-8.65-17c-.45-.88-.91-1.8-1.37-2.76s-.88-1.9-1.28-2.81h0c0,1.11,0,2.24.06,3.39s0,2.3,0,3.45v18a.56.56,0,0,1-.4.55,5.56,5.56,0,0,1-.58.14,7.39,7.39,0,0,1-.91.05,7.57,7.57,0,0,1-.92-.05,4.51,4.51,0,0,1-.56-.14.67.67,0,0,1-.3-.23.57.57,0,0,1-.1-.32V202.66a1.61,1.61,0,0,1,.5-1.32,1.71,1.71,0,0,1,1.09-.39H522a4.24,4.24,0,0,1,1.1.12,2.23,2.23,0,0,1,.79.38,3.3,3.3,0,0,1,.68.74,9.22,9.22,0,0,1,.69,1.19l6.65,13.11c.41.8.8,1.58,1.18,2.34s.75,1.51,1.1,2.25l1,2.18c.35.72.69,1.44,1,2.16h0c0-1.21,0-2.48,0-3.79s0-2.59,0-3.8V201.62a.53.53,0,0,1,.09-.3.8.8,0,0,1,.31-.24,2,2,0,0,1,.58-.15,7.69,7.69,0,0,1,.94-.05,7.17,7.17,0,0,1,.87.05,1.79,1.79,0,0,1,.58.15.76.76,0,0,1,.3.24.46.46,0,0,1,.09.3Z"/><path class="cls-1" d="M570.86,205a5.78,5.78,0,0,1-.05.78,2.23,2.23,0,0,1-.13.55.64.64,0,0,1-.22.31.5.5,0,0,1-.28.1,2,2,0,0,1-.88-.44,14,14,0,0,0-1.64-1,15.15,15.15,0,0,0-2.47-1,11.81,11.81,0,0,0-3.41-.44,9.52,9.52,0,0,0-4.2.9,9.06,9.06,0,0,0-3.16,2.49,11.48,11.48,0,0,0-2,3.79,15.47,15.47,0,0,0-.69,4.76,15.77,15.77,0,0,0,.75,5.07,10.85,10.85,0,0,0,2.1,3.74,8.63,8.63,0,0,0,3.18,2.31,10.4,10.4,0,0,0,4.07.79,10.67,10.67,0,0,0,2.66-.34,9.34,9.34,0,0,0,2.51-1v-8.71h-6.57a.59.59,0,0,1-.56-.39,2.89,2.89,0,0,1-.19-1.22c0-.29,0-.55,0-.75a1.54,1.54,0,0,1,.15-.51.69.69,0,0,1,.23-.29.56.56,0,0,1,.33-.09h9a1.46,1.46,0,0,1,.49.09,1.27,1.27,0,0,1,.43.28,1.16,1.16,0,0,1,.31.51,2.35,2.35,0,0,1,.11.74v11.38a2.57,2.57,0,0,1-.2,1,1.75,1.75,0,0,1-.83.77,14,14,0,0,1-1.65.72,15.78,15.78,0,0,1-2.08.67,16,16,0,0,1-2.17.42,17.69,17.69,0,0,1-2.17.14,15.28,15.28,0,0,1-5.87-1.07,12.07,12.07,0,0,1-4.37-3.06,13.61,13.61,0,0,1-2.73-4.76,19,19,0,0,1-.94-6.18,19.31,19.31,0,0,1,1-6.45,14.27,14.27,0,0,1,2.87-4.91,12.61,12.61,0,0,1,4.45-3.15,14.32,14.32,0,0,1,5.75-1.12,14.81,14.81,0,0,1,3,.3,19,19,0,0,1,2.53.7,9.81,9.81,0,0,1,1.86.88,5.74,5.74,0,0,1,1,.77,1.57,1.57,0,0,1,.39.7A4,4,0,0,1,570.86,205Z"/><path class="cls-1" d="M594.59,229.09a5.75,5.75,0,0,1,0,.78,2,2,0,0,1-.15.53.73.73,0,0,1-.24.32.52.52,0,0,1-.33.1H581.29a1.39,1.39,0,0,1-1.4-1.61V201.55a.66.66,0,0,1,.08-.32.62.62,0,0,1,.31-.22,4,4,0,0,1,.59-.14,5.8,5.8,0,0,1,.9-.06,5.67,5.67,0,0,1,.91.06,3.53,3.53,0,0,1,.58.14.58.58,0,0,1,.31.22.57.57,0,0,1,.09.32v25.83h10.17a.52.52,0,0,1,.33.11.73.73,0,0,1,.24.3,1.54,1.54,0,0,1,.15.52A5.75,5.75,0,0,1,594.59,229.09Z"/><path class="cls-1" d="M604.55,230.22a.7.7,0,0,1-.09.33.64.64,0,0,1-.31.22,5.56,5.56,0,0,1-.58.14,8.22,8.22,0,0,1-1.81,0,4.75,4.75,0,0,1-.59-.14.64.64,0,0,1-.31-.22.7.7,0,0,1-.09-.33V201.55a.52.52,0,0,1,.11-.32.61.61,0,0,1,.32-.22,4.15,4.15,0,0,1,.6-.14,5.26,5.26,0,0,1,.86-.06,5.75,5.75,0,0,1,.91.06,3.81,3.81,0,0,1,.58.14.58.58,0,0,1,.31.22.66.66,0,0,1,.09.32Z"/><path class="cls-1" d="M629.33,222.44a9,9,0,0,1-.73,3.74,7.9,7.9,0,0,1-2,2.78,8.48,8.48,0,0,1-3.07,1.72,12,12,0,0,1-3.8.58,12.87,12.87,0,0,1-2.64-.25,13.69,13.69,0,0,1-2.17-.63,9.63,9.63,0,0,1-1.6-.76,4.14,4.14,0,0,1-.9-.67,1.62,1.62,0,0,1-.37-.7,4.36,4.36,0,0,1-.12-1.14,6.54,6.54,0,0,1,0-.84,2.08,2.08,0,0,1,.14-.55.55.55,0,0,1,.21-.29.62.62,0,0,1,.31-.08,1.76,1.76,0,0,1,.87.39,12.46,12.46,0,0,0,1.43.86,13.67,13.67,0,0,0,2.12.86,8.89,8.89,0,0,0,2.86.41,7,7,0,0,0,2.24-.35,5.28,5.28,0,0,0,1.76-1A4.11,4.11,0,0,0,625,225a5.14,5.14,0,0,0,.4-2.1,4.07,4.07,0,0,0-.55-2.17,5.7,5.7,0,0,0-1.45-1.58,12.56,12.56,0,0,0-2-1.24L619,216.73a24.13,24.13,0,0,1-2.34-1.3,9.56,9.56,0,0,1-2-1.69,7.83,7.83,0,0,1-1.46-2.27,8,8,0,0,1-.56-3.13,8.06,8.06,0,0,1,.65-3.34,6.91,6.91,0,0,1,1.79-2.45,7.86,7.86,0,0,1,2.74-1.52,11.15,11.15,0,0,1,3.43-.52,10.27,10.27,0,0,1,1.9.18,12.47,12.47,0,0,1,1.8.46,9.52,9.52,0,0,1,1.5.65,4,4,0,0,1,.86.57,2,2,0,0,1,.28.35,2.33,2.33,0,0,1,.11.32,4.46,4.46,0,0,1,.06.48c0,.18,0,.42,0,.71s0,.52,0,.74a2.37,2.37,0,0,1-.1.54.73.73,0,0,1-.18.33.44.44,0,0,1-.28.1,1.74,1.74,0,0,1-.76-.33q-.51-.31-1.26-.72a10.13,10.13,0,0,0-1.76-.74,7.4,7.4,0,0,0-2.29-.33,5.82,5.82,0,0,0-2.06.33,4.05,4.05,0,0,0-1.44.89,3.6,3.6,0,0,0-.86,1.31,4.61,4.61,0,0,0-.29,1.62,4.11,4.11,0,0,0,.55,2.15,5.77,5.77,0,0,0,1.46,1.59A13.73,13.73,0,0,0,620.5,213l2.37,1.17c.8.39,1.59.82,2.36,1.29a9.61,9.61,0,0,1,2.07,1.66,7.48,7.48,0,0,1,1.47,2.26A7.67,7.67,0,0,1,629.33,222.44Z"/><path class="cls-1" d="M657.17,230.22a.7.7,0,0,1-.09.33.64.64,0,0,1-.31.22,5.56,5.56,0,0,1-.58.14,7.28,7.28,0,0,1-.89.05,7.45,7.45,0,0,1-.92-.05c-.23,0-.42-.09-.57-.14a.54.54,0,0,1-.39-.55V217H640.51v13.25a.54.54,0,0,1-.39.55,5.24,5.24,0,0,1-.59.14,7.33,7.33,0,0,1-.9.05,7.58,7.58,0,0,1-.9-.05,4.75,4.75,0,0,1-.59-.14.64.64,0,0,1-.31-.22.6.6,0,0,1-.09-.33V201.55a.57.57,0,0,1,.09-.32.58.58,0,0,1,.31-.22,3.44,3.44,0,0,1,.59-.14,5.8,5.8,0,0,1,.9-.06,5.62,5.62,0,0,1,.9.06,3.69,3.69,0,0,1,.59.14.55.55,0,0,1,.3.22.57.57,0,0,1,.09.32v12h12.91v-12a.57.57,0,0,1,.09-.32.55.55,0,0,1,.3-.22,4,4,0,0,1,.57-.14,5.72,5.72,0,0,1,.92-.06,5.57,5.57,0,0,1,.89.06,3.81,3.81,0,0,1,.58.14.58.58,0,0,1,.31.22.66.66,0,0,1,.09.32Z"/><path class="cls-1" d="M697.82,226.6a6.43,6.43,0,0,1,0,.65,2.18,2.18,0,0,1-.08.48,1.35,1.35,0,0,1-.14.37,2,2,0,0,1-.3.39,6.84,6.84,0,0,1-.92.71,11.2,11.2,0,0,1-1.75.92,13.19,13.19,0,0,1-2.39.76,12.88,12.88,0,0,1-2.94.31,12.31,12.31,0,0,1-5-1,10,10,0,0,1-3.79-2.86,13.15,13.15,0,0,1-2.41-4.67,24.47,24.47,0,0,1,.07-13,14.42,14.42,0,0,1,2.55-4.92,10.89,10.89,0,0,1,3.93-3.09,12,12,0,0,1,5.07-1.06,11.08,11.08,0,0,1,2.39.25,14,14,0,0,1,2.15.61,9.59,9.59,0,0,1,1.76.85,6.16,6.16,0,0,1,1.06.8,2.65,2.65,0,0,1,.38.47,1.42,1.42,0,0,1,.14.38,3.28,3.28,0,0,1,.09.52q0,.3,0,.72a5.75,5.75,0,0,1,0,.78,2.14,2.14,0,0,1-.13.54.85.85,0,0,1-.21.33.44.44,0,0,1-.3.1,1.6,1.6,0,0,1-.86-.45,14,14,0,0,0-1.42-1,11.57,11.57,0,0,0-2.11-1,8.88,8.88,0,0,0-3-.45,7.48,7.48,0,0,0-3.45.79,7.4,7.4,0,0,0-2.65,2.35,11.71,11.71,0,0,0-1.71,3.77,21.6,21.6,0,0,0,0,10.11,10.62,10.62,0,0,0,1.67,3.65,7,7,0,0,0,2.68,2.21,8.15,8.15,0,0,0,3.59.75,9.1,9.1,0,0,0,3-.43,11.55,11.55,0,0,0,2.16-1,17.54,17.54,0,0,0,1.47-1,1.69,1.69,0,0,1,.9-.43.6.6,0,0,1,.27.06.5.5,0,0,1,.17.27,2.62,2.62,0,0,1,.1.54C697.81,226,697.82,226.25,697.82,226.6Z"/><path class="cls-1" d="M728.2,215.54a24.26,24.26,0,0,1-.81,6.53,14.1,14.1,0,0,1-2.42,5,10.72,10.72,0,0,1-4.05,3.14,13.69,13.69,0,0,1-5.67,1.09,14,14,0,0,1-5.54-1,9.83,9.83,0,0,1-3.85-2.92,12.55,12.55,0,0,1-2.27-4.76,25.65,25.65,0,0,1-.75-6.53,23.74,23.74,0,0,1,.81-6.42,13.58,13.58,0,0,1,2.44-4.9,10.77,10.77,0,0,1,4-3.12,15.28,15.28,0,0,1,11.13-.1,9.87,9.87,0,0,1,3.87,2.89,12.5,12.5,0,0,1,2.3,4.71A24.55,24.55,0,0,1,728.2,215.54Zm-4,.28a24.14,24.14,0,0,0-.43-4.72,11.15,11.15,0,0,0-1.42-3.79,7,7,0,0,0-2.66-2.5,8.55,8.55,0,0,0-4.11-.9,8,8,0,0,0-4.12,1,7.85,7.85,0,0,0-2.7,2.58,11.2,11.2,0,0,0-1.49,3.78,22.17,22.17,0,0,0-.45,4.53,26.08,26.08,0,0,0,.42,4.85,11,11,0,0,0,1.4,3.82,6.8,6.8,0,0,0,2.64,2.49,8.57,8.57,0,0,0,4.14.89,8.18,8.18,0,0,0,4.16-1,7.56,7.56,0,0,0,2.71-2.62,11.27,11.27,0,0,0,1.47-3.82A23.29,23.29,0,0,0,724.21,215.82Z"/><path class="cls-1" d="M756.91,229.42a2.91,2.91,0,0,1,.18.82.57.57,0,0,1-.16.47,1.09,1.09,0,0,1-.58.21,10.56,10.56,0,0,1-1.09,0q-.68,0-1.08,0a2.32,2.32,0,0,1-.61-.12.67.67,0,0,1-.31-.22,1.79,1.79,0,0,1-.19-.34L750.64,223H738.85l-2.32,7.18a1.51,1.51,0,0,1-.18.36.81.81,0,0,1-.31.26,2.16,2.16,0,0,1-.6.15,8.86,8.86,0,0,1-1,0,9.35,9.35,0,0,1-1-.05,1,1,0,0,1-.57-.23.61.61,0,0,1-.16-.47,3,3,0,0,1,.19-.82l9.51-27.75a1.25,1.25,0,0,1,.23-.41A1,1,0,0,1,743,201a3.06,3.06,0,0,1,.71-.12c.28,0,.64,0,1.08,0s.86,0,1.16,0a3.26,3.26,0,0,1,.75.12,1.1,1.1,0,0,1,.44.27,1.37,1.37,0,0,1,.24.43Zm-12.21-24.5h0l-4.89,14.89h9.86Z"/><path class="cls-1" d="M782.27,226.6a6.18,6.18,0,0,1,0,.65,3.06,3.06,0,0,1-.07.48,2.61,2.61,0,0,1-.14.37,2.17,2.17,0,0,1-.31.39,6.22,6.22,0,0,1-.92.71,11.52,11.52,0,0,1-1.74.92,13.45,13.45,0,0,1-2.39.76,13,13,0,0,1-2.95.31,12.34,12.34,0,0,1-5-1,10.11,10.11,0,0,1-3.79-2.86,13.31,13.31,0,0,1-2.41-4.67,24.74,24.74,0,0,1,.07-13,14.6,14.6,0,0,1,2.55-4.92,11.06,11.06,0,0,1,3.93-3.09,12.06,12.06,0,0,1,5.08-1.06,11.14,11.14,0,0,1,2.39.25,13.83,13.83,0,0,1,2.14.61,9.29,9.29,0,0,1,1.76.85,5.77,5.77,0,0,1,1.06.8,2,2,0,0,1,.38.47,1.42,1.42,0,0,1,.14.38,3.28,3.28,0,0,1,.09.52,5.17,5.17,0,0,1,0,.72,5.75,5.75,0,0,1,0,.78,2.14,2.14,0,0,1-.13.54.85.85,0,0,1-.21.33.44.44,0,0,1-.3.1,1.58,1.58,0,0,1-.85-.45,14.26,14.26,0,0,0-1.43-1,11.26,11.26,0,0,0-2.11-1,8.84,8.84,0,0,0-3-.45,7.18,7.18,0,0,0-6.1,3.14,11.92,11.92,0,0,0-1.71,3.77,22,22,0,0,0,0,10.11,10.63,10.63,0,0,0,1.68,3.65,7,7,0,0,0,2.67,2.21,8.15,8.15,0,0,0,3.59.75,9.21,9.21,0,0,0,3-.43,12.18,12.18,0,0,0,2.16-1,17.18,17.18,0,0,0,1.46-1,1.69,1.69,0,0,1,.9-.43.6.6,0,0,1,.27.06.5.5,0,0,1,.17.27,2.08,2.08,0,0,1,.1.54A7.24,7.24,0,0,1,782.27,226.6Z"/><path class="cls-1" d="M809.71,230.22a.7.7,0,0,1-.09.33.64.64,0,0,1-.31.22,5.56,5.56,0,0,1-.58.14,7.28,7.28,0,0,1-.89.05,7.45,7.45,0,0,1-.92-.05c-.23,0-.42-.09-.57-.14a.54.54,0,0,1-.39-.55V217H793.05v13.25a.54.54,0,0,1-.39.55,5.24,5.24,0,0,1-.59.14,7.33,7.33,0,0,1-.9.05,7.58,7.58,0,0,1-.9-.05,5.49,5.49,0,0,1-.6-.14.65.65,0,0,1-.3-.22.6.6,0,0,1-.09-.33V201.55a.57.57,0,0,1,.09-.32.59.59,0,0,1,.3-.22,3.85,3.85,0,0,1,.6-.14,5.8,5.8,0,0,1,.9-.06,5.62,5.62,0,0,1,.9.06,3.69,3.69,0,0,1,.59.14.55.55,0,0,1,.3.22.57.57,0,0,1,.09.32v12H806v-12a.57.57,0,0,1,.09-.32.55.55,0,0,1,.3-.22,4,4,0,0,1,.57-.14,5.72,5.72,0,0,1,.92-.06,5.57,5.57,0,0,1,.89.06,3.81,3.81,0,0,1,.58.14.58.58,0,0,1,.31.22.66.66,0,0,1,.09.32Z"/><path class="cls-1" d="M823,230.22a.6.6,0,0,1-.09.33.59.59,0,0,1-.31.22,4.52,4.52,0,0,1-.58.14,7.33,7.33,0,0,1-.9.05,7.77,7.77,0,0,1-.91-.05,5,5,0,0,1-.58-.14.64.64,0,0,1-.31-.22.6.6,0,0,1-.09-.33V201.55a.58.58,0,0,1,.1-.32.64.64,0,0,1,.33-.22,4,4,0,0,1,.59-.14,5.39,5.39,0,0,1,.87-.06,5.62,5.62,0,0,1,.9.06,3.29,3.29,0,0,1,.58.14.54.54,0,0,1,.31.22.57.57,0,0,1,.09.32Z"/><path class="cls-1" d="M854,229.18a1.86,1.86,0,0,1-.15.79,1.5,1.5,0,0,1-.38.53,1.44,1.44,0,0,1-.54.3,2,2,0,0,1-.58.09h-1.25a4,4,0,0,1-1-.12,2.45,2.45,0,0,1-.83-.46,4.71,4.71,0,0,1-.8-.92,12.74,12.74,0,0,1-.84-1.47l-8.65-17c-.45-.88-.91-1.8-1.36-2.76s-.89-1.9-1.28-2.81h-.05q0,1.66.06,3.39c0,1.16,0,2.3,0,3.45v18a.57.57,0,0,1-.1.32.65.65,0,0,1-.31.23,5.56,5.56,0,0,1-.58.14,8.31,8.31,0,0,1-1.82,0,4.74,4.74,0,0,1-.57-.14.67.67,0,0,1-.3-.23.65.65,0,0,1-.09-.32V202.66a1.64,1.64,0,0,1,.49-1.32,1.76,1.76,0,0,1,1.09-.39H836a4.24,4.24,0,0,1,1.1.12,2.15,2.15,0,0,1,.79.38,2.89,2.89,0,0,1,.68.74,9.22,9.22,0,0,1,.69,1.19l6.65,13.11,1.19,2.34c.38.76.75,1.51,1.1,2.25s.7,1.47,1,2.18.69,1.44,1,2.16h0c0-1.21-.05-2.48-.06-3.79s0-2.59,0-3.8V201.62a.53.53,0,0,1,.09-.3.88.88,0,0,1,.31-.24,1.94,1.94,0,0,1,.59-.15,7.63,7.63,0,0,1,.93-.05,7.35,7.35,0,0,1,.88.05,1.66,1.66,0,0,1,.57.15.88.88,0,0,1,.31.24.53.53,0,0,1,.09.3Z"/><path class="cls-1" d="M884.88,205c0,.3,0,.56,0,.78a2.73,2.73,0,0,1-.14.55.58.58,0,0,1-.22.31.5.5,0,0,1-.28.1,1.89,1.89,0,0,1-.87-.44,15.12,15.12,0,0,0-1.65-1,15.39,15.39,0,0,0-2.46-1,11.86,11.86,0,0,0-3.41-.44,9.53,9.53,0,0,0-4.21.9,9.16,9.16,0,0,0-3.16,2.49,11.48,11.48,0,0,0-2,3.79,15.78,15.78,0,0,0-.69,4.76,15.49,15.49,0,0,0,.76,5.07,10.83,10.83,0,0,0,2.09,3.74,8.59,8.59,0,0,0,3.19,2.31,10.35,10.35,0,0,0,4.06.79,10.61,10.61,0,0,0,2.66-.34,9.34,9.34,0,0,0,2.51-1v-8.71h-6.57a.59.59,0,0,1-.56-.39,3.06,3.06,0,0,1-.19-1.22,5.21,5.21,0,0,1,0-.75,1.56,1.56,0,0,1,.14-.51.78.78,0,0,1,.23-.29.58.58,0,0,1,.33-.09h9a1.36,1.36,0,0,1,.48.09,1.11,1.11,0,0,1,.43.28,1.08,1.08,0,0,1,.31.51,2.35,2.35,0,0,1,.11.74v11.38a2.57,2.57,0,0,1-.19,1,1.82,1.82,0,0,1-.84.77,14.51,14.51,0,0,1-1.64.72,18.26,18.26,0,0,1-4.25,1.09,17.82,17.82,0,0,1-2.17.14,15.28,15.28,0,0,1-5.87-1.07,12.11,12.11,0,0,1-4.38-3.06,13.44,13.44,0,0,1-2.72-4.76,19,19,0,0,1-.94-6.18,19.31,19.31,0,0,1,1-6.45,14.27,14.27,0,0,1,2.87-4.91,12.7,12.7,0,0,1,4.45-3.15,14.32,14.32,0,0,1,5.75-1.12,14.81,14.81,0,0,1,3.05.3,18.58,18.58,0,0,1,2.53.7,9.53,9.53,0,0,1,1.86.88,5.39,5.39,0,0,1,1,.77,1.59,1.59,0,0,1,.4.7A4.44,4.44,0,0,1,884.88,205Z"/><rect class="cls-1" x="898.01" y="210.93" width="76.97" height="7.02"/><rect class="cls-1" x="402.54" y="210.93" width="76.97" height="7.02"/></g></g></svg>