<svg xmlns="http://www.w3.org/2000/svg" xmlns:xlink="http://www.w3.org/1999/xlink" viewBox="0 0 1920 1080"><defs><style>.cls-1{font-size:34.2px;stroke:#fff;stroke-miterlimit:10;stroke-width:2px;letter-spacing:0.06em;}.cls-1,.cls-2,.cls-3,.cls-4,.cls-5{fill:#fff;}.cls-1,.cls-4,.cls-5{font-family:CenturyGothic, Century Gothic;}.cls-3{fill-rule:evenodd;}.cls-4{font-size:10.36px;letter-spacing:0.06em;}.cls-5{font-size:10.36px;letter-spacing:0.06em;}.cls-6{letter-spacing:0.02em;}</style></defs><title>manutence</title><g id="BG"><image width="1921" height="1081" transform="translate(-0.5 -0.5)" xlink:href="C:%5CUsers%5CLucas%5CDesktop%5CPrancheta%205.png"/></g><g id="Camada_3" data-name="Camada 3"><text class="cls-1" transform="translate(785.1 509.83)">SOB MANUTENÇÃO</text><path class="cls-2" d="M793.59,583.26a6,6,0,1,0,6,6A6,6,0,0,0,793.59,583.26Zm.29,9.41a3.68,3.68,0,0,1-1.72-.43l-1.53.42h-.08a.36.36,0,0,1-.25-.11.35.35,0,0,1,0-.34l.55-1.22a3.65,3.65,0,1,1,3.07,1.67Z"/><path class="cls-3" d="M793.88,586a3,3,0,0,0-2.45,4.77.33.33,0,0,1,0,.32l-.35.76,1-.27h.08a.29.29,0,0,1,.16,0,3,3,0,1,0,1.52-5.61Zm1.79,4.18a.91.91,0,0,1-.67.5,1.49,1.49,0,0,1-.75-.12,3,3,0,0,1-.63-.3,3.89,3.89,0,0,1-1-.95c-.08-.12-.16-.24-.23-.36a1.87,1.87,0,0,1-.23-.52,2,2,0,0,1,0-.24,1,1,0,0,1,.33-.74.44.44,0,0,1,.46-.07c.16.09.24.32.31.47a.77.77,0,0,1,.1.42.9.9,0,0,1-.22.36.14.14,0,0,0,0,.2,2.47,2.47,0,0,0,1.2,1c.07,0,.13,0,.17,0s.18-.33.32-.38a.6.6,0,0,1,.53.12c.14.08.38.19.42.36A.46.46,0,0,1,795.67,590.19Z"/><text class="cls-4" transform="translate(803.72 592.55)">22 99992-4574</text><path class="cls-2" d="M902.87,587.3a.45.45,0,1,1-.45-.45A.45.45,0,0,1,902.87,587.3Z"/><path class="cls-2" d="M900.38,583.26a6,6,0,1,0,6,6A6,6,0,0,0,900.38,583.26Zm3.84,7.51a2.29,2.29,0,0,1-2.29,2.29h-3a2.29,2.29,0,0,1-2.29-2.29v-3a2.29,2.29,0,0,1,2.29-2.29h3a2.29,2.29,0,0,1,2.29,2.29Z"/><path class="cls-2" d="M901.93,586.17h-3a1.58,1.58,0,0,0-1.58,1.57v3a1.57,1.57,0,0,0,1.58,1.57h3a1.57,1.57,0,0,0,1.57-1.57v-3A1.57,1.57,0,0,0,901.93,586.17Zm-1.5,5a1.88,1.88,0,1,1,1.88-1.88A1.88,1.88,0,0,1,900.43,591.18Zm2-3.43a.45.45,0,1,1,.45-.45A.45.45,0,0,1,902.42,587.75Z"/><path class="cls-2" d="M901.64,589.3a1.21,1.21,0,1,1-1.21-1.2A1.21,1.21,0,0,1,901.64,589.3Z"/><text class="cls-4" transform="translate(910.51 592.55)">nomapa.turismo</text><path class="cls-2" d="M1019.12,583.26a6,6,0,1,0,6,6A6,6,0,0,0,1019.12,583.26Zm1.68,3.59a.09.09,0,0,1-.09.09H1020a.32.32,0,0,0-.32.32V588h1a.09.09,0,0,1,.09.1l-.09,1.07a.09.09,0,0,1-.09.09h-.94v3.56a.1.1,0,0,1-.09.09h-1.31a.09.09,0,0,1-.09-.09v-3.56h-.65a.09.09,0,0,1-.09-.09v-1.08a.09.09,0,0,1,.09-.09h.65v-1a1.31,1.31,0,0,1,1.31-1.31h1.23a.09.09,0,0,1,.09.09Z"/><text class="cls-5" transform="translate(1029.21 592.55)">/No-Mapa-<tspan class="cls-6" x="62.55" y="0">T</tspan><tspan x="67.15" y="0">urismo</tspan></text><path class="cls-3" d="M992.46,560.4a7.07,7.07,0,0,0-.26,1.92c0,3.06,1.85,5.5,4.24,6a18.61,18.61,0,0,0-4-7.9m0-.1,0,.1Zm0-.13,0,.08Zm2.22-3.1a5.81,5.81,0,0,0-2.21,3.06,18.82,18.82,0,0,1,4.15,8.22,4.44,4.44,0,0,0,.63,0,4.11,4.11,0,0,0,2.61-.82c-.21-1-.46-1.87-.74-2.74a2.49,2.49,0,0,1-1.23.3,2.55,2.55,0,0,1-2.55-2.81,2.65,2.65,0,0,1,1.44-2.56c-.16-.26-.32-.5-.49-.74A17,17,0,0,0,994.75,557.07Zm.08-.06-.06,0Zm.09,0-.07,0Zm4.86,0h0a4.17,4.17,0,0,0-2.46-.71,4.56,4.56,0,0,0-2.39.69l0,0a16.69,16.69,0,0,1,1.58,1.94c.19.26.36.52.54.8a2.57,2.57,0,0,1,3.43,2.65,2.79,2.79,0,0,1-1.11,2.39c.28.85.52,1.75.73,2.69a3.69,3.69,0,0,0,.38-.41v1.08h2.69c-.34-2.07-.8-4.19-1.34-6.32A16,16,0,0,0,999.78,557Zm.73-.39v1.08l-.1-.12a16.53,16.53,0,0,1,1.67,4.15c.5,2,.93,3.9,1.26,5.82v.56h.38V556.58Zm-13.62,7.89,0,0Zm.05-.05,0,0Zm0,0,0,0Zm-4.2-3.16,0-.06Zm0,.06,0,0Zm8,2.33v0Zm-8.2-6.23v-.8H979.4v.53a15.73,15.73,0,0,1,3.17.26Zm-3.21,6.84v8.45h3.21V567a3.8,3.8,0,0,0,2.89,1.39,7.47,7.47,0,0,0-2.61-3,6.79,6.79,0,0,0-2.75-1Zm0-3.54V564l.77.09a7,7,0,0,1,2.84,1.06,7.6,7.6,0,0,1,2.75,3.27h0a4.61,4.61,0,0,0,2.89-1,14.41,14.41,0,0,0-1.84-2.84,2.46,2.46,0,0,1-1.69.62,2.54,2.54,0,0,1-2.55-2.81,3.36,3.36,0,0,1,.12-.92,8.09,8.09,0,0,0-1.45-.44A15.88,15.88,0,0,0,979.4,560.68Zm3.23-3,0,0v0h-.08a15.29,15.29,0,0,0-3.13-.26v3.07a15.36,15.36,0,0,1,1.93.29,8.55,8.55,0,0,1,1.47.44,2.41,2.41,0,0,1,2.36-1.64,2.54,2.54,0,0,1,2.55,2.8,3,3,0,0,1-.72,2l0,0a14.44,14.44,0,0,1,1.85,2.86h0a6.06,6.06,0,0,0,1.89-3.35,16,16,0,0,0-4.54-4.71A10,10,0,0,0,982.63,557.64Zm3.17-1.38a4,4,0,0,0-3,1.16,10.3,10.3,0,0,1,3.52,1.5,16.05,16.05,0,0,1,4.48,4.58,6.48,6.48,0,0,0,.1-1.18C990.92,558.9,988.61,556.26,985.8,556.26Zm-14.52,3.26h0Zm-.06,0h0Zm-.06,0h0Zm-1.7.75,0,0Zm0,.05,0,0Zm0,0,0,0Zm7.66.07v-2.81a22.56,22.56,0,0,0-4.68,1.62l-.69.3a2.4,2.4,0,0,1,2,1.82A11.28,11.28,0,0,1,977,560.44Zm-9.51,6.71a4.61,4.61,0,0,0,3.11,1.24,3.89,3.89,0,0,0,3.19-1.4v1.08H977v-3.81a18.3,18.3,0,0,0-4.48,1.35,23.69,23.69,0,0,1-5,1.55Zm-1.8-3.11a6.21,6.21,0,0,0,1.58,2.9,23.57,23.57,0,0,0,5.17-1.56A18,18,0,0,1,977,564V560.7a10.88,10.88,0,0,0-3.27.92,3.88,3.88,0,0,1,.06.7,2.54,2.54,0,0,1-2.55,2.81,2.41,2.41,0,0,1-2.31-1.52A13.18,13.18,0,0,1,965.73,564Zm-.05-.22,0,.08Zm0-3.07a7.33,7.33,0,0,0-.17,1.57,7.79,7.79,0,0,0,.15,1.47,13.6,13.6,0,0,0,3.22-.42,3.41,3.41,0,0,1-.15-1,3,3,0,0,1,.63-2l0,0A9,9,0,0,1,965.69,560.75Zm5.87-4.41a4.44,4.44,0,0,0-.92-.08,4.53,4.53,0,0,0-2.58.81h0A29.1,29.1,0,0,0,971.56,556.34Zm2.27.24v1.08a3.58,3.58,0,0,0-1.77-1.2,29,29,0,0,1-4.38.9,6.08,6.08,0,0,0-1.93,3.15,9.12,9.12,0,0,0,4-.48l0,0a2.44,2.44,0,0,1,1.38-.53h0l1.2-.51a23.22,23.22,0,0,1,4.77-1.65v-.79ZM960.17,566.8v1.27h3.43v-.7l-1.21-.09h0A19.22,19.22,0,0,1,960.17,566.8Zm0-3.89v3.63a17.79,17.79,0,0,0,2.24.49l1.19.09v-3.18h-.07A16,16,0,0,1,960.17,562.91Zm0-4.17v3.9a15.68,15.68,0,0,0,3.4,1.05h0v-3.43A17.41,17.41,0,0,1,960.17,558.74Zm-11.56-1.22v10.55H952v-6.26q-.56-.57-1.08-1.17A29.85,29.85,0,0,1,948.61,557.52Zm1.3-5.54h-1.3v5.11a29.24,29.24,0,0,0,2.51,3.38c.3.34.6.67.91,1v-2.75l3.88,6.82h.39l.17-.3c-.38-.22-.76-.45-1.12-.69l-.28-.48c.49.34,1,.66,1.52.95l1.73-3a18.3,18.3,0,0,1-4.58-3.9A26.25,26.25,0,0,1,949.91,552Zm7.55,4.76-1.36,2.39L952,552h-1.86a25.55,25.55,0,0,0,3.74,5.92,18.12,18.12,0,0,0,4.53,3.86l1.72-3A15.59,15.59,0,0,1,957.46,556.74Zm4.3-4.76h-1.59l-2.59,4.55a16.32,16.32,0,0,0,6,3.47v-2.94a10,10,0,0,1-4.44-3.3l.13-.23a9.72,9.72,0,0,0,4.31,3.26v-3.2A7.09,7.09,0,0,1,961.76,552Zm1.84,0h-1.53a6.89,6.89,0,0,0,1.53,1.32Zm-41.4,5.07L918.85,552h-2.17a8.26,8.26,0,0,0,3.19,1.55l.2.29a8.32,8.32,0,0,1-3.78-1.84h0v3.34a17.64,17.64,0,0,0,4,1.52A9.07,9.07,0,0,0,922.2,557.05Zm-5.92,6.41v4.61h3.42v-4.19c-.59,0-1.22,0-1.88-.11h0A15.34,15.34,0,0,1,916.28,563.46Zm0-3.79v3.54c.51.12,1,.23,1.56.31s1.28.1,1.86.11v-3.14l-.73-.07h0A15.72,15.72,0,0,1,916.28,559.67Zm6.28,4,2.92,4.42h2.57v-6l-.07,0a22.61,22.61,0,0,1-5.39,1.6Zm2.07-3.62v.69l-2.27-3.42a8.76,8.76,0,0,1-2.16-.22h0a17.37,17.37,0,0,1-3.92-1.48v3.81a16.91,16.91,0,0,0,2.72.77l.7.06v-.9l.62.93h0a13.78,13.78,0,0,0,3.78-.36l.14.23a13.88,13.88,0,0,1-3.75.38l2,3a21.92,21.92,0,0,0,5.46-1.61l.15-.06v-3.17l-.16.08A20.32,20.32,0,0,1,924.63,560Zm0-3.09v2.83a19.1,19.1,0,0,0,3.16-1.29l.26-.12v-2.74l-.26.12A25.49,25.49,0,0,1,924.63,556.94Zm0-3.32v3.06a24.76,24.76,0,0,0,3.07-1.18l.35-.15v-2.56C927,553.1,925.83,553.4,924.63,553.62Zm0-1.64v1.38c1.2-.22,2.33-.52,3.42-.83V552Z"/><path class="cls-2" d="M935.65,555.44a6.49,6.49,0,0,0-6.25,6.7c0,2.28,1,4.73,3,7.29a22.38,22.38,0,0,0,3,3.13.5.5,0,0,0,.28.1.47.47,0,0,0,.27-.1,22.1,22.1,0,0,0,3-3.13c2-2.56,3-5,3-7.29a6.49,6.49,0,0,0-6.24-6.7m2.31,6.7a2.32,2.32,0,1,1-2.31-2.48A2.4,2.4,0,0,1,938,562.14Z"/><path class="cls-2" d="M935.65,555.44a5.52,5.52,0,0,0-.81.06,6.56,6.56,0,0,1,5.44,6.64c0,2.28-1,4.73-3,7.29a23.33,23.33,0,0,1-2.44,2.65l.53.48a.5.5,0,0,0,.28.1.47.47,0,0,0,.27-.1,22.1,22.1,0,0,0,3-3.13c2-2.56,3-5,3-7.29a6.49,6.49,0,0,0-6.24-6.7"/></g></svg>