<svg xmlns="http://www.w3.org/2000/svg" viewBox="0 0 347.2 259.38"><defs><style>.cls-1{fill:#001944;}</style></defs><title>njord</title><g id="Camada_2" data-name="Camada 2"><g id="Camada_1-2" data-name="Camada 1"><g id="Camada_1-2-2" data-name="Camada 1-2"><path class="cls-1" d="M347.2,13V62c0-17.39-69.44-17.39-69.44,0s-69.44,17.39-69.44,0-69.44-17.39-69.44,0S69.44,79.43,69.44,62,0,44.66,0,62.05v-49c0-17.4,69.44-17.4,69.44,0s69.44,17.39,69.44,0,69.44-17.4,69.44,0,69.44,17.39,69.44,0S347.2-4.36,347.2,13Z"/><path class="cls-1" d="M347.2,197.34v49c0-17.39-69.44-17.39-69.44,0s-69.44,17.39-69.44,0-69.44-17.39-69.44,0-69.44,17.39-69.44,0S0,229,0,246.35v-49c0-17.4,69.44-17.4,69.44,0s69.44,17.39,69.44,0,69.44-17.4,69.44,0,69.44,17.39,69.44,0S347.2,180,347.2,197.34Z"/><path class="cls-1" d="M347.2,103.29v49c0-17.39-69.44-17.39-69.44,0s-69.44,17.39-69.44,0-69.44-17.39-69.44,0-69.44,17.39-69.44,0S0,134.91,0,152.3v-49c0-17.4,69.44-17.4,69.44,0s69.44,17.39,69.44,0,69.44-17.4,69.44,0,69.44,17.39,69.44,0S347.2,85.89,347.2,103.29Z"/></g></g></g></svg>